<svg width="1440" height="628" viewBox="0 0 1440 628" fill="none" xmlns="http://www.w3.org/2000/svg">
<g id="Footer">
<g id="Links">
<rect width="1440" height="532" fill="#00294D"/>
<rect id="Rectangle 1" width="628" height="532" fill="#00203D"/>
<g id="Produtos">
<g id="Title">
<text id="PRODUTOS" fill="white" xml:space="preserve" style="white-space: pre" font-family="Onest" font-size="20" letter-spacing="1.2px"><tspan x="732" y="113.65">PRODUTOS</tspan></text>
</g>
<g id="Links_2">
<text id="Impress&#195;&#163;o Flexogr&#195;&#161;fica" fill="#ECECEC" xml:space="preserve" style="white-space: pre" font-family="Onest" font-size="18" letter-spacing="0em"><tspan x="732" y="173.985">Impress&#xe3;o Flexogr&#xe1;fica</tspan></text>
<text id="Impress&#195;&#163;o Digital" fill="#ECECEC" xml:space="preserve" style="white-space: pre" font-family="Onest" font-size="18" letter-spacing="0em"><tspan x="732" y="225.985">Impress&#xe3;o Digital</tspan></text>
<text id="Composi&#195;&#167;&#195;&#181;es Customizadas" fill="#ECECEC" xml:space="preserve" style="white-space: pre" font-family="Onest" font-size="18" letter-spacing="0em"><tspan x="732" y="277.985">Composi&#xe7;&#xf5;es Customizadas</tspan></text>
<text id="Design de Embalagens" fill="#ECECEC" xml:space="preserve" style="white-space: pre" font-family="Onest" font-size="18" letter-spacing="0em"><tspan x="732" y="329.985">Design de Embalagens</tspan></text>
<text id="Suporte T&#195;&#169;cnico" fill="#ECECEC" xml:space="preserve" style="white-space: pre" font-family="Onest" font-size="18" letter-spacing="0em"><tspan x="732" y="381.985">Suporte T&#xe9;cnico</tspan></text>
</g>
</g>
<text id="Fale conosco atrav&#195;&#169;s dos canais de contato abaixo e solicite um or&#195;&#167;amento." fill="#ECECEC" xml:space="preserve" style="white-space: pre" font-family="Onest" font-size="18" letter-spacing="0em"><tspan x="108" y="177.485">Fale conosco atrav&#xe9;s dos canais de contato </tspan><tspan x="108" y="204.485">abaixo e solicite um or&#xe7;amento.</tspan></text>
<text id="FA&#195;&#135;A UMA COTA&#195;&#167;&#195;&#131;O" fill="white" xml:space="preserve" style="white-space: pre" font-family="Onest" font-size="20" letter-spacing="1.2px"><tspan x="108" y="113.65">FA&#xc7;A UMA COTA&#xc7;&#xc3;O</tspan></text>
<g id="Produtos_2">
<g id="Title_2">
<text id="LINKS &#195;&#154;TEIS" fill="white" xml:space="preserve" style="white-space: pre" font-family="Onest" font-size="20" letter-spacing="1.2px"><tspan x="1044" y="113.65">LINKS &#xda;TEIS</tspan></text>
</g>
<g id="Links_3">
<text id="Solicite Or&#195;&#167;amento" fill="#ECECEC" xml:space="preserve" style="white-space: pre" font-family="Onest" font-size="18" letter-spacing="0em"><tspan x="1044" y="173.985">Solicite Or&#xe7;amento</tspan></text>
<text id="Canal de &#195;&#137;tica" fill="#ECECEC" xml:space="preserve" style="white-space: pre" font-family="Onest" font-size="18" letter-spacing="0em"><tspan x="1044" y="225.985">Canal de &#xc9;tica</tspan></text>
<text id="Pol&#195;&#173;tica de Sustentabilidade" fill="#ECECEC" xml:space="preserve" style="white-space: pre" font-family="Onest" font-size="18" letter-spacing="0em"><tspan x="1044" y="277.985">Pol&#xed;tica de Sustentabilidade</tspan></text>
<text id="Pol&#195;&#173;tica de Conduta" fill="#ECECEC" xml:space="preserve" style="white-space: pre" font-family="Onest" font-size="18" letter-spacing="0em"><tspan x="1044" y="329.985">Pol&#xed;tica de Conduta</tspan></text>
<g id="Link">
<text id="Venha Trabalhar Conosco" fill="white" xml:space="preserve" style="white-space: pre" font-family="Inter" font-size="18" font-weight="600" letter-spacing="0em"><tspan x="1044" y="385.045">Venha Trabalhar&#10;</tspan><tspan x="1044" y="412.045">Conosco</tspan></text>
<g id="span.line-square-icon">
<g id="Icon" clip-path="url(#clip0_610_783)">
<path id="Vector" d="M1129.4 411.67L1141.57 399.43L1142.59 400.456L1130.43 412.678L1129.4 411.67ZM1141.23 411.724V400.852H1130.37V399.412H1142.67V411.724H1141.23Z" fill="#006CCC"/>
</g>
</g>
</g>
</g>
</g>
<g id="Button">
<g id="Icon_2">
<rect x="108" y="284" width="64" height="64" rx="32" fill="#006CCC"/>
<g id="Mail" clip-path="url(#clip1_610_783)">
<path id="Vector_2" d="M152 307.127L140 318.127L128 307.127" stroke="#F8F8F8" stroke-width="1.5" stroke-linecap="round"/>
<path id="Vector_3" d="M152 306.627H128V325.627H152V306.627Z" stroke="#F8F8F8" stroke-width="1.5"/>
<path id="Vector_4" d="M137.812 316.127L128.312 324.839" stroke="#F8F8F8" stroke-width="1.5" stroke-linecap="round"/>
<path id="Vector_5" d="M151.688 324.839L142.188 316.127" stroke="#F8F8F8" stroke-width="1.5" stroke-linecap="round" stroke-linejoin="round"/>
</g>
</g>
<g id="Text">
<text id="Preencha nosso" fill="#ECECEC" xml:space="preserve" style="white-space: pre" font-family="Inter" font-size="18" letter-spacing="0em"><tspan x="188" y="307.545">Preencha nosso</tspan></text>
<g id="Link_2">
<text id="Formul&#195;&#161;rio de Contato" fill="white" xml:space="preserve" style="white-space: pre" font-family="Inter" font-size="20" font-weight="500" letter-spacing="0em"><tspan x="188" y="337.273">Formul&#xe1;rio de Contato</tspan></text>
<g id="span.line-square-icon_2">
<g id="Icon_3">
<path id="Vector_6" d="M419.289 321.178L427.979 329.868L419.289 338.558L418.035 337.326L425.471 329.868L418.035 322.432L419.289 321.178ZM426.989 328.988V330.748H410.005V328.988H426.989Z" fill="#006CCC"/>
</g>
</g>
</g>
</g>
</g>
<g id="Button_2">
<g id="Icon_4">
<rect x="108" y="380" width="64" height="64" rx="32" fill="#006CCC"/>
<g id="Phone" clip-path="url(#clip2_610_783)">
<path id="Vector_7" d="M135.1 412.211C136.126 414.328 137.838 416.037 139.959 417.057C140.115 417.131 140.288 417.163 140.461 417.15C140.633 417.137 140.799 417.079 140.943 416.982L144.057 414.901C144.195 414.808 144.354 414.751 144.519 414.736C144.685 414.721 144.852 414.748 145.004 414.814L150.834 417.318C151.033 417.401 151.2 417.547 151.308 417.734C151.416 417.921 151.459 418.138 151.432 418.352C151.247 419.794 150.543 421.12 149.452 422.081C148.36 423.041 146.956 423.572 145.502 423.572C141.009 423.572 136.7 421.787 133.522 418.61C130.345 415.432 128.56 411.123 128.56 406.63C128.56 405.176 129.09 403.772 130.051 402.68C131.012 401.589 132.337 400.885 133.78 400.7C133.994 400.672 134.211 400.716 134.398 400.824C134.585 400.932 134.731 401.099 134.814 401.298L137.318 407.14C137.383 407.29 137.41 407.454 137.397 407.617C137.384 407.78 137.331 407.937 137.243 408.075L135.162 411.239C135.07 411.382 135.015 411.547 135.005 411.717C134.994 411.887 135.027 412.057 135.1 412.211Z" stroke="white" stroke-width="1.56" stroke-linecap="round" stroke-linejoin="round"/>
</g>
</g>
<g id="Text_2">
<text id="Ligue para" fill="#ECECEC" xml:space="preserve" style="white-space: pre" font-family="Inter" font-size="18" letter-spacing="0em"><tspan x="188" y="403.545">Ligue para</tspan></text>
<g id="Link_3">
<text id="(51) 3595.9696" fill="white" xml:space="preserve" style="white-space: pre" font-family="Inter" font-size="20" font-weight="500" letter-spacing="0em"><tspan x="188" y="433.273">(51) 3595.9696</tspan></text>
<g id="span.line-square-icon_3">
<g id="Icon_5">
<path id="Vector_8" d="M354.289 417.178L362.979 425.868L354.289 434.558L353.035 433.326L360.471 425.868L353.035 418.432L354.289 417.178ZM361.989 424.988V426.748H345.005V424.988H361.989Z" fill="#006CCC"/>
</g>
</g>
</g>
</g>
</g>
<line id="Line 5" x1="108" y1="243.5" x2="524" y2="243.5" stroke="#003666"/>
</g>
<g id="Copyright">
<rect width="1440" height="96" transform="translate(0 532)" fill="#001B33"/>
<g id="Logo" clip-path="url(#clip3_610_783)">
<path id="Vector_9" d="M131.468 583.689C135.515 581.389 139.4 579.182 143.394 576.911V588.535C139.303 591.002 135.185 593.484 131.015 595.999C128.931 594.778 126.857 593.564 124.785 592.347C123.541 591.614 122.298 590.879 121.057 590.142C120.252 589.663 120.127 589.423 120.124 588.243C123.888 590.457 127.601 592.639 131.468 594.912V583.686V583.689Z" fill="#006CCC"/>
<path id="Vector_10" d="M118.913 575.076V562.747C122.967 560.519 127.024 558.288 131.185 556V568.168C127.218 570.402 123.12 572.707 118.913 575.076Z" fill="#006CCC"/>
<path id="Vector_11" d="M132.922 569.159C132.922 569.837 132.929 570.366 132.922 570.894C132.881 573.586 132.919 576.281 132.747 578.964C132.684 579.957 132.127 580.919 131.797 581.896L131.516 581.83V569.379C135.733 567.47 140.136 567.181 144.738 568.414C142.814 566.857 139.461 565.936 131.919 568.231C132.598 567.847 133.269 567.448 133.957 567.08C135.532 566.241 137.097 565.38 138.7 564.6C141.462 563.255 144.188 563.202 146.854 564.918C149.141 566.389 151.459 567.811 153.761 569.26C153.947 569.376 154.114 569.519 154.391 569.725C151.866 571.064 149.473 572.486 146.951 573.627C144.816 574.594 142.518 574.631 140.391 573.482C138.149 572.27 135.983 570.918 133.783 569.629C133.548 569.491 133.307 569.369 132.92 569.159H132.922Z" fill="#009948"/>
<path id="Vector_12" d="M129.713 583.087C126.817 584.57 124.501 586.63 121.465 587.334C119.761 587.729 118.203 587.546 116.676 586.578C114.117 584.955 111.48 583.457 108.877 581.904C108.615 581.748 108.364 581.576 108 581.341C109.176 580.702 110.268 580.123 111.347 579.519C112.781 578.717 114.245 577.959 115.621 577.065C117.568 575.799 119.545 575.737 121.46 576.921C123.815 578.376 126.066 580.001 128.359 581.605C124.77 580.27 121.173 579.066 117.388 580.903C121.651 580.288 125.683 580.954 129.714 583.087H129.713Z" fill="#009948"/>
</g>
<text id="R. Farroupilha, 233 - S&#195;&#163;o Jos&#195;&#169;, Novo Hamburgo - RS, 93530-500" fill="white" xml:space="preserve" style="white-space: pre" font-family="Onest" font-size="14" letter-spacing="0em"><tspan x="162" y="585.155">R. Farroupilha, 233 - S&#xe3;o Jos&#xe9;,  Novo Hamburgo - RS, 93530-500</tspan></text>
<g id="Todos os Direitos Reservados &#194;&#169; 2023">
<text fill="white" xml:space="preserve" style="white-space: pre" font-family="Onest" font-size="14" letter-spacing="0em"><tspan x="1084.91" y="585.155">Todos os Direitos Reservados </tspan><tspan x="1294.88" y="585.155"> 2023</tspan></text>
<text fill="#006CCC" xml:space="preserve" style="white-space: pre" font-family="Onest" font-size="14" letter-spacing="0em"><tspan x="1281.91" y="585.155">&#xa9;</tspan></text>
</g>
<g id="Frame" opacity="0.25" clip-path="url(#clip4_610_783)">
<path id="Vector_13" d="M1386.17 585.033C1386.17 585.033 1385.39 585.023 1384.6 584.581C1383.81 584.14 1383.68 583.821 1383.32 583.857C1382.97 583.892 1383.08 583.456 1383.08 583.456C1383.08 583.456 1383.09 583.262 1382.8 583.069C1382.76 583.046 1382.69 583.009 1382.59 582.961C1383.13 581.019 1383.13 578.983 1382.59 577.041C1382.69 576.994 1382.76 576.957 1382.8 576.933C1383.09 576.74 1383.08 576.547 1383.08 576.547C1383.08 576.547 1382.97 576.11 1383.32 576.145C1383.68 576.18 1383.81 575.861 1384.6 575.421C1385.39 574.979 1386.17 574.969 1386.17 574.969C1388.24 574.603 1388.04 573.637 1387.95 573.395C1387.84 573.162 1387.3 572.333 1385.58 573.538C1385.58 573.538 1385.02 574.081 1384.15 574.329C1383.28 574.577 1382.96 574.446 1382.73 574.72C1382.51 574.994 1382.28 574.608 1382.28 574.608C1382.28 574.608 1382.15 574.461 1381.8 574.534C1381.76 574.542 1381.68 574.569 1381.58 574.608C1380.72 573.079 1379.51 571.781 1378.03 570.811C1377.82 570.674 1377.61 570.545 1377.39 570.422C1377.43 570.317 1377.46 570.237 1377.47 570.197C1377.54 569.851 1377.39 569.723 1377.39 569.723C1377.39 569.723 1377.01 569.491 1377.28 569.267C1377.56 569.043 1377.42 568.722 1377.67 567.851C1377.92 566.979 1378.46 566.422 1378.46 566.422C1379.67 564.699 1378.84 564.161 1378.61 564.051C1378.36 563.964 1377.4 563.759 1377.03 565.83C1377.03 565.83 1377.02 566.608 1376.58 567.399C1376.14 568.19 1375.82 568.325 1375.86 568.677C1375.89 569.029 1375.46 568.92 1375.46 568.92C1375.46 568.92 1375.26 568.907 1375.07 569.203C1375.05 569.238 1375.01 569.313 1374.96 569.415C1374 569.147 1373.01 569.007 1372 569.007H1372C1370.99 569.007 1370 569.144 1369.04 569.415C1368.99 569.313 1368.96 569.238 1368.93 569.203C1368.74 568.908 1368.55 568.92 1368.55 568.92C1368.55 568.92 1368.11 569.029 1368.15 568.677C1368.18 568.325 1367.86 568.19 1367.42 567.399C1366.98 566.608 1366.97 565.83 1366.97 565.83C1366.6 563.758 1365.64 563.963 1365.39 564.05C1365.16 564.16 1364.33 564.698 1365.54 566.421C1365.54 566.421 1366.08 566.978 1366.33 567.85C1366.58 568.721 1366.44 569.042 1366.72 569.266C1366.99 569.49 1366.61 569.722 1366.61 569.722C1366.61 569.722 1366.46 569.85 1366.53 570.196C1366.54 570.237 1366.57 570.315 1366.61 570.42C1364.85 571.407 1363.41 572.846 1362.42 574.606C1362.31 574.567 1362.24 574.541 1362.2 574.533C1361.85 574.46 1361.72 574.607 1361.72 574.607C1361.72 574.607 1361.49 574.993 1361.27 574.719C1361.04 574.445 1360.72 574.576 1359.85 574.328C1358.98 574.079 1358.42 573.537 1358.42 573.537C1356.7 572.332 1356.16 573.161 1356.05 573.394C1355.96 573.636 1355.76 574.602 1357.83 574.968C1357.83 574.968 1358.61 574.978 1359.4 575.42C1360.19 575.861 1360.32 576.18 1360.68 576.144C1361.03 576.109 1360.92 576.545 1360.92 576.545C1360.92 576.545 1360.91 576.739 1361.2 576.932C1361.24 576.955 1361.31 576.992 1361.41 577.04C1360.87 578.982 1360.87 581.017 1361.41 582.96C1361.31 583.007 1361.24 583.044 1361.2 583.068C1360.91 583.261 1360.92 583.455 1360.92 583.455C1360.92 583.455 1361.03 583.891 1360.68 583.856C1360.32 583.821 1360.19 584.14 1359.4 584.58C1358.61 585.022 1357.83 585.032 1357.83 585.032C1355.76 585.398 1355.96 586.364 1356.05 586.606C1356.16 586.839 1356.7 587.667 1358.42 586.463C1358.42 586.463 1358.98 585.92 1359.85 585.672C1360.72 585.424 1361.04 585.555 1361.27 585.281C1361.49 585.007 1361.72 585.393 1361.72 585.393C1361.72 585.393 1361.85 585.54 1362.2 585.467C1362.24 585.459 1362.32 585.432 1362.42 585.393C1363.28 586.922 1364.49 588.22 1365.97 589.19C1366.18 589.327 1366.39 589.456 1366.61 589.579C1366.57 589.684 1366.54 589.764 1366.53 589.804C1366.46 590.15 1366.61 590.278 1366.61 590.278C1366.61 590.278 1366.99 590.51 1366.72 590.734C1366.44 590.958 1366.58 591.279 1366.33 592.15C1366.08 593.022 1365.54 593.579 1365.54 593.579C1364.33 595.302 1365.16 595.84 1365.39 595.95C1365.64 596.037 1366.6 596.242 1366.97 594.171C1366.97 594.171 1366.98 593.393 1367.42 592.602C1367.86 591.811 1368.18 591.676 1368.14 591.324C1368.11 590.972 1368.54 591.081 1368.54 591.081C1368.54 591.081 1368.74 591.094 1368.93 590.798C1368.95 590.763 1368.99 590.688 1369.04 590.586C1370 590.854 1370.99 590.994 1372 590.994C1373.01 590.994 1374 590.857 1374.96 590.586C1375.01 590.688 1375.04 590.763 1375.07 590.798C1375.26 591.093 1375.45 591.081 1375.45 591.081C1375.45 591.081 1375.89 590.972 1375.85 591.324C1375.82 591.676 1376.14 591.811 1376.58 592.602C1377.02 593.393 1377.03 594.171 1377.03 594.171C1377.4 596.242 1378.36 596.037 1378.6 595.95C1378.84 595.84 1379.67 595.302 1378.46 593.579C1378.46 593.579 1377.92 593.022 1377.67 592.15C1377.42 591.279 1377.55 590.958 1377.28 590.734C1377.01 590.51 1377.39 590.278 1377.39 590.278C1377.39 590.278 1377.54 590.15 1377.47 589.804C1377.46 589.763 1377.43 589.685 1377.39 589.58C1379.15 588.593 1380.59 587.154 1381.58 585.394C1381.68 585.433 1381.76 585.459 1381.8 585.467C1382.15 585.54 1382.28 585.393 1382.28 585.393C1382.28 585.393 1382.51 585.007 1382.73 585.281C1382.96 585.555 1383.28 585.424 1384.15 585.672C1385.02 585.921 1385.58 586.463 1385.58 586.463C1387.3 587.667 1387.84 586.839 1387.95 586.606C1388.03 586.364 1388.24 585.398 1386.17 585.032L1386.17 585.033ZM1379.87 581.833C1379.62 581.731 1379.46 581.667 1379.46 581.667C1379.46 581.667 1379.14 581.584 1378.94 581.769C1378.94 581.769 1377.67 581.241 1376.65 580.896C1376.65 580.896 1376.38 580.896 1376.2 580.955C1376.01 581.015 1375.83 580.829 1375.83 580.829C1375.83 580.829 1375.52 580.309 1375.08 580.212C1375.09 580.072 1375.09 579.93 1375.08 579.789C1375.52 579.692 1375.83 579.172 1375.83 579.172C1375.83 579.172 1376.01 578.986 1376.2 579.045C1376.38 579.105 1376.65 579.105 1376.65 579.105C1377.67 578.76 1378.94 578.232 1378.94 578.232C1379.14 578.417 1379.46 578.334 1379.46 578.334C1379.46 578.334 1379.62 578.27 1379.88 578.167C1380.16 579.399 1380.15 580.65 1379.87 581.831V581.833ZM1378.86 575.727C1378.61 575.835 1378.45 575.905 1378.45 575.905C1378.45 575.905 1378.17 576.072 1378.16 576.343C1378.16 576.343 1376.89 576.866 1375.92 577.349C1375.92 577.349 1375.73 577.535 1375.64 577.708C1375.55 577.881 1375.29 577.88 1375.29 577.88C1375.29 577.88 1374.7 577.733 1374.33 577.972C1374.24 577.864 1374.14 577.764 1374.03 577.671C1374.27 577.297 1374.12 576.708 1374.12 576.708C1374.12 576.708 1374.12 576.446 1374.29 576.357C1374.47 576.268 1374.65 576.083 1374.65 576.083C1375.14 575.112 1375.66 573.842 1375.66 573.842C1375.93 573.833 1376.1 573.549 1376.1 573.549C1376.1 573.549 1376.17 573.386 1376.27 573.135C1377.3 573.775 1378.2 574.652 1378.86 575.725V575.727ZM1372 571.913C1372.62 571.913 1373.23 571.986 1373.83 572.125C1373.73 572.379 1373.66 572.543 1373.66 572.543C1373.66 572.543 1373.58 572.862 1373.77 573.06C1373.77 573.06 1373.24 574.328 1372.89 575.355C1372.89 575.355 1372.89 575.618 1372.95 575.802C1373.01 575.987 1372.83 576.172 1372.83 576.172C1372.83 576.172 1372.31 576.485 1372.21 576.919C1372.14 576.914 1372.07 576.911 1372 576.911C1371.93 576.911 1371.86 576.914 1371.79 576.919C1371.69 576.485 1371.17 576.172 1371.17 576.172C1371.17 576.172 1370.98 575.987 1371.04 575.802C1371.1 575.618 1371.1 575.355 1371.1 575.355C1370.76 574.327 1370.23 573.06 1370.23 573.06C1370.41 572.862 1370.33 572.543 1370.33 572.543C1370.33 572.543 1370.27 572.379 1370.17 572.125C1370.77 571.982 1371.39 571.912 1371.99 571.912L1372 571.913ZM1367.73 573.137C1367.83 573.389 1367.9 573.551 1367.9 573.551C1367.9 573.551 1368.07 573.835 1368.34 573.844C1368.34 573.844 1368.86 575.114 1369.35 576.085C1369.35 576.085 1369.53 576.269 1369.71 576.359C1369.88 576.448 1369.88 576.71 1369.88 576.71C1369.88 576.71 1369.73 577.299 1369.97 577.673C1369.86 577.767 1369.76 577.867 1369.67 577.973C1369.3 577.735 1368.71 577.881 1368.71 577.881C1368.71 577.881 1368.45 577.882 1368.36 577.709C1368.27 577.537 1368.08 577.35 1368.08 577.35C1367.11 576.867 1365.84 576.344 1365.84 576.344C1365.83 576.073 1365.55 575.906 1365.55 575.906C1365.55 575.906 1365.39 575.836 1365.14 575.729C1365.78 574.698 1366.65 573.804 1367.73 573.137ZM1364.13 578.17C1364.38 578.272 1364.54 578.336 1364.54 578.336C1364.54 578.336 1364.86 578.419 1365.06 578.234C1365.06 578.234 1366.33 578.762 1367.35 579.107C1367.35 579.107 1367.62 579.107 1367.8 579.048C1367.99 578.988 1368.17 579.174 1368.17 579.174C1368.17 579.174 1368.48 579.694 1368.92 579.791C1368.91 579.931 1368.91 580.073 1368.92 580.215C1368.48 580.311 1368.17 580.831 1368.17 580.831C1368.17 580.831 1367.99 581.017 1367.8 580.958C1367.62 580.898 1367.35 580.898 1367.35 580.898C1366.33 581.243 1365.06 581.771 1365.06 581.771C1364.86 581.586 1364.54 581.669 1364.54 581.669C1364.54 581.669 1364.38 581.733 1364.12 581.836C1363.84 580.604 1363.85 579.353 1364.13 578.172V578.17ZM1365.14 584.276C1365.39 584.168 1365.55 584.098 1365.55 584.098C1365.55 584.098 1365.83 583.931 1365.84 583.66C1365.84 583.66 1367.11 583.137 1368.08 582.654C1368.08 582.654 1368.27 582.468 1368.36 582.295C1368.45 582.122 1368.71 582.123 1368.71 582.123C1368.71 582.123 1369.3 582.27 1369.67 582.031C1369.76 582.139 1369.86 582.239 1369.97 582.332C1369.73 582.706 1369.88 583.295 1369.88 583.295C1369.88 583.295 1369.88 583.557 1369.71 583.646C1369.53 583.735 1369.35 583.92 1369.35 583.92C1368.86 584.891 1368.34 586.161 1368.34 586.161C1368.07 586.17 1367.9 586.454 1367.9 586.454C1367.9 586.454 1367.83 586.617 1367.73 586.868C1366.7 586.228 1365.8 585.351 1365.14 584.278V584.276ZM1372 588.09C1371.38 588.09 1370.77 588.017 1370.17 587.878C1370.27 587.624 1370.34 587.46 1370.34 587.46C1370.34 587.46 1370.42 587.141 1370.23 586.943C1370.23 586.943 1370.76 585.675 1371.11 584.648C1371.11 584.648 1371.11 584.385 1371.05 584.201C1370.99 584.016 1371.17 583.831 1371.17 583.831C1371.17 583.831 1371.69 583.518 1371.79 583.084C1371.86 583.089 1371.93 583.092 1372 583.092C1372.07 583.092 1372.14 583.089 1372.21 583.084C1372.31 583.518 1372.83 583.831 1372.83 583.831C1372.83 583.831 1373.02 584.016 1372.96 584.201C1372.9 584.385 1372.9 584.648 1372.9 584.648C1373.24 585.677 1373.77 586.943 1373.77 586.943C1373.59 587.141 1373.67 587.46 1373.67 587.46C1373.67 587.46 1373.73 587.624 1373.84 587.878C1373.23 588.021 1372.61 588.091 1372.01 588.091L1372 588.09ZM1376.27 586.866C1376.17 586.615 1376.1 586.452 1376.1 586.452C1376.1 586.452 1375.93 586.168 1375.66 586.159C1375.66 586.159 1375.14 584.889 1374.65 583.918C1374.65 583.918 1374.47 583.734 1374.29 583.644C1374.12 583.556 1374.12 583.293 1374.12 583.293C1374.12 583.293 1374.27 582.704 1374.03 582.33C1374.14 582.236 1374.24 582.136 1374.33 582.03C1374.7 582.268 1375.29 582.122 1375.29 582.122C1375.29 582.122 1375.55 582.121 1375.64 582.294C1375.73 582.466 1375.92 582.653 1375.92 582.653C1376.89 583.136 1378.16 583.659 1378.16 583.659C1378.17 583.93 1378.45 584.097 1378.45 584.097C1378.45 584.097 1378.61 584.167 1378.86 584.275C1378.22 585.305 1377.35 586.199 1376.27 586.866Z" fill="#006CCC"/>
</g>
</g>
</g>
<defs>
<clipPath id="clip0_610_783">
<rect width="17.28" height="18" fill="white" transform="matrix(1 0 0 -1 1129.4 415)"/>
</clipPath>
<clipPath id="clip1_610_783">
<rect width="26" height="22" fill="white" transform="translate(127 305)"/>
</clipPath>
<clipPath id="clip2_610_783">
<rect width="24.96" height="26" fill="white" transform="translate(127.52 399)"/>
</clipPath>
<clipPath id="clip3_610_783">
<rect width="46" height="40" fill="white" transform="translate(108 556)"/>
</clipPath>
<clipPath id="clip4_610_783">
<rect width="32" height="32" fill="white" transform="translate(1356 564)"/>
</clipPath>
</defs>
</svg>
