<svg width="1440" height="628" viewBox="0 0 1440 628" fill="none" xmlns="http://www.w3.org/2000/svg">
<g id="Footer">
<g id="Links">
<rect width="1440" height="532" fill="#00294D"/>
<rect id="Rectangle 1" width="628" height="532" fill="#00203D"/>
<text id="Fale conosco atrav&#195;&#169;s dos canais de contato abaixo e solicite um or&#195;&#167;amento." fill="#ECECEC" xml:space="preserve" style="white-space: pre" font-family="Onest" font-size="18" letter-spacing="0em"><tspan x="108" y="177.485">Fale conosco atrav&#xe9;s dos canais de contato </tspan><tspan x="108" y="204.485">abaixo e solicite um or&#xe7;amento.</tspan></text>
<text id="FA&#195;&#135;A UMA COTA&#195;&#167;&#195;&#131;O" fill="white" xml:space="preserve" style="white-space: pre" font-family="Onest" font-size="20" letter-spacing="1.2px"><tspan x="108" y="113.65">FA&#xc7;A UMA COTA&#xc7;&#xc3;O</tspan></text>
<g id="Address">
<g id="Title">
<text id="NOS VISITE" fill="white" xml:space="preserve" style="white-space: pre" font-family="Onest" font-size="20" letter-spacing="1.2px"><tspan x="732" y="347.65">NOS VISITE</tspan></text>
</g>
<g id="Links_2">
<text id="R. Farroupilha, 233, S&#195;&#163;o Jos&#195;&#169;, Novo Hamburgo - RS. &#226;&#128;&#168;CEP: 93530-500" fill="#ECECEC" xml:space="preserve" style="white-space: pre" font-family="Onest" font-size="18" letter-spacing="0em"><tspan x="732" y="403.485">R. Farroupilha, 233, S&#xe3;o Jos&#xe9;,  </tspan><tspan x="732" y="430.485">Novo Hamburgo - RS. &#x2028;</tspan><tspan x="732" y="457.485">CEP: 93530-500</tspan></text>
</g>
</g>
<g id="Medias">
<g id="Title_2">
<text id="NOSSAS REDES" fill="white" xml:space="preserve" style="white-space: pre" font-family="Onest" font-size="20" letter-spacing="1.2px"><tspan x="732" y="113.65">NOSSAS REDES</tspan></text>
</g>
<g id="Social Media">
<g id="Link">
<g id="Frame" clip-path="url(#clip0_610_783)">
<g id="Clip path group">
<mask id="mask0_610_783" style="mask-type:luminance" maskUnits="userSpaceOnUse" x="732" y="160" width="16" height="16">
<g id="clip0_135_68">
<path id="Vector" d="M748 160H732V176H748V160Z" fill="white"/>
</g>
</mask>
<g mask="url(#mask0_610_783)">
<g id="Instagram">
<path id="Vector_2" d="M740 160C737.829 160 737.556 160.01 736.703 160.048C735.85 160.088 735.269 160.222 734.76 160.42C734.226 160.621 733.742 160.936 733.343 161.343C732.936 161.743 732.621 162.226 732.42 162.76C732.222 163.268 732.087 163.85 732.048 164.7C732.01 165.555 732 165.827 732 168.001C732 170.173 732.01 170.445 732.048 171.298C732.088 172.15 732.222 172.731 732.42 173.24C732.625 173.766 732.898 174.212 733.343 174.657C733.787 175.102 734.233 175.376 734.759 175.58C735.269 175.778 735.849 175.913 736.701 175.952C737.555 175.99 737.827 176 740 176C742.173 176 742.444 175.99 743.298 175.952C744.149 175.912 744.732 175.778 745.241 175.58C745.775 175.379 746.258 175.064 746.657 174.657C747.102 174.212 747.375 173.766 747.58 173.24C747.777 172.731 747.912 172.15 747.952 171.298C747.99 170.445 748 170.173 748 168C748 165.827 747.99 165.555 747.952 164.701C747.912 163.85 747.777 163.268 747.58 162.76C747.379 162.226 747.064 161.743 746.657 161.343C746.258 160.936 745.774 160.621 745.24 160.42C744.73 160.222 744.148 160.087 743.297 160.048C742.443 160.01 742.172 160 739.998 160H740.001H740ZM739.283 161.442H740.001C742.137 161.442 742.39 161.449 743.233 161.488C744.013 161.523 744.437 161.654 744.719 161.763C745.092 161.908 745.359 162.082 745.639 162.362C745.919 162.642 746.092 162.908 746.237 163.282C746.347 163.563 746.477 163.987 746.512 164.767C746.551 165.61 746.559 165.863 746.559 167.998C746.559 170.133 746.551 170.387 746.512 171.23C746.477 172.01 746.346 172.433 746.237 172.715C746.109 173.062 745.904 173.376 745.638 173.634C745.358 173.914 745.092 174.087 744.718 174.232C744.438 174.342 744.014 174.472 743.233 174.508C742.39 174.546 742.137 174.555 740.001 174.555C737.865 174.555 737.611 174.546 736.768 174.508C735.988 174.472 735.565 174.342 735.283 174.232C734.935 174.104 734.621 173.9 734.363 173.634C734.097 173.376 733.892 173.062 733.763 172.714C733.654 172.433 733.523 172.009 733.488 171.229C733.45 170.386 733.442 170.133 733.442 167.996C733.442 165.86 733.45 165.608 733.488 164.765C733.524 163.985 733.654 163.561 733.764 163.279C733.909 162.906 734.083 162.639 734.363 162.359C734.643 162.079 734.909 161.906 735.283 161.761C735.565 161.651 735.988 161.521 736.768 161.485C737.506 161.451 737.792 161.441 739.283 161.44V161.442ZM744.271 162.77C744.145 162.77 744.02 162.795 743.904 162.843C743.787 162.891 743.681 162.962 743.592 163.051C743.503 163.14 743.432 163.246 743.384 163.363C743.336 163.479 743.311 163.604 743.311 163.73C743.311 163.856 743.336 163.981 743.384 164.097C743.432 164.214 743.503 164.32 743.592 164.409C743.681 164.498 743.787 164.569 743.904 164.617C744.02 164.665 744.145 164.69 744.271 164.69C744.526 164.69 744.77 164.589 744.95 164.409C745.13 164.229 745.231 163.985 745.231 163.73C745.231 163.475 745.13 163.231 744.95 163.051C744.77 162.871 744.526 162.77 744.271 162.77ZM740.001 163.892C739.456 163.883 738.915 163.983 738.409 164.186C737.903 164.389 737.443 164.69 737.054 165.072C736.666 165.455 736.357 165.911 736.147 166.413C735.936 166.916 735.828 167.455 735.828 168C735.828 168.545 735.936 169.085 736.147 169.588C736.357 170.09 736.666 170.546 737.054 170.929C737.443 171.311 737.903 171.612 738.409 171.815C738.915 172.017 739.456 172.118 740.001 172.109C741.08 172.092 742.108 171.652 742.865 170.883C743.622 170.115 744.046 169.079 744.046 168C744.046 166.922 743.622 165.886 742.865 165.118C742.108 164.349 741.08 163.909 740.001 163.892ZM740.001 165.333C740.708 165.333 741.387 165.614 741.887 166.114C742.387 166.614 742.668 167.293 742.668 168C742.668 168.707 742.387 169.386 741.887 169.886C741.387 170.386 740.708 170.667 740.001 170.667C739.294 170.667 738.615 170.386 738.115 169.886C737.615 169.386 737.334 168.707 737.334 168C737.334 167.293 737.615 166.614 738.115 166.114C738.615 165.614 739.294 165.333 740.001 165.333Z" fill="#EDEDED"/>
</g>
</g>
</g>
</g>
<text id="Instagram_2" fill="#ECECEC" xml:space="preserve" style="white-space: pre" font-family="Onest" font-size="18" letter-spacing="0em"><tspan x="760" y="173.985">Instagram</tspan></text>
</g>
<g id="Link_2">
<g id="Frame_2" clip-path="url(#clip1_610_783)">
<g id="Clip path group_2">
<mask id="mask1_610_783" style="mask-type:luminance" maskUnits="userSpaceOnUse" x="732" y="212" width="16" height="16">
<g id="clip0_135_61">
<path id="Vector_3" d="M748 212H732V228H748V212Z" fill="white"/>
</g>
</mask>
<g mask="url(#mask1_610_783)">
<g id="Facebook">
<path id="Vector_4" d="M748 220.049C748 215.603 744.418 211.999 740 211.999C735.58 212 731.998 215.603 731.998 220.05C731.998 224.067 734.924 227.397 738.748 228.001V222.376H736.718V220.05H738.75V218.275C738.75 216.258 739.945 215.144 741.772 215.144C742.648 215.144 743.563 215.301 743.563 215.301V217.281H742.554C741.561 217.281 741.251 217.902 741.251 218.539V220.049H743.469L743.115 222.375H741.25V228C745.074 227.396 748 224.066 748 220.049Z" fill="#EDEDED"/>
</g>
</g>
</g>
</g>
<text id="Facebook_2" fill="#ECECEC" xml:space="preserve" style="white-space: pre" font-family="Onest" font-size="18" letter-spacing="0em"><tspan x="760" y="225.985">Facebook</tspan></text>
</g>
<g id="Link_3">
<g id="Frame_3" clip-path="url(#clip2_610_783)">
<g id="Clip path group_3">
<mask id="mask2_610_783" style="mask-type:luminance" maskUnits="userSpaceOnUse" x="732" y="264" width="16" height="16">
<g id="clip0_135_72">
<path id="Vector_5" d="M748 264H732V280H748V264Z" fill="white"/>
</g>
</mask>
<g mask="url(#mask2_610_783)">
<g id="Linkedin">
<path id="Vector_6" d="M732 265.146C732 264.513 732.526 264 733.175 264H746.825C747.474 264 748 264.513 748 265.146V278.854C748 279.487 747.474 280 746.825 280H733.175C732.526 280 732 279.487 732 278.854V265.146ZM736.943 277.394V270.169H734.542V277.394H736.943ZM735.743 269.182C736.58 269.182 737.101 268.628 737.101 267.934C737.086 267.225 736.581 266.686 735.759 266.686C734.937 266.686 734.4 267.226 734.4 267.934C734.4 268.628 734.921 269.182 735.727 269.182H735.743ZM740.651 277.394V273.359C740.651 273.143 740.667 272.927 740.731 272.773C740.904 272.342 741.299 271.895 741.963 271.895C742.832 271.895 743.179 272.557 743.179 273.529V277.394H745.58V273.25C745.58 271.03 744.396 269.998 742.816 269.998C741.542 269.998 740.971 270.698 740.651 271.191V271.216H740.635C740.64 271.208 740.646 271.199 740.651 271.191V270.169H738.251C738.281 270.847 738.251 277.394 738.251 277.394H740.651Z" fill="#EDEDED"/>
</g>
</g>
</g>
</g>
<text id="Linkedin_2" fill="#ECECEC" xml:space="preserve" style="white-space: pre" font-family="Onest" font-size="18" letter-spacing="0em"><tspan x="760" y="277.985">Linkedin</tspan></text>
</g>
</g>
</g>
<g id="Useful Links">
<g id="Title_3">
<text id="LINKS &#195;&#154;TEIS" fill="white" xml:space="preserve" style="white-space: pre" font-family="Onest" font-size="20" letter-spacing="1.2px"><tspan x="1044" y="113.65">LINKS &#xda;TEIS</tspan></text>
</g>
<g id="Links_3">
<text id="Solicite Or&#195;&#167;amento" fill="#ECECEC" xml:space="preserve" style="white-space: pre" font-family="Onest" font-size="18" letter-spacing="0em"><tspan x="1044" y="173.985">Solicite Or&#xe7;amento</tspan></text>
<text id="Canal de &#195;&#137;tica" fill="#ECECEC" xml:space="preserve" style="white-space: pre" font-family="Onest" font-size="18" letter-spacing="0em"><tspan x="1044" y="225.985">Canal de &#xc9;tica</tspan></text>
<text id="Pol&#195;&#173;tica de Sustentabilidade" fill="#ECECEC" xml:space="preserve" style="white-space: pre" font-family="Onest" font-size="18" letter-spacing="0em"><tspan x="1044" y="277.985">Pol&#xed;tica de Sustentabilidade</tspan></text>
<text id="Pol&#195;&#173;tica de Conduta" fill="#ECECEC" xml:space="preserve" style="white-space: pre" font-family="Onest" font-size="18" letter-spacing="0em"><tspan x="1044" y="329.985">Pol&#xed;tica de Conduta</tspan></text>
<g id="Link_4">
<text id="Venha Trabalhar Conosco" fill="white" xml:space="preserve" style="white-space: pre" font-family="Inter" font-size="18" font-weight="600" letter-spacing="0em"><tspan x="1044" y="385.045">Venha Trabalhar&#10;</tspan><tspan x="1044" y="412.045">Conosco</tspan></text>
<g id="span.line-square-icon">
<g id="Icon" clip-path="url(#clip3_610_783)">
<path id="Vector_7" d="M1129.4 411.67L1141.57 399.43L1142.59 400.456L1130.43 412.678L1129.4 411.67ZM1141.23 411.724V400.852H1130.37V399.412H1142.67V411.724H1141.23Z" fill="#006CCC"/>
</g>
</g>
</g>
</g>
</g>
<g id="Button">
<g id="Icon_2">
<rect x="108" y="284" width="64" height="64" rx="32" fill="#006CCC"/>
<g id="Mail" clip-path="url(#clip4_610_783)">
<path id="Vector_8" d="M152 307.127L140 318.127L128 307.127" stroke="#F8F8F8" stroke-width="1.5" stroke-linecap="round"/>
<path id="Vector_9" d="M152 306.627H128V325.627H152V306.627Z" stroke="#F8F8F8" stroke-width="1.5"/>
<path id="Vector_10" d="M137.812 316.127L128.312 324.839" stroke="#F8F8F8" stroke-width="1.5" stroke-linecap="round"/>
<path id="Vector_11" d="M151.688 324.839L142.188 316.127" stroke="#F8F8F8" stroke-width="1.5" stroke-linecap="round" stroke-linejoin="round"/>
</g>
</g>
<g id="Text">
<text id="Preencha nosso" fill="#ECECEC" xml:space="preserve" style="white-space: pre" font-family="Inter" font-size="18" letter-spacing="0em"><tspan x="188" y="307.545">Preencha nosso</tspan></text>
<g id="Link_5">
<text id="Formul&#195;&#161;rio de Contato" fill="white" xml:space="preserve" style="white-space: pre" font-family="Inter" font-size="20" font-weight="500" letter-spacing="0em"><tspan x="188" y="337.273">Formul&#xe1;rio de Contato</tspan></text>
<g id="span.line-square-icon_2">
<g id="Icon_3">
<path id="Vector_12" d="M419.289 321.178L427.979 329.868L419.289 338.558L418.035 337.326L425.471 329.868L418.035 322.432L419.289 321.178ZM426.989 328.988V330.748H410.005V328.988H426.989Z" fill="#006CCC"/>
</g>
</g>
</g>
</g>
</g>
<g id="Button_2">
<g id="Icon_4">
<rect x="108" y="380" width="64" height="64" rx="32" fill="#006CCC"/>
<g id="Phone" clip-path="url(#clip5_610_783)">
<path id="Vector_13" d="M135.1 412.211C136.126 414.328 137.838 416.037 139.959 417.057C140.115 417.131 140.288 417.163 140.461 417.15C140.633 417.137 140.799 417.079 140.943 416.982L144.057 414.901C144.195 414.808 144.354 414.751 144.519 414.736C144.685 414.721 144.852 414.748 145.004 414.814L150.834 417.318C151.033 417.401 151.2 417.547 151.308 417.734C151.416 417.921 151.459 418.138 151.432 418.352C151.247 419.794 150.543 421.12 149.452 422.081C148.36 423.041 146.956 423.572 145.502 423.572C141.009 423.572 136.7 421.787 133.522 418.61C130.345 415.432 128.56 411.123 128.56 406.63C128.56 405.176 129.09 403.772 130.051 402.68C131.012 401.589 132.337 400.885 133.78 400.7C133.994 400.672 134.211 400.716 134.398 400.824C134.585 400.932 134.731 401.099 134.814 401.298L137.318 407.14C137.383 407.29 137.41 407.454 137.397 407.617C137.384 407.78 137.331 407.937 137.243 408.075L135.162 411.239C135.07 411.382 135.015 411.547 135.005 411.717C134.994 411.887 135.027 412.057 135.1 412.211Z" stroke="white" stroke-width="1.56" stroke-linecap="round" stroke-linejoin="round"/>
</g>
</g>
<g id="Text_2">
<text id="Ligue para" fill="#ECECEC" xml:space="preserve" style="white-space: pre" font-family="Inter" font-size="18" letter-spacing="0em"><tspan x="188" y="403.545">Ligue para</tspan></text>
<g id="Link_6">
<text id="(51) 3595.9696" fill="white" xml:space="preserve" style="white-space: pre" font-family="Inter" font-size="20" font-weight="500" letter-spacing="0em"><tspan x="188" y="433.273">(51) 3595.9696</tspan></text>
<g id="span.line-square-icon_3">
<g id="Icon_5">
<path id="Vector_14" d="M354.289 417.178L362.979 425.868L354.289 434.558L353.035 433.326L360.471 425.868L353.035 418.432L354.289 417.178ZM361.989 424.988V426.748H345.005V424.988H361.989Z" fill="#006CCC"/>
</g>
</g>
</g>
</g>
</g>
<line id="Line 5" x1="108" y1="243.5" x2="524" y2="243.5" stroke="#003666"/>
</g>
<g id="Copyright">
<rect width="1440" height="96" transform="translate(0 532)" fill="#001B33"/>
<g id="Todos os Direitos Reservados &#194;&#169; 2023">
<text fill="white" xml:space="preserve" style="white-space: pre" font-family="Onest" font-size="14" letter-spacing="0em"><tspan x="596.908" y="585.155">Todos os Direitos Reservados </tspan><tspan x="806.881" y="585.155"> 2023</tspan></text>
<text fill="#006CCC" xml:space="preserve" style="white-space: pre" font-family="Onest" font-size="14" letter-spacing="0em"><tspan x="793.906" y="585.155">&#xa9;</tspan></text>
</g>
<text id="Pol&#195;&#173;tica de Privacidade" fill="#006CCC" xml:space="preserve" style="white-space: pre" font-family="Onest" font-size="14" letter-spacing="0em"><tspan x="108.232" y="585.155"><a href="https://pegadaneutra.com.br/privacidade">Pol&#xed;tica de Privacidade</a></tspan></text>
<g id="Frame_4" opacity="0.25" clip-path="url(#clip6_610_783)">
<path id="Vector_15" d="M1328.71 586.291C1328.71 586.291 1327.74 586.278 1326.75 585.727C1325.76 585.175 1325.6 584.776 1325.16 584.821C1324.72 584.865 1324.85 584.32 1324.85 584.32C1324.85 584.32 1324.87 584.077 1324.5 583.836C1324.45 583.808 1324.36 583.761 1324.23 583.701C1324.92 581.274 1324.92 578.729 1324.23 576.301C1324.36 576.242 1324.45 576.196 1324.5 576.167C1324.87 575.926 1324.85 575.683 1324.85 575.683C1324.85 575.683 1324.72 575.138 1325.16 575.181C1325.6 575.225 1325.76 574.826 1326.75 574.276C1327.74 573.724 1328.71 573.711 1328.71 573.711C1331.3 573.253 1331.05 572.046 1330.94 571.743C1330.8 571.452 1330.13 570.417 1327.97 571.923C1327.97 571.923 1327.28 572.602 1326.19 572.911C1325.1 573.221 1324.7 573.057 1324.42 573.399C1324.14 573.742 1323.85 573.26 1323.85 573.26C1323.85 573.26 1323.69 573.076 1323.26 573.167C1323.2 573.178 1323.11 573.211 1322.97 573.26C1321.9 571.348 1320.39 569.727 1318.54 568.514C1318.28 568.342 1318.01 568.181 1317.74 568.028C1317.79 567.896 1317.82 567.796 1317.83 567.746C1317.93 567.314 1317.74 567.153 1317.74 567.153C1317.74 567.153 1317.26 566.863 1317.6 566.584C1317.95 566.304 1317.78 565.902 1318.09 564.813C1318.4 563.724 1319.08 563.027 1319.08 563.027C1320.59 560.873 1319.55 560.201 1319.26 560.064C1318.96 559.955 1317.75 559.698 1317.29 562.287C1317.29 562.287 1317.28 563.26 1316.73 564.249C1316.17 565.238 1315.78 565.406 1315.82 565.846C1315.86 566.286 1315.32 566.15 1315.32 566.15C1315.32 566.15 1315.08 566.133 1314.84 566.504C1314.81 566.548 1314.76 566.641 1314.7 566.768C1313.5 566.433 1312.26 566.259 1311 566.259H1311C1309.74 566.259 1308.5 566.43 1307.3 566.768C1307.24 566.641 1307.2 566.548 1307.17 566.504C1306.93 566.135 1306.68 566.15 1306.68 566.15C1306.68 566.15 1306.14 566.286 1306.18 565.846C1306.23 565.406 1305.83 565.238 1305.28 564.249C1304.72 563.26 1304.71 562.287 1304.71 562.287C1304.25 559.697 1303.05 559.954 1302.74 560.063C1302.45 560.2 1301.41 560.872 1302.92 563.026C1302.92 563.026 1303.6 563.723 1303.91 564.812C1304.22 565.901 1304.05 566.303 1304.4 566.582C1304.74 566.862 1304.26 567.152 1304.26 567.152C1304.26 567.152 1304.07 567.312 1304.17 567.745C1304.18 567.796 1304.21 567.893 1304.26 568.026C1302.06 569.258 1300.26 571.057 1299.03 573.257C1298.89 573.208 1298.8 573.176 1298.74 573.166C1298.31 573.075 1298.15 573.258 1298.15 573.258C1298.15 573.258 1297.86 573.741 1297.58 573.398C1297.3 573.056 1296.9 573.22 1295.81 572.909C1294.72 572.599 1294.03 571.922 1294.03 571.922C1291.87 570.416 1291.2 571.451 1291.06 571.742C1290.95 572.045 1290.7 573.252 1293.29 573.71C1293.29 573.71 1294.26 573.723 1295.25 574.274C1296.24 574.826 1296.4 575.225 1296.84 575.18C1297.28 575.137 1297.15 575.682 1297.15 575.682C1297.15 575.682 1297.13 575.924 1297.5 576.165C1297.55 576.194 1297.64 576.24 1297.77 576.3C1297.08 578.727 1297.08 581.271 1297.77 583.7C1297.64 583.759 1297.55 583.805 1297.5 583.835C1297.13 584.076 1297.15 584.318 1297.15 584.318C1297.15 584.318 1297.28 584.863 1296.84 584.82C1296.4 584.776 1296.24 585.175 1295.25 585.726C1294.26 586.277 1293.29 586.29 1293.29 586.29C1290.7 586.748 1290.95 587.955 1291.06 588.258C1291.2 588.549 1291.87 589.584 1294.03 588.078C1294.03 588.078 1294.72 587.4 1295.81 587.09C1296.9 586.78 1297.3 586.944 1297.58 586.602C1297.86 586.259 1298.15 586.741 1298.15 586.741C1298.15 586.741 1298.31 586.925 1298.74 586.834C1298.8 586.824 1298.89 586.79 1299.03 586.741C1300.1 588.653 1301.61 590.275 1303.46 591.487C1303.72 591.659 1303.99 591.821 1304.26 591.973C1304.21 592.105 1304.18 592.205 1304.17 592.255C1304.07 592.688 1304.26 592.848 1304.26 592.848C1304.26 592.848 1304.74 593.138 1304.4 593.418C1304.05 593.697 1304.22 594.099 1303.91 595.188C1303.6 596.277 1302.92 596.974 1302.92 596.974C1301.41 599.128 1302.45 599.8 1302.74 599.937C1303.04 600.046 1304.25 600.303 1304.71 597.714C1304.71 597.714 1304.72 596.742 1305.27 595.752C1305.83 594.763 1306.22 594.595 1306.18 594.155C1306.14 593.715 1306.68 593.851 1306.68 593.851C1306.68 593.851 1306.92 593.868 1307.16 593.497C1307.19 593.454 1307.24 593.36 1307.3 593.233C1308.5 593.568 1309.74 593.742 1311 593.742C1312.26 593.742 1313.5 593.572 1314.7 593.233C1314.76 593.36 1314.8 593.454 1314.83 593.497C1315.07 593.867 1315.32 593.851 1315.32 593.851C1315.32 593.851 1315.86 593.715 1315.82 594.155C1315.77 594.595 1316.17 594.763 1316.72 595.752C1317.28 596.742 1317.29 597.714 1317.29 597.714C1317.75 600.303 1318.95 600.046 1319.26 599.937C1319.55 599.8 1320.58 599.128 1319.08 596.974C1319.08 596.974 1318.4 596.277 1318.09 595.188C1317.78 594.099 1317.94 593.697 1317.6 593.418C1317.26 593.138 1317.74 592.848 1317.74 592.848C1317.74 592.848 1317.92 592.688 1317.83 592.255C1317.82 592.204 1317.79 592.107 1317.74 591.974C1319.94 590.742 1321.74 588.943 1322.97 586.743C1323.1 586.792 1323.2 586.824 1323.25 586.834C1323.69 586.925 1323.85 586.741 1323.85 586.741C1323.85 586.741 1324.14 586.259 1324.42 586.602C1324.7 586.944 1325.1 586.78 1326.19 587.09C1327.27 587.401 1327.97 588.078 1327.97 588.078C1330.13 589.584 1330.8 588.549 1330.93 588.258C1331.04 587.955 1331.3 586.748 1328.71 586.29L1328.71 586.291ZM1320.84 582.291C1320.53 582.164 1320.32 582.083 1320.32 582.083C1320.32 582.083 1319.92 581.98 1319.68 582.212C1319.68 582.212 1318.09 581.551 1316.81 581.12C1316.81 581.12 1316.48 581.12 1316.25 581.194C1316.02 581.269 1315.79 581.037 1315.79 581.037C1315.79 581.037 1315.39 580.386 1314.85 580.266C1314.87 580.09 1314.86 579.913 1314.85 579.736C1315.39 579.615 1315.79 578.965 1315.79 578.965C1315.79 578.965 1316.02 578.732 1316.25 578.807C1316.48 578.881 1316.81 578.881 1316.81 578.881C1318.09 578.45 1319.68 577.79 1319.68 577.79C1319.92 578.022 1320.32 577.918 1320.32 577.918C1320.32 577.918 1320.53 577.837 1320.84 577.709C1321.2 579.248 1321.19 580.812 1320.84 582.289V582.291ZM1319.58 574.659C1319.27 574.794 1319.06 574.881 1319.06 574.881C1319.06 574.881 1318.71 575.09 1318.7 575.429C1318.7 575.429 1317.11 576.082 1315.9 576.686C1315.9 576.686 1315.67 576.919 1315.55 577.135C1315.44 577.351 1315.12 577.349 1315.12 577.349C1315.12 577.349 1314.38 577.166 1313.91 577.465C1313.79 577.33 1313.67 577.205 1313.54 577.089C1313.83 576.621 1313.65 575.884 1313.65 575.884C1313.65 575.884 1313.65 575.557 1313.87 575.446C1314.08 575.335 1314.31 575.103 1314.31 575.103C1314.92 573.89 1315.57 572.303 1315.57 572.303C1315.91 572.291 1316.12 571.936 1316.12 571.936C1316.12 571.936 1316.21 571.733 1316.34 571.419C1317.63 572.219 1318.75 573.315 1319.58 574.657V574.659ZM1311 569.891C1311.77 569.891 1312.54 569.982 1313.29 570.156C1313.16 570.473 1313.08 570.679 1313.08 570.679C1313.08 570.679 1312.98 571.078 1313.21 571.325C1313.21 571.325 1312.55 572.91 1312.12 574.194C1312.12 574.194 1312.12 574.522 1312.19 574.753C1312.27 574.984 1312.03 575.215 1312.03 575.215C1312.03 575.215 1311.38 575.606 1311.26 576.149C1311.17 576.142 1311.09 576.138 1311 576.138C1310.91 576.138 1310.82 576.142 1310.73 576.149C1310.61 575.606 1309.96 575.215 1309.96 575.215C1309.96 575.215 1309.73 574.984 1309.8 574.753C1309.88 574.522 1309.88 574.194 1309.88 574.194C1309.45 572.908 1308.79 571.325 1308.79 571.325C1309.02 571.078 1308.91 570.679 1308.91 570.679C1308.91 570.679 1308.83 570.473 1308.71 570.156C1309.47 569.978 1310.23 569.89 1310.99 569.89L1311 569.891ZM1305.66 571.421C1305.79 571.736 1305.88 571.938 1305.88 571.938C1305.88 571.938 1306.09 572.294 1306.43 572.305C1306.43 572.305 1307.08 573.892 1307.69 575.106C1307.69 575.106 1307.92 575.337 1308.13 575.448C1308.35 575.56 1308.35 575.887 1308.35 575.887C1308.35 575.887 1308.17 576.623 1308.46 577.092C1308.33 577.208 1308.2 577.334 1308.09 577.466C1307.62 577.169 1306.88 577.351 1306.88 577.351C1306.88 577.351 1306.56 577.352 1306.45 577.137C1306.34 576.921 1306.1 576.688 1306.1 576.688C1304.89 576.083 1303.3 575.43 1303.3 575.43C1303.29 575.092 1302.94 574.883 1302.94 574.883C1302.94 574.883 1302.73 574.795 1302.42 574.661C1303.22 573.373 1304.32 572.255 1305.66 571.421ZM1301.16 577.713C1301.47 577.84 1301.68 577.92 1301.68 577.92C1301.68 577.92 1302.08 578.024 1302.32 577.792C1302.32 577.792 1303.91 578.453 1305.19 578.884C1305.19 578.884 1305.52 578.884 1305.75 578.809C1305.98 578.735 1306.21 578.967 1306.21 578.967C1306.21 578.967 1306.61 579.618 1307.15 579.738C1307.13 579.914 1307.14 580.091 1307.15 580.268C1306.61 580.389 1306.21 581.039 1306.21 581.039C1306.21 581.039 1305.98 581.271 1305.75 581.197C1305.52 581.123 1305.19 581.123 1305.19 581.123C1303.91 581.554 1302.32 582.214 1302.32 582.214C1302.08 581.982 1301.68 582.086 1301.68 582.086C1301.68 582.086 1301.47 582.167 1301.16 582.295C1300.8 580.756 1300.81 579.192 1301.16 577.715V577.713ZM1302.42 585.345C1302.73 585.21 1302.94 585.122 1302.94 585.122C1302.94 585.122 1303.29 584.913 1303.3 584.575C1303.3 584.575 1304.89 583.922 1306.1 583.317C1306.1 583.317 1306.33 583.085 1306.45 582.868C1306.56 582.653 1306.88 582.654 1306.88 582.654C1306.88 582.654 1307.62 582.838 1308.09 582.539C1308.21 582.673 1308.33 582.799 1308.46 582.915C1308.17 583.383 1308.35 584.119 1308.35 584.119C1308.35 584.119 1308.35 584.446 1308.13 584.558C1307.92 584.668 1307.69 584.901 1307.69 584.901C1307.08 586.114 1306.43 587.701 1306.43 587.701C1306.09 587.713 1305.88 588.068 1305.88 588.068C1305.88 588.068 1305.79 588.271 1305.66 588.585C1304.37 587.785 1303.25 586.689 1302.42 585.347V585.345ZM1311 590.113C1310.23 590.113 1309.46 590.022 1308.71 589.847C1308.84 589.53 1308.92 589.325 1308.92 589.325C1308.92 589.325 1309.02 588.926 1308.79 588.679C1308.79 588.679 1309.45 587.094 1309.88 585.81C1309.88 585.81 1309.88 585.482 1309.81 585.251C1309.73 585.02 1309.97 584.789 1309.97 584.789C1309.97 584.789 1310.62 584.398 1310.74 583.855C1310.83 583.861 1310.91 583.865 1311 583.865C1311.09 583.865 1311.18 583.861 1311.27 583.855C1311.39 584.398 1312.04 584.789 1312.04 584.789C1312.04 584.789 1312.27 585.02 1312.2 585.251C1312.12 585.482 1312.12 585.81 1312.12 585.81C1312.55 587.096 1313.21 588.679 1313.21 588.679C1312.98 588.926 1313.09 589.325 1313.09 589.325C1313.09 589.325 1313.17 589.53 1313.29 589.847C1312.53 590.026 1311.77 590.114 1311.01 590.114L1311 590.113ZM1316.34 588.582C1316.21 588.268 1316.12 588.066 1316.12 588.066C1316.12 588.066 1315.91 587.71 1315.57 587.699C1315.57 587.699 1314.92 586.112 1314.31 584.898C1314.31 584.898 1314.08 584.667 1313.87 584.555C1313.65 584.445 1313.65 584.117 1313.65 584.117C1313.65 584.117 1313.84 583.38 1313.54 582.912C1313.67 582.795 1313.8 582.67 1313.91 582.538C1314.38 582.835 1315.12 582.653 1315.12 582.653C1315.12 582.653 1315.44 582.652 1315.55 582.867C1315.66 583.083 1315.9 583.316 1315.9 583.316C1317.11 583.92 1318.7 584.574 1318.7 584.574C1318.71 584.912 1319.06 585.121 1319.06 585.121C1319.06 585.121 1319.27 585.208 1319.58 585.343C1318.78 586.631 1317.68 587.749 1316.34 588.582Z" fill="#006CCC"/>
</g>
</g>
</g>
<defs>
<clipPath id="clip0_610_783">
<rect width="16" height="16" fill="white" transform="translate(732 160)"/>
</clipPath>
<clipPath id="clip1_610_783">
<rect width="16" height="16" fill="white" transform="translate(732 212)"/>
</clipPath>
<clipPath id="clip2_610_783">
<rect width="16" height="16" fill="white" transform="translate(732 264)"/>
</clipPath>
<clipPath id="clip3_610_783">
<rect width="17.28" height="18" fill="white" transform="matrix(1 0 0 -1 1129.4 415)"/>
</clipPath>
<clipPath id="clip4_610_783">
<rect width="26" height="22" fill="white" transform="translate(127 305)"/>
</clipPath>
<clipPath id="clip5_610_783">
<rect width="24.96" height="26" fill="white" transform="translate(127.52 399)"/>
</clipPath>
<clipPath id="clip6_610_783">
<rect width="40" height="40" fill="white" transform="translate(1291 560)"/>
</clipPath>
</defs>
</svg>
