<svg width="1464" height="120" viewBox="0 0 1464 120" fill="none" xmlns="http://www.w3.org/2000/svg">
<g id="Heading" filter="url(#filter0_d_604_195)">
<rect width="1440" height="96" transform="translate(12 10)" fill="white"/>
<g id="Logo" clip-path="url(#clip0_604_195)">
<path id="Vector" d="M152.855 60.7644C158.521 57.5442 163.961 54.4551 169.552 51.2754V67.5481C163.825 71.0019 158.059 74.4772 152.221 77.9978C149.304 76.2887 146.401 74.5892 143.5 72.885C141.757 71.86 140.017 70.8303 138.28 69.7982C137.152 69.1284 136.978 68.7923 136.974 67.1405C142.244 70.2392 147.442 73.2949 152.855 76.477V60.7597V60.7644Z" fill="#005199"/>
<path id="Vector_2" d="M135.279 48.7057V31.4462C140.954 28.326 146.634 25.2035 152.46 22V39.0355C146.906 42.1628 141.169 45.3901 135.279 48.7057Z" fill="#005199"/>
<path id="Vector_3" d="M154.891 40.4227C154.891 41.3714 154.9 42.1127 154.891 42.8516C154.834 46.62 154.886 50.3932 154.645 54.1498C154.557 55.5394 153.778 56.8861 153.315 58.2543L152.922 58.1614V40.7302C158.826 38.0582 164.99 37.653 171.433 39.3787C168.74 37.2001 164.046 35.9106 153.487 39.1236C154.438 38.5849 155.377 38.0272 156.34 37.5123C158.545 36.3372 160.735 35.1311 162.981 34.0394C166.847 32.1564 170.663 32.0825 174.396 34.4852C177.597 36.5446 180.843 38.5349 184.066 40.5633C184.326 40.7254 184.559 40.9256 184.948 41.214C181.413 43.0899 178.062 45.0802 174.532 46.6772C171.543 48.0311 168.325 48.0835 165.348 46.4746C162.209 44.7775 159.177 42.8849 156.097 41.0806C155.768 40.8875 155.43 40.7159 154.889 40.4227H154.891Z" fill="#009948"/>
<path id="Vector_4" d="M150.398 59.9227C146.343 61.9988 143.102 64.883 138.852 65.8674C136.466 66.4204 134.285 66.1654 132.147 64.8091C128.564 62.5375 124.872 60.44 121.228 58.2661C120.86 58.0469 120.51 57.8061 120 57.4772C121.647 56.5833 123.175 55.7729 124.686 54.9267C126.693 53.8041 128.743 52.7434 130.669 51.492C133.396 49.7186 136.163 49.6328 138.845 51.2894C142.141 53.3274 145.292 55.6013 148.503 57.8466C143.478 55.9779 138.442 54.2927 133.143 56.8646C139.112 56.0041 144.756 56.9361 150.4 59.9227H150.398Z" fill="#009948"/>
<path id="Vector_5" d="M198.198 56.4094H205.883C207.785 61.0741 209.704 65.784 211.818 70.9707C213.949 65.8127 215.889 61.1146 217.842 56.3903H225.114V76.2528H219.267V59.7345C219.169 59.6916 219.071 59.6487 218.976 59.6058C216.702 65.1071 214.428 70.606 212.111 76.2099H207.985C205.785 70.7943 203.59 65.3908 201.395 59.9872C201.261 60.0253 201.128 60.0611 200.992 60.0992V76.2122H198.201V56.4094H198.198Z" fill="#005199"/>
<path id="Vector_6" d="M228.46 76.3434V56.3784C228.956 56.3522 229.497 56.2998 230.041 56.2974C234.46 56.2926 238.881 56.2878 243.301 56.2974C247.415 56.3069 248.425 57.3199 248.416 61.372C248.416 61.5008 248.416 61.6295 248.416 61.7558C248.411 64.9522 248.401 64.9665 245.791 65.9795C246.564 66.6636 248.001 67.3215 248.127 68.1724C248.428 70.208 248.459 72.4247 247.944 74.396C247.458 76.2623 245.396 76.3004 243.718 76.3195C239.554 76.3648 235.389 76.3386 231.225 76.341C230.289 76.341 229.352 76.341 228.46 76.341V76.3434ZM242.428 67.6862H234.536V73.7262H242.428V67.6862ZM234.541 58.9265V64.8616H242.445V58.9265H234.541Z" fill="#005199"/>
<path id="Vector_7" d="M281.219 58.8931V63.2241C283.69 63.2241 286.038 63.2027 288.384 63.2337C289.404 63.248 290.436 63.2909 291.435 63.472C293.032 63.7581 293.892 64.8307 293.94 66.4205C294.009 68.5991 294.016 70.7849 293.945 72.9635C293.883 74.8084 292.884 76.086 291.006 76.1241C286.084 76.2218 281.159 76.1575 276.089 76.1575C275.913 75.3947 275.734 74.6129 275.522 73.6881H288.162V68.7445C286.503 68.7445 284.937 68.7445 283.373 68.7445C282.282 68.7445 281.192 68.7421 280.101 68.7374C276.459 68.7207 275.372 67.6624 275.345 64.0846C275.336 62.6735 275.31 61.2601 275.369 59.8514C275.446 58.0517 276.254 56.5906 278.163 56.5429C283.207 56.419 288.255 56.5 293.408 56.5C293.532 57.3104 293.654 58.1018 293.773 58.8931H281.214H281.219Z" fill="#005199"/>
<path id="Vector_8" d="M178.672 76.2122V56.3903H195.028C195.19 57.2127 195.343 57.9993 195.517 58.874H184.767V64.8521H194.518V67.5837H184.769V73.7405H195.448C195.34 74.5485 195.238 75.3255 195.121 76.2146H178.672V76.2122Z" fill="#005199"/>
<path id="Vector_9" d="M303.212 73.7526H314.198V56.4025H317.044C317.044 61.8418 317.07 67.1596 317.032 72.475C317.015 74.8586 315.64 76.2863 313.171 76.3269C309.066 76.3936 304.959 76.3745 300.855 76.2577C298.268 76.1838 297.172 74.9062 297.172 72.3725C297.172 68.2036 297.193 64.0323 297.172 59.8634C297.167 58.7884 297.043 57.7134 296.965 56.4668H303.21V73.755L303.212 73.7526Z" fill="#005199"/>
<path id="Vector_10" d="M264.567 56.4403C267.673 63.0667 270.738 69.6049 273.858 76.2575H267.22C266.474 74.3387 265.766 72.5152 265.039 70.6393H255.378C254.668 72.4842 253.962 74.3125 253.223 76.2265H250.156C251.97 72.3317 253.712 68.599 255.447 64.8615C256.391 62.8307 257.366 60.8094 258.234 58.7452C258.501 58.1064 258.46 57.3389 258.589 56.4379H264.569L264.567 56.4403ZM263.745 68.0603C262.543 65.4789 261.461 63.1573 260.164 60.3732C258.896 63.1978 257.848 65.5337 256.715 68.0603H263.747H263.745Z" fill="#005199"/>
<path id="Vector_11" d="M326.018 73.7906H336.775C336.651 74.5938 336.532 75.3661 336.401 76.229H320.031V56.4619H326.018V73.7906Z" fill="#005199"/>
</g>
<g id="Links">
<g id="Frame 8" font-weight="500">
<a href="/empresa">
  <text id="Empresa" fill="#040404" xml:space="preserve" style="white-space: pre" font-family="Onest" font-size="16" letter-spacing="0.05em"><tspan x="472" y="64.32">EMPRESA</tspan></text>
</a>
<text id="Produtos" fill="#040404" xml:space="preserve" style="white-space: pre" font-family="Onest" font-size="16" letter-spacing="0.05em"><tspan x="577" y="64.32">PRODUTOS</tspan></text>
<text id="Sustentabilidade" fill="#040404" xml:space="preserve" style="white-space: pre" font-family="Onest" font-size="16" letter-spacing="0.05em"><tspan x="696" y="64.32">SUSTENTABILIDADE</tspan></text>
<text id="Inova&#195;&#167;&#195;&#163;o" fill="#040404" xml:space="preserve" style="white-space: pre" font-family="Onest" font-size="16" letter-spacing="0.05em"><tspan x="888" y="64.32">INOVA&#xc7;&#xc3;O</tspan></text>
<text id="Pessoas" fill="#040404" xml:space="preserve" style="white-space: pre" font-family="Onest" font-size="16" letter-spacing="0.05em"><tspan x="1001" y="64.32">PESSOAS</tspan></text>
</g>
<g id="Link">
<rect x="1113.5" y="32.5" width="230.31" height="53" rx="26.5" fill="#006CCC"/>
<rect x="1113.5" y="32.5" width="230.31" height="53" rx="26.5" stroke="#006CCC"/>
<text id="FA&#195;&#135;A UMA COTA&#195;&#135;&#195;&#131;O" fill="white" xml:space="preserve" style="white-space: pre" font-family="Onest" font-size="14" letter-spacing="0.05em"><tspan x="1137.28" y="63.655">FA&#xc7;A UMA COTA&#xc7;&#xc3;O</tspan></text>
<g id="span.get-a-quote-arrow-right">
<g id="Icon">
<path id="Vector_12" d="M1312.27 53.008L1318.73 59.462L1312.27 65.93L1311.12 64.782L1316.44 59.462L1311.12 54.156L1312.27 53.008ZM1299 58.664H1316.23V60.274H1299V58.664Z" fill="white"/>
</g>
</g>
</g>
</g>
</g>
<defs>
<filter id="filter0_d_604_195" x="0" y="0" width="1464" height="120" filterUnits="userSpaceOnUse" color-interpolation-filters="sRGB">
<feFlood flood-opacity="0" result="BackgroundImageFix"/>
<feColorMatrix in="SourceAlpha" type="matrix" values="0 0 0 0 0 0 0 0 0 0 0 0 0 0 0 0 0 0 127 0" result="hardAlpha"/>
<feOffset dy="2"/>
<feGaussianBlur stdDeviation="6"/>
<feComposite in2="hardAlpha" operator="out"/>
<feColorMatrix type="matrix" values="0 0 0 0 0 0 0 0 0 0 0 0 0 0 0 0 0 0 0.12 0"/>
<feBlend mode="normal" in2="BackgroundImageFix" result="effect1_dropShadow_604_195"/>
<feBlend mode="normal" in="SourceGraphic" in2="effect1_dropShadow_604_195" result="shape"/>
</filter>
<clipPath id="clip0_604_195">
<rect width="216.775" height="56" fill="white" transform="translate(120 22)"/>
</clipPath>
</defs>
</svg>
