<svg width="1184" height="360" viewBox="0 0 1184 360" fill="none" xmlns="http://www.w3.org/2000/svg">
<g clip-path="url(#clip0_973_697)">
<mask id="mask0_973_697" style="mask-type:alpha" maskUnits="userSpaceOnUse" x="-257" y="0" width="1440" height="673">
<path d="M1182.94 0.0151367H-256.5V672.5H1182.94V0.0151367Z" fill="#235CF2"/>
</mask>
<g mask="url(#mask0_973_697)">
<g opacity="0.2">
<path d="M147.345 -71.4386L-29.3809 -173.471L-29.3809 30.594L147.345 132.627L147.345 -71.4386Z" stroke="white" stroke-width="1.11801" stroke-linejoin="round"/>
<path d="M324.069 -173.472L147.344 -71.4392L147.344 132.626L324.069 30.5934L324.069 -173.472Z" stroke="white" stroke-width="1.11801" stroke-linejoin="round"/>
<path d="M147.345 336.688L-29.3809 234.656L-29.3809 438.721L147.345 540.754L147.345 336.688Z" stroke="white" stroke-width="1.11801" stroke-linejoin="round"/>
<path d="M324.069 234.656L147.344 132.624L-29.3818 234.656L147.344 336.689L324.069 234.656Z" stroke="white" stroke-width="1.11801" stroke-linejoin="round"/>
<path d="M324.069 234.655L147.344 336.688L147.344 540.753L324.069 438.721L324.069 234.655Z" stroke="white" stroke-width="1.11801" stroke-linejoin="round"/>
<path d="M500.795 -71.4386L324.069 -173.471L324.069 30.594L500.795 132.627L500.795 -71.4386Z" stroke="white" stroke-width="1.11801" stroke-linejoin="round"/>
<path d="M677.52 -173.472L500.794 -71.4392L500.794 132.626L677.52 30.5934L677.52 -173.472Z" stroke="white" stroke-width="1.11801" stroke-linejoin="round"/>
<path d="M500.795 336.688L324.069 234.656L324.069 438.721L500.795 540.754L500.795 336.688Z" stroke="white" stroke-width="1.11801" stroke-linejoin="round"/>
<path d="M677.52 234.656L500.794 132.624L324.068 234.656L500.794 336.689L677.52 234.656Z" stroke="white" stroke-width="1.11801" stroke-linejoin="round"/>
<path d="M677.52 234.655L500.794 336.688L500.794 540.753L677.52 438.721L677.52 234.655Z" stroke="white" stroke-width="1.11801" stroke-linejoin="round"/>
<path d="M854.249 -71.4386L677.523 -173.471L677.523 30.594L854.249 132.627L854.249 -71.4386Z" stroke="white" stroke-width="1.11801" stroke-linejoin="round"/>
<path d="M1030.97 -173.472L854.248 -71.4392L854.248 132.626L1030.97 30.5934L1030.97 -173.472Z" stroke="white" stroke-width="1.11801" stroke-linejoin="round"/>
<path d="M854.249 336.688L677.523 234.656L677.523 438.721L854.249 540.754L854.249 336.688Z" stroke="white" stroke-width="1.11801" stroke-linejoin="round"/>
<path d="M1030.97 234.656L854.248 132.624L677.522 234.656L854.248 336.689L1030.97 234.656Z" stroke="white" stroke-width="1.11801" stroke-linejoin="round"/>
<path d="M1030.97 234.655L854.248 336.688L854.248 540.753L1030.97 438.721L1030.97 234.655Z" stroke="white" stroke-width="1.11801" stroke-linejoin="round"/>
<path d="M1207.7 -71.4386L1030.97 -173.471L1030.97 30.594L1207.7 132.627L1207.7 -71.4386Z" stroke="white" stroke-width="1.11801" stroke-linejoin="round"/>
<path d="M1207.7 336.688L1030.97 234.656L1030.97 438.721L1207.7 540.754L1207.7 336.688Z" stroke="white" stroke-width="1.11801" stroke-linejoin="round"/>
<path d="M1384.42 234.656L1207.69 132.624L1030.97 234.656L1207.69 336.689L1384.42 234.656Z" stroke="white" stroke-width="1.11801" stroke-linejoin="round"/>
</g>
</g>
</g>
<defs>
<clipPath id="clip0_973_697">
<rect width="1184" height="360" fill="white"/>
</clipPath>
</defs>
</svg>
