<svg width="455" height="118" viewBox="0 0 455 118" fill="none" xmlns="http://www.w3.org/2000/svg">
<g clip-path="url(#clip0_364_220)">
<path d="M68.92 81.315C80.805 74.56 92.215 68.08 103.945 61.41V95.545C91.93 102.79 79.835 110.08 67.59 117.465C61.47 113.88 55.38 110.315 49.295 106.74C45.64 104.59 41.99 102.43 38.345 100.265C35.98 98.86 35.615 98.155 35.605 94.69C46.66 101.19 57.565 107.6 68.92 114.275V81.305V81.315Z" fill="white"/>
<path d="M32.05 56.02V19.815C43.955 13.27 55.87 6.72 68.09 0V35.735C56.44 42.295 44.405 49.065 32.05 56.02Z" fill="white"/>
<path d="M73.19 38.645C73.19 40.635 73.21 42.19 73.19 43.74C73.07 51.645 73.18 59.56 72.675 67.44C72.49 70.355 70.855 73.18 69.885 76.05L69.06 75.855V39.29C81.445 33.685 94.375 32.835 107.89 36.455C102.24 31.885 92.395 29.18 70.245 35.92C72.24 34.79 74.21 33.62 76.23 32.54C80.855 30.075 85.45 27.545 90.16 25.255C98.27 21.305 106.275 21.15 114.105 26.19C120.82 30.51 127.63 34.685 134.39 38.94C134.935 39.28 135.425 39.7 136.24 40.305C128.825 44.24 121.795 48.415 114.39 51.765C108.12 54.605 101.37 54.715 95.125 51.34C88.54 47.78 82.18 43.81 75.72 40.025C75.03 39.62 74.32 39.26 73.185 38.645H73.19Z" fill="white"/>
<path d="M63.765 79.55C55.26 83.905 48.46 89.955 39.545 92.02C34.54 93.18 29.965 92.645 25.48 89.8C17.965 85.035 10.22 80.635 2.575 76.075C1.805 75.615 1.07 75.11 0 74.42C3.455 72.545 6.66 70.845 9.83 69.07C14.04 66.715 18.34 64.49 22.38 61.865C28.1 58.145 33.905 57.965 39.53 61.44C46.445 65.715 53.055 70.485 59.79 75.195C49.25 71.275 38.685 67.74 27.57 73.135C40.09 71.33 51.93 73.285 63.77 79.55H63.765Z" fill="white"/>
<path d="M164.035 72.18H180.155C184.145 81.965 188.17 91.845 192.605 102.725C197.075 91.905 201.145 82.05 205.24 72.14H220.495V113.805H208.23V79.155C208.025 79.065 207.82 78.975 207.62 78.885C202.85 90.425 198.08 101.96 193.22 113.715H184.565C179.95 102.355 175.345 91.02 170.74 79.685C170.46 79.765 170.18 79.84 169.895 79.92V113.72H164.04V72.18H164.035Z" fill="white"/>
<path d="M227.515 113.995V72.115C228.555 72.06 229.69 71.95 230.83 71.945C240.1 71.935 249.375 71.925 258.645 71.945C267.275 71.965 269.395 74.09 269.375 82.59C269.375 82.86 269.375 83.13 269.375 83.395C269.365 90.1 269.345 90.13 263.87 92.255C265.49 93.69 268.505 95.07 268.77 96.855C269.4 101.125 269.465 105.775 268.385 109.91C267.365 113.825 263.04 113.905 259.52 113.945C250.785 114.04 242.05 113.985 233.315 113.99C231.35 113.99 229.385 113.99 227.515 113.99V113.995ZM256.815 95.835H240.26V108.505H256.815V95.835ZM240.27 77.46V89.91H256.85V77.46H240.27Z" fill="white"/>
<path d="M338.185 77.39V86.475C343.37 86.475 348.295 86.43 353.215 86.495C355.355 86.525 357.52 86.615 359.615 86.995C362.965 87.595 364.77 89.845 364.87 93.18C365.015 97.75 365.03 102.335 364.88 106.905C364.75 110.775 362.655 113.455 358.715 113.535C348.39 113.74 338.06 113.605 327.425 113.605C327.055 112.005 326.68 110.365 326.235 108.425H352.75V98.055C349.27 98.055 345.985 98.055 342.705 98.055C340.415 98.055 338.13 98.05 335.84 98.04C328.2 98.005 325.92 95.785 325.865 88.28C325.845 85.32 325.79 82.355 325.915 79.4C326.075 75.625 327.77 72.56 331.775 72.46C342.355 72.2 352.945 72.37 363.755 72.37C364.015 74.07 364.27 75.73 364.52 77.39H338.175H338.185Z" fill="white"/>
<path d="M123.075 113.72V72.14H157.385C157.725 73.865 158.045 75.515 158.41 77.35H135.86V89.89H156.315V95.62H135.865V108.535H158.265C158.04 110.23 157.825 111.86 157.58 113.725H123.075V113.72Z" fill="white"/>
<path d="M384.32 108.56H407.365V72.165H413.335C413.335 83.575 413.39 94.73 413.31 105.88C413.275 110.88 410.39 113.875 405.21 113.96C396.6 114.1 387.985 114.06 379.375 113.815C373.95 113.66 371.65 110.98 371.65 105.665C371.65 96.92 371.695 88.17 371.65 79.425C371.64 77.17 371.38 74.915 371.215 72.3H384.315V108.565L384.32 108.56Z" fill="white"/>
<path d="M303.255 72.245C309.77 86.145 316.2 99.86 322.745 113.815H308.82C307.255 109.79 305.77 105.965 304.245 102.03H283.98C282.49 105.9 281.01 109.735 279.46 113.75H273.025C276.83 105.58 280.485 97.75 284.125 89.91C286.105 85.65 288.15 81.41 289.97 77.08C290.53 75.74 290.445 74.13 290.715 72.24H303.26L303.255 72.245ZM301.53 96.62C299.01 91.205 296.74 86.335 294.02 80.495C291.36 86.42 289.16 91.32 286.785 96.62H301.535H301.53Z" fill="white"/>
<path d="M432.16 108.64H454.725C454.465 110.325 454.215 111.945 453.94 113.755H419.6V72.29H432.16V108.64Z" fill="white"/>
</g>
<defs>
<clipPath id="clip0_364_220">
<rect width="454.725" height="117.47" fill="white"/>
</clipPath>
</defs>
</svg>
