<svg width="217" height="56" viewBox="0 0 217 56" fill="none" xmlns="http://www.w3.org/2000/svg">
<g id="Logo" clip-path="url(#clip0_605_260)">
<path id="Vector" d="M32.8554 38.7644C38.5212 35.5442 43.9605 32.4551 49.5524 29.2754V45.5481C43.8247 49.0019 38.0588 52.4772 32.2214 55.9978C29.3039 54.2887 26.4007 52.5892 23.4998 50.885C21.7574 49.86 20.0174 48.8303 18.2798 47.7982C17.1523 47.1284 16.9783 46.7923 16.9736 45.1405C22.2437 48.2392 27.4423 51.2949 32.8554 54.477V38.7597V38.7644Z" fill="#006CCC"/>
<path id="Vector_2" d="M15.2787 26.7057V9.44616C20.9541 6.32604 26.6342 3.20354 32.4596 0V17.0355C26.9059 20.1628 21.1686 23.3901 15.2787 26.7057Z" fill="#006CCC"/>
<path id="Vector_3" d="M34.8909 18.4227C34.8909 19.3713 34.9004 20.1126 34.8909 20.8516C34.8337 24.62 34.8861 28.3932 34.6454 32.1498C34.5572 33.5394 33.7778 34.8861 33.3154 36.2543L32.9221 36.1613V18.7302C38.8262 16.0582 44.9902 15.6529 51.433 17.3787C48.7395 15.2001 44.0463 13.9105 33.487 17.1236C34.438 16.5849 35.3772 16.0272 36.3401 15.5123C38.5449 14.3372 40.7355 13.1311 42.9808 12.0394C46.847 10.1564 50.6631 10.0825 54.3958 12.4852C57.597 14.5446 60.8434 16.5349 64.066 18.5633C64.3258 18.7254 64.5594 18.9256 64.9479 19.214C61.4131 21.0899 58.0618 23.0802 54.5317 24.6772C51.5426 26.0311 48.3248 26.0835 45.3477 24.4746C42.2085 22.7775 39.1766 20.8849 36.097 19.0805C35.7681 18.8875 35.4296 18.7159 34.8885 18.4227H34.8909Z" fill="#009948"/>
<path id="Vector_4" d="M30.3979 37.9227C26.3434 39.9988 23.1017 42.883 18.8518 43.8674C16.4658 44.4204 14.2848 44.1654 12.1468 42.8091C8.56423 40.5375 4.87205 38.44 1.22755 36.2661C0.860475 36.0469 0.510088 35.8061 0 35.4772C1.64706 34.5833 3.17494 33.7729 4.68613 32.9267C6.69311 31.8041 8.743 30.7434 10.6689 29.492C13.3958 27.7186 16.1631 27.6328 18.8446 29.2894C22.1411 31.3274 25.2922 33.6013 28.5029 35.8466C23.4783 33.9779 18.4418 32.2927 13.1431 34.8646C19.1116 34.0041 24.7559 34.9361 30.4003 37.9227H30.3979Z" fill="#009948"/>
<path id="Vector_5" d="M78.1984 34.4094H85.883C87.7852 39.0741 89.7039 43.784 91.8182 48.9707C93.9491 43.8126 95.8894 39.1146 97.8415 34.3903H105.114V54.2528H99.2669V37.7345C99.1692 37.6916 99.0714 37.6487 98.9761 37.6058C96.7021 43.1071 94.4282 48.606 92.1114 54.2098H87.9854C85.7853 48.7943 83.59 43.3907 81.3948 37.9872C81.2613 38.0253 81.1278 38.061 80.9919 38.0992V54.2122H78.2007V34.4094H78.1984Z" fill="white"/>
<path id="Vector_6" d="M108.46 54.3433V34.3784C108.956 34.3522 109.497 34.2998 110.041 34.2974C114.46 34.2926 118.881 34.2878 123.301 34.2974C127.415 34.3069 128.425 35.3199 128.416 39.372C128.416 39.5007 128.416 39.6295 128.416 39.7558C128.411 42.9522 128.402 42.9665 125.792 43.9795C126.564 44.6636 128.001 45.3215 128.127 46.1724C128.428 48.208 128.459 50.4247 127.944 52.396C127.458 54.2623 125.396 54.3004 123.718 54.3195C119.554 54.3648 115.39 54.3386 111.225 54.341C110.289 54.341 109.352 54.341 108.46 54.341V54.3433ZM122.428 45.6862H114.536V51.7262H122.428V45.6862ZM114.541 36.9265V42.8616H122.445V36.9265H114.541Z" fill="white"/>
<path id="Vector_7" d="M161.219 36.8931V41.2241C163.69 41.2241 166.038 41.2027 168.384 41.2337C169.404 41.248 170.436 41.2909 171.435 41.472C173.032 41.758 173.892 42.8307 173.94 44.4205C174.009 46.5991 174.016 48.7849 173.945 50.9635C173.883 52.8084 172.884 54.086 171.006 54.1241C166.084 54.2218 161.159 54.1575 156.089 54.1575C155.913 53.3947 155.734 52.6129 155.522 51.6881H168.162V46.7445C166.503 46.7445 164.937 46.7445 163.373 46.7445C162.282 46.7445 161.192 46.7421 160.101 46.7374C156.459 46.7207 155.372 45.6624 155.346 42.0846C155.336 40.6735 155.31 39.26 155.369 37.8513C155.446 36.0517 156.254 34.5906 158.163 34.5429C163.207 34.419 168.255 34.5 173.408 34.5C173.532 35.3104 173.654 36.1018 173.773 36.8931H161.214H161.219Z" fill="white"/>
<path id="Vector_8" d="M58.672 54.2122V34.3903H75.0282C75.1903 35.2127 75.3428 35.9992 75.5168 36.874H64.7668V42.8521H74.5181V45.5836H64.7692V51.7405H75.4477C75.3404 52.5485 75.2379 53.3255 75.1211 54.2146H58.672V54.2122Z" fill="white"/>
<path id="Vector_9" d="M183.212 51.7526H194.198V34.4025H197.044C197.044 39.8418 197.07 45.1596 197.032 50.475C197.015 52.8586 195.64 54.2864 193.171 54.3269C189.066 54.3936 184.959 54.3745 180.855 54.2577C178.268 54.1839 177.172 52.9063 177.172 50.3725C177.172 46.2036 177.193 42.0323 177.172 37.8634C177.167 36.7884 177.043 35.7134 176.965 34.4668H183.21V51.755L183.212 51.7526Z" fill="white"/>
<path id="Vector_10" d="M144.567 34.4403C147.673 41.0667 150.738 47.6049 153.858 54.2575H147.22C146.474 52.3387 145.766 50.5152 145.039 48.6393H135.378C134.668 50.4842 133.962 52.3125 133.223 54.2265H130.156C131.97 50.3317 133.712 46.599 135.447 42.8615C136.391 40.8307 137.366 38.8094 138.234 36.7452C138.501 36.1064 138.46 35.3389 138.589 34.4379H144.569L144.567 34.4403ZM143.745 46.0603C142.543 43.4789 141.461 41.1573 140.164 38.3732C138.896 41.1978 137.848 43.5337 136.715 46.0603H143.747H143.745Z" fill="white"/>
<path id="Vector_11" d="M206.018 51.7906H216.775C216.651 52.5938 216.532 53.3661 216.401 54.229H200.031V34.4619H206.018V51.7906Z" fill="white"/>
</g>
<defs>
<clipPath id="clip0_605_260">
<rect width="216.775" height="56" fill="white"/>
</clipPath>
</defs>
</svg>
