<svg width="1241" height="154" viewBox="0 0 1241 154" fill="none" xmlns="http://www.w3.org/2000/svg">
<rect x="854" y="79" width="386" height="74" rx="37" stroke="#000B28" stroke-width="1.5"/>
<path d="M891.312 121V109.688H893.312L898.944 118.184V109.688H900.784V121H898.8L893.136 112.536V121H891.312ZM911.806 121L910.974 118.712H905.838L904.99 121H902.974L907.262 109.688H909.566L913.838 121H911.806ZM910.398 117.048L908.414 111.512L906.414 117.048H910.398ZM916.12 109.688L919.496 119.016L922.856 109.688H924.856L920.6 121H918.344L914.072 109.688H916.12ZM927.118 109.688H934.974V111.352H928.974V114.568H934.286V116.248H928.974V119.352H934.974V121H927.118V109.688ZM942.434 111.208C941.836 111.219 941.324 111.336 940.898 111.56C940.471 111.784 940.119 112.083 939.842 112.456C939.575 112.829 939.378 113.267 939.25 113.768C939.122 114.259 939.058 114.781 939.058 115.336C939.058 115.891 939.122 116.419 939.25 116.92C939.388 117.411 939.596 117.848 939.874 118.232C940.162 118.605 940.524 118.904 940.962 119.128C941.399 119.341 941.916 119.448 942.514 119.448C943.484 119.448 944.236 119.197 944.77 118.696C945.314 118.184 945.596 117.523 945.618 116.712H942.306V115.144H947.394C947.394 115.549 947.383 115.96 947.362 116.376C947.351 116.781 947.292 117.208 947.186 117.656C947.058 118.136 946.871 118.589 946.626 119.016C946.38 119.432 946.066 119.795 945.682 120.104C945.298 120.413 944.839 120.659 944.306 120.84C943.783 121.021 943.18 121.112 942.498 121.112C941.612 121.112 940.834 120.973 940.162 120.696C939.5 120.408 938.946 120.008 938.498 119.496C938.05 118.984 937.714 118.376 937.49 117.672C937.266 116.968 937.154 116.2 937.154 115.368C937.154 114.525 937.266 113.747 937.49 113.032C937.714 112.317 938.044 111.704 938.482 111.192C938.93 110.669 939.484 110.264 940.146 109.976C940.818 109.688 941.596 109.544 942.482 109.544C943.1 109.544 943.671 109.624 944.194 109.784C944.727 109.933 945.196 110.157 945.602 110.456C946.007 110.744 946.343 111.107 946.61 111.544C946.876 111.971 947.052 112.461 947.138 113.016H945.266C945.127 112.451 944.802 112.008 944.29 111.688C943.788 111.368 943.17 111.208 942.434 111.208ZM959.499 109.688V115.944C959.499 116.701 959.408 117.4 959.227 118.04C959.056 118.669 958.784 119.213 958.411 119.672C958.038 120.131 957.552 120.488 956.955 120.744C956.368 121 955.654 121.128 954.811 121.128C953.968 121.128 953.248 121 952.651 120.744C952.064 120.488 951.579 120.136 951.195 119.688C950.822 119.229 950.544 118.685 950.363 118.056C950.192 117.416 950.107 116.712 950.107 115.944V109.688H951.963V116.008C951.963 116.477 952.011 116.92 952.107 117.336C952.203 117.752 952.363 118.12 952.587 118.44C952.811 118.749 953.104 119 953.467 119.192C953.83 119.373 954.283 119.464 954.827 119.464C955.36 119.464 955.808 119.373 956.171 119.192C956.534 119 956.822 118.744 957.035 118.424C957.259 118.104 957.414 117.736 957.499 117.32C957.595 116.904 957.643 116.467 957.643 116.008V109.688H959.499ZM962.846 109.688H970.702V111.352H964.702V114.568H970.014V116.248H964.702V119.352H970.702V121H962.846V109.688ZM978.618 109.688H982.762C983.413 109.688 983.994 109.763 984.506 109.912C985.029 110.051 985.472 110.275 985.834 110.584C986.208 110.893 986.49 111.293 986.682 111.784C986.885 112.264 986.986 112.845 986.986 113.528C986.986 114.157 986.88 114.717 986.666 115.208C986.464 115.699 986.17 116.109 985.786 116.44C985.413 116.771 984.965 117.021 984.442 117.192C983.92 117.363 983.338 117.448 982.698 117.448H980.474V121H978.618V109.688ZM982.602 115.816C983.317 115.816 983.909 115.64 984.378 115.288C984.858 114.925 985.109 114.365 985.13 113.608C985.13 112.808 984.922 112.232 984.506 111.88C984.101 111.528 983.504 111.352 982.714 111.352H980.474V115.816H982.602ZM994.641 121.112C993.756 121.112 992.972 120.968 992.289 120.68C991.617 120.381 991.052 119.976 990.593 119.464C990.134 118.952 989.782 118.344 989.537 117.64C989.302 116.936 989.185 116.168 989.185 115.336C989.185 114.493 989.308 113.72 989.553 113.016C989.798 112.301 990.15 111.688 990.609 111.176C991.078 110.664 991.649 110.264 992.321 109.976C993.004 109.688 993.782 109.544 994.657 109.544C995.532 109.544 996.305 109.688 996.977 109.976C997.66 110.253 998.23 110.648 998.689 111.16C999.158 111.672 999.51 112.285 999.745 113C999.99 113.704 1000.11 114.477 1000.11 115.32C1000.11 116.152 999.99 116.925 999.745 117.64C999.51 118.344 999.158 118.952 998.689 119.464C998.23 119.976 997.66 120.381 996.977 120.68C996.294 120.968 995.516 121.112 994.641 121.112ZM994.657 111.208C994.049 111.208 993.521 111.32 993.073 111.544C992.636 111.768 992.268 112.067 991.969 112.44C991.67 112.813 991.446 113.251 991.297 113.752C991.158 114.253 991.089 114.776 991.089 115.32C991.089 115.864 991.158 116.387 991.297 116.888C991.446 117.379 991.665 117.816 991.953 118.2C992.252 118.584 992.625 118.888 993.073 119.112C993.521 119.336 994.049 119.448 994.657 119.448C995.254 119.448 995.777 119.341 996.225 119.128C996.673 118.904 997.041 118.605 997.329 118.232C997.628 117.859 997.846 117.427 997.985 116.936C998.134 116.435 998.209 115.901 998.209 115.336C998.209 114.781 998.134 114.259 997.985 113.768C997.846 113.267 997.628 112.829 997.329 112.456C997.041 112.072 996.673 111.768 996.225 111.544C995.788 111.32 995.265 111.208 994.657 111.208ZM1004.76 116.856V121H1002.91V109.688H1007.31C1007.89 109.688 1008.44 109.747 1008.95 109.864C1009.47 109.981 1009.91 110.179 1010.28 110.456C1010.67 110.733 1010.96 111.101 1011.18 111.56C1011.4 112.019 1011.51 112.584 1011.51 113.256C1011.51 113.715 1011.44 114.136 1011.31 114.52C1011.18 114.893 1011 115.224 1010.78 115.512C1010.55 115.789 1010.29 116.024 1009.99 116.216C1009.7 116.397 1009.38 116.531 1009.03 116.616L1011.48 121H1009.42C1009.04 120.307 1008.67 119.619 1008.28 118.936C1007.91 118.243 1007.53 117.549 1007.15 116.856H1004.76ZM1007.05 115.24C1007.41 115.24 1007.75 115.208 1008.07 115.144C1008.39 115.08 1008.67 114.973 1008.91 114.824C1009.14 114.675 1009.32 114.472 1009.45 114.216C1009.59 113.949 1009.66 113.613 1009.66 113.208C1009.66 112.845 1009.6 112.547 1009.48 112.312C1009.38 112.077 1009.22 111.891 1009 111.752C1008.79 111.603 1008.53 111.501 1008.23 111.448C1007.94 111.384 1007.6 111.352 1007.24 111.352H1004.76V115.24H1007.05ZM1021.92 121V111.352H1018.34V109.688H1027.38V111.352H1023.78V121H1021.92ZM1034.47 121.112C1033.58 121.112 1032.8 120.968 1032.11 120.68C1031.44 120.381 1030.88 119.976 1030.42 119.464C1029.96 118.952 1029.61 118.344 1029.36 117.64C1029.13 116.936 1029.01 116.168 1029.01 115.336C1029.01 114.493 1029.13 113.72 1029.38 113.016C1029.62 112.301 1029.98 111.688 1030.43 111.176C1030.9 110.664 1031.47 110.264 1032.15 109.976C1032.83 109.688 1033.61 109.544 1034.48 109.544C1035.36 109.544 1036.13 109.688 1036.8 109.976C1037.48 110.253 1038.06 110.648 1038.51 111.16C1038.98 111.672 1039.34 112.285 1039.57 113C1039.82 113.704 1039.94 114.477 1039.94 115.32C1039.94 116.152 1039.82 116.925 1039.57 117.64C1039.34 118.344 1038.98 118.952 1038.51 119.464C1038.06 119.976 1037.48 120.381 1036.8 120.68C1036.12 120.968 1035.34 121.112 1034.47 121.112ZM1034.48 111.208C1033.87 111.208 1033.35 111.32 1032.9 111.544C1032.46 111.768 1032.09 112.067 1031.79 112.44C1031.5 112.813 1031.27 113.251 1031.12 113.752C1030.98 114.253 1030.91 114.776 1030.91 115.32C1030.91 115.864 1030.98 116.387 1031.12 116.888C1031.27 117.379 1031.49 117.816 1031.78 118.2C1032.08 118.584 1032.45 118.888 1032.9 119.112C1033.35 119.336 1033.87 119.448 1034.48 119.448C1035.08 119.448 1035.6 119.341 1036.05 119.128C1036.5 118.904 1036.87 118.605 1037.15 118.232C1037.45 117.859 1037.67 117.427 1037.81 116.936C1037.96 116.435 1038.03 115.901 1038.03 115.336C1038.03 114.781 1037.96 114.259 1037.81 113.768C1037.67 113.267 1037.45 112.829 1037.15 112.456C1036.87 112.072 1036.5 111.768 1036.05 111.544C1035.61 111.32 1035.09 111.208 1034.48 111.208ZM1042.73 109.688H1046.83C1047.72 109.688 1048.51 109.821 1049.19 110.088C1049.89 110.344 1050.46 110.717 1050.92 111.208C1051.39 111.688 1051.74 112.28 1051.98 112.984C1052.21 113.688 1052.33 114.477 1052.33 115.352C1052.33 116.237 1052.21 117.027 1051.98 117.72C1051.74 118.413 1051.4 119.005 1050.94 119.496C1050.49 119.987 1049.93 120.36 1049.24 120.616C1048.57 120.872 1047.79 121 1046.89 121H1042.73V109.688ZM1044.59 111.352V119.352H1046.84C1047.46 119.352 1047.99 119.256 1048.44 119.064C1048.89 118.872 1049.26 118.605 1049.55 118.264C1049.85 117.912 1050.06 117.491 1050.2 117C1050.35 116.509 1050.43 115.96 1050.43 115.352C1050.43 114.093 1050.12 113.112 1049.5 112.408C1048.89 111.704 1048 111.352 1046.83 111.352H1044.59ZM1060.21 121.112C1059.32 121.112 1058.54 120.968 1057.85 120.68C1057.18 120.381 1056.62 119.976 1056.16 119.464C1055.7 118.952 1055.35 118.344 1055.1 117.64C1054.87 116.936 1054.75 116.168 1054.75 115.336C1054.75 114.493 1054.87 113.72 1055.12 113.016C1055.36 112.301 1055.72 111.688 1056.17 111.176C1056.64 110.664 1057.21 110.264 1057.89 109.976C1058.57 109.688 1059.35 109.544 1060.22 109.544C1061.1 109.544 1061.87 109.688 1062.54 109.976C1063.23 110.253 1063.8 110.648 1064.25 111.16C1064.72 111.672 1065.08 112.285 1065.31 113C1065.56 113.704 1065.68 114.477 1065.68 115.32C1065.68 116.152 1065.56 116.925 1065.31 117.64C1065.08 118.344 1064.72 118.952 1064.25 119.464C1063.8 119.976 1063.23 120.381 1062.54 120.68C1061.86 120.968 1061.08 121.112 1060.21 121.112ZM1060.22 111.208C1059.61 111.208 1059.09 111.32 1058.64 111.544C1058.2 111.768 1057.83 112.067 1057.53 112.44C1057.24 112.813 1057.01 113.251 1056.86 113.752C1056.72 114.253 1056.65 114.776 1056.65 115.32C1056.65 115.864 1056.72 116.387 1056.86 116.888C1057.01 117.379 1057.23 117.816 1057.52 118.2C1057.82 118.584 1058.19 118.888 1058.64 119.112C1059.09 119.336 1059.61 119.448 1060.22 119.448C1060.82 119.448 1061.34 119.341 1061.79 119.128C1062.24 118.904 1062.61 118.605 1062.89 118.232C1063.19 117.859 1063.41 117.427 1063.55 116.936C1063.7 116.435 1063.77 115.901 1063.77 115.336C1063.77 114.781 1063.7 114.259 1063.55 113.768C1063.41 113.267 1063.19 112.829 1062.89 112.456C1062.61 112.072 1062.24 111.768 1061.79 111.544C1061.35 111.32 1060.83 111.208 1060.22 111.208ZM1072.55 111.192C1072.3 111.192 1072.05 111.213 1071.8 111.256C1071.54 111.299 1071.31 111.379 1071.09 111.496C1070.88 111.603 1070.7 111.757 1070.56 111.96C1070.43 112.152 1070.36 112.397 1070.36 112.696C1070.36 113.144 1070.51 113.485 1070.8 113.72C1071.1 113.944 1071.46 114.115 1071.88 114.232C1072.18 114.317 1072.47 114.397 1072.77 114.472C1073.08 114.547 1073.36 114.611 1073.62 114.664C1074.07 114.76 1074.49 114.877 1074.88 115.016C1075.29 115.155 1075.64 115.341 1075.94 115.576C1076.24 115.8 1076.47 116.088 1076.64 116.44C1076.83 116.781 1076.92 117.208 1076.92 117.72C1076.92 118.328 1076.8 118.845 1076.58 119.272C1076.37 119.699 1076.07 120.051 1075.7 120.328C1075.33 120.605 1074.89 120.808 1074.39 120.936C1073.89 121.064 1073.35 121.128 1072.77 121.128C1072.19 121.128 1071.63 121.069 1071.09 120.952C1070.57 120.824 1070.1 120.627 1069.68 120.36C1069.27 120.083 1068.92 119.731 1068.64 119.304C1068.37 118.877 1068.19 118.365 1068.12 117.768H1070.04C1070.12 118.088 1070.26 118.355 1070.45 118.568C1070.64 118.781 1070.86 118.952 1071.11 119.08C1071.36 119.208 1071.64 119.299 1071.92 119.352C1072.21 119.405 1072.5 119.432 1072.77 119.432C1073.07 119.432 1073.36 119.411 1073.64 119.368C1073.91 119.315 1074.15 119.229 1074.36 119.112C1074.56 118.995 1074.72 118.84 1074.85 118.648C1074.98 118.456 1075.04 118.205 1075.04 117.896C1075.04 117.469 1074.93 117.16 1074.71 116.968C1074.48 116.765 1074.19 116.616 1073.81 116.52C1073.3 116.371 1072.77 116.243 1072.23 116.136C1071.7 116.019 1071.19 115.869 1070.71 115.688C1070.39 115.571 1070.1 115.432 1069.83 115.272C1069.56 115.112 1069.33 114.92 1069.12 114.696C1068.92 114.472 1068.76 114.211 1068.64 113.912C1068.54 113.603 1068.48 113.245 1068.48 112.84C1068.48 112.221 1068.6 111.704 1068.84 111.288C1069.07 110.861 1069.38 110.52 1069.75 110.264C1070.13 110.008 1070.56 109.827 1071.04 109.72C1071.52 109.603 1072.02 109.544 1072.52 109.544C1073.05 109.544 1073.56 109.608 1074.04 109.736C1074.52 109.853 1074.94 110.04 1075.32 110.296C1075.69 110.552 1075.99 110.883 1076.21 111.288C1076.45 111.693 1076.59 112.184 1076.63 112.76H1074.8C1074.76 112.472 1074.67 112.232 1074.53 112.04C1074.4 111.848 1074.24 111.693 1074.04 111.576C1073.84 111.448 1073.62 111.357 1073.36 111.304C1073.11 111.24 1072.84 111.203 1072.55 111.192ZM1089.83 121.112C1088.94 121.112 1088.16 120.968 1087.47 120.68C1086.8 120.381 1086.24 119.976 1085.78 119.464C1085.32 118.952 1084.97 118.344 1084.72 117.64C1084.49 116.936 1084.37 116.168 1084.37 115.336C1084.37 114.493 1084.49 113.72 1084.74 113.016C1084.98 112.301 1085.33 111.688 1085.79 111.176C1086.26 110.664 1086.83 110.264 1087.51 109.976C1088.19 109.688 1088.97 109.544 1089.84 109.544C1090.72 109.544 1091.49 109.688 1092.16 109.976C1092.84 110.253 1093.41 110.648 1093.87 111.16C1094.34 111.672 1094.69 112.285 1094.93 113C1095.17 113.704 1095.3 114.477 1095.3 115.32C1095.3 116.152 1095.17 116.925 1094.93 117.64C1094.69 118.344 1094.34 118.952 1093.87 119.464C1093.41 119.976 1092.84 120.381 1092.16 120.68C1091.48 120.968 1090.7 121.112 1089.83 121.112ZM1089.84 111.208C1089.23 111.208 1088.71 111.32 1088.26 111.544C1087.82 111.768 1087.45 112.067 1087.15 112.44C1086.85 112.813 1086.63 113.251 1086.48 113.752C1086.34 114.253 1086.27 114.776 1086.27 115.32C1086.27 115.864 1086.34 116.387 1086.48 116.888C1086.63 117.379 1086.85 117.816 1087.14 118.2C1087.44 118.584 1087.81 118.888 1088.26 119.112C1088.71 119.336 1089.23 119.448 1089.84 119.448C1090.44 119.448 1090.96 119.341 1091.41 119.128C1091.86 118.904 1092.23 118.605 1092.51 118.232C1092.81 117.859 1093.03 117.427 1093.17 116.936C1093.32 116.435 1093.39 115.901 1093.39 115.336C1093.39 114.781 1093.32 114.259 1093.17 113.768C1093.03 113.267 1092.81 112.829 1092.51 112.456C1092.23 112.072 1091.86 111.768 1091.41 111.544C1090.97 111.32 1090.45 111.208 1089.84 111.208ZM1102.17 111.192C1101.92 111.192 1101.67 111.213 1101.42 111.256C1101.16 111.299 1100.92 111.379 1100.71 111.496C1100.5 111.603 1100.32 111.757 1100.18 111.96C1100.04 112.152 1099.98 112.397 1099.98 112.696C1099.98 113.144 1100.12 113.485 1100.42 113.72C1100.72 113.944 1101.08 114.115 1101.5 114.232C1101.79 114.317 1102.09 114.397 1102.39 114.472C1102.7 114.547 1102.98 114.611 1103.24 114.664C1103.69 114.76 1104.11 114.877 1104.5 115.016C1104.91 115.155 1105.26 115.341 1105.56 115.576C1105.86 115.8 1106.09 116.088 1106.26 116.44C1106.44 116.781 1106.54 117.208 1106.54 117.72C1106.54 118.328 1106.42 118.845 1106.2 119.272C1105.99 119.699 1105.69 120.051 1105.32 120.328C1104.95 120.605 1104.51 120.808 1104.01 120.936C1103.51 121.064 1102.97 121.128 1102.39 121.128C1101.8 121.128 1101.24 121.069 1100.71 120.952C1100.19 120.824 1099.72 120.627 1099.3 120.36C1098.89 120.083 1098.54 119.731 1098.26 119.304C1097.99 118.877 1097.81 118.365 1097.74 117.768H1099.66C1099.74 118.088 1099.88 118.355 1100.07 118.568C1100.26 118.781 1100.48 118.952 1100.73 119.08C1100.98 119.208 1101.26 119.299 1101.54 119.352C1101.83 119.405 1102.11 119.432 1102.39 119.432C1102.69 119.432 1102.98 119.411 1103.26 119.368C1103.53 119.315 1103.77 119.229 1103.98 119.112C1104.18 118.995 1104.34 118.84 1104.47 118.648C1104.6 118.456 1104.66 118.205 1104.66 117.896C1104.66 117.469 1104.55 117.16 1104.33 116.968C1104.1 116.765 1103.8 116.616 1103.43 116.52C1102.92 116.371 1102.39 116.243 1101.85 116.136C1101.31 116.019 1100.81 115.869 1100.33 115.688C1100.01 115.571 1099.71 115.432 1099.45 115.272C1099.18 115.112 1098.95 114.92 1098.74 114.696C1098.54 114.472 1098.38 114.211 1098.26 113.912C1098.16 113.603 1098.1 113.245 1098.1 112.84C1098.1 112.221 1098.22 111.704 1098.46 111.288C1098.69 110.861 1098.99 110.52 1099.37 110.264C1099.75 110.008 1100.18 109.827 1100.66 109.72C1101.14 109.603 1101.63 109.544 1102.14 109.544C1102.67 109.544 1103.18 109.608 1103.66 109.736C1104.14 109.853 1104.56 110.04 1104.94 110.296C1105.31 110.552 1105.61 110.883 1105.83 111.288C1106.07 111.693 1106.2 112.184 1106.25 112.76H1104.42C1104.38 112.472 1104.29 112.232 1104.15 112.04C1104.02 111.848 1103.86 111.693 1103.66 111.576C1103.46 111.448 1103.24 111.357 1102.98 111.304C1102.73 111.24 1102.46 111.203 1102.17 111.192ZM1114.61 109.688H1118.76C1119.41 109.688 1119.99 109.763 1120.5 109.912C1121.02 110.051 1121.47 110.275 1121.83 110.584C1122.2 110.893 1122.48 111.293 1122.68 111.784C1122.88 112.264 1122.98 112.845 1122.98 113.528C1122.98 114.157 1122.87 114.717 1122.66 115.208C1122.46 115.699 1122.16 116.109 1121.78 116.44C1121.41 116.771 1120.96 117.021 1120.44 117.192C1119.91 117.363 1119.33 117.448 1118.69 117.448H1116.47V121H1114.61V109.688ZM1118.6 115.816C1119.31 115.816 1119.9 115.64 1120.37 115.288C1120.85 114.925 1121.1 114.365 1121.12 113.608C1121.12 112.808 1120.92 112.232 1120.5 111.88C1120.09 111.528 1119.5 111.352 1118.71 111.352H1116.47V115.816H1118.6ZM1127.66 116.856V121H1125.8V109.688H1130.2C1130.79 109.688 1131.34 109.747 1131.85 109.864C1132.36 109.981 1132.81 110.179 1133.18 110.456C1133.56 110.733 1133.86 111.101 1134.07 111.56C1134.3 112.019 1134.41 112.584 1134.41 113.256C1134.41 113.715 1134.34 114.136 1134.2 114.52C1134.07 114.893 1133.9 115.224 1133.67 115.512C1133.45 115.789 1133.19 116.024 1132.89 116.216C1132.59 116.397 1132.27 116.531 1131.93 116.616L1134.38 121H1132.31C1131.94 120.307 1131.56 119.619 1131.18 118.936C1130.81 118.243 1130.43 117.549 1130.04 116.856H1127.66ZM1129.95 115.24C1130.31 115.24 1130.65 115.208 1130.97 115.144C1131.29 115.08 1131.57 114.973 1131.8 114.824C1132.04 114.675 1132.22 114.472 1132.35 114.216C1132.49 113.949 1132.55 113.613 1132.55 113.208C1132.55 112.845 1132.5 112.547 1132.38 112.312C1132.27 112.077 1132.11 111.891 1131.9 111.752C1131.69 111.603 1131.43 111.501 1131.13 111.448C1130.83 111.384 1130.5 111.352 1130.14 111.352H1127.66V115.24H1129.95ZM1142.12 121.112C1141.24 121.112 1140.45 120.968 1139.77 120.68C1139.1 120.381 1138.53 119.976 1138.07 119.464C1137.62 118.952 1137.26 118.344 1137.02 117.64C1136.78 116.936 1136.67 116.168 1136.67 115.336C1136.67 114.493 1136.79 113.72 1137.03 113.016C1137.28 112.301 1137.63 111.688 1138.09 111.176C1138.56 110.664 1139.13 110.264 1139.8 109.976C1140.48 109.688 1141.26 109.544 1142.14 109.544C1143.01 109.544 1143.79 109.688 1144.46 109.976C1145.14 110.253 1145.71 110.648 1146.17 111.16C1146.64 111.672 1146.99 112.285 1147.23 113C1147.47 113.704 1147.59 114.477 1147.59 115.32C1147.59 116.152 1147.47 116.925 1147.23 117.64C1146.99 118.344 1146.64 118.952 1146.17 119.464C1145.71 119.976 1145.14 120.381 1144.46 120.68C1143.78 120.968 1143 121.112 1142.12 121.112ZM1142.14 111.208C1141.53 111.208 1141 111.32 1140.55 111.544C1140.12 111.768 1139.75 112.067 1139.45 112.44C1139.15 112.813 1138.93 113.251 1138.78 113.752C1138.64 114.253 1138.57 114.776 1138.57 115.32C1138.57 115.864 1138.64 116.387 1138.78 116.888C1138.93 117.379 1139.15 117.816 1139.43 118.2C1139.73 118.584 1140.11 118.888 1140.55 119.112C1141 119.336 1141.53 119.448 1142.14 119.448C1142.74 119.448 1143.26 119.341 1143.71 119.128C1144.15 118.904 1144.52 118.605 1144.81 118.232C1145.11 117.859 1145.33 117.427 1145.47 116.936C1145.62 116.435 1145.69 115.901 1145.69 115.336C1145.69 114.781 1145.62 114.259 1145.47 113.768C1145.33 113.267 1145.11 112.829 1144.81 112.456C1144.52 112.072 1144.15 111.768 1143.71 111.544C1143.27 111.32 1142.75 111.208 1142.14 111.208ZM1151.7 117.544C1151.73 118.109 1151.89 118.573 1152.18 118.936C1152.47 119.288 1152.93 119.464 1153.54 119.464C1153.89 119.464 1154.18 119.411 1154.42 119.304C1154.65 119.197 1154.84 119.053 1154.98 118.872C1155.12 118.68 1155.23 118.451 1155.28 118.184C1155.34 117.917 1155.38 117.624 1155.38 117.304V109.688H1157.23V117.096C1157.23 117.704 1157.17 118.248 1157.04 118.728C1156.91 119.208 1156.7 119.629 1156.42 119.992C1156.13 120.344 1155.76 120.621 1155.31 120.824C1154.86 121.016 1154.32 121.112 1153.68 121.112C1152.48 121.112 1151.55 120.819 1150.86 120.232C1150.19 119.645 1149.84 118.749 1149.82 117.544H1151.7ZM1160.58 109.688H1168.43V111.352H1162.43V114.568H1167.75V116.248H1162.43V119.352H1168.43V121H1160.58V109.688ZM1173.65 121V111.352H1170.07V109.688H1179.11V111.352H1175.51V121H1173.65ZM1186.2 121.112C1185.31 121.112 1184.53 120.968 1183.85 120.68C1183.17 120.381 1182.61 119.976 1182.15 119.464C1181.69 118.952 1181.34 118.344 1181.09 117.64C1180.86 116.936 1180.74 116.168 1180.74 115.336C1180.74 114.493 1180.86 113.72 1181.11 113.016C1181.35 112.301 1181.71 111.688 1182.17 111.176C1182.63 110.664 1183.21 110.264 1183.88 109.976C1184.56 109.688 1185.34 109.544 1186.21 109.544C1187.09 109.544 1187.86 109.688 1188.53 109.976C1189.22 110.253 1189.79 110.648 1190.25 111.16C1190.71 111.672 1191.07 112.285 1191.3 113C1191.55 113.704 1191.67 114.477 1191.67 115.32C1191.67 116.152 1191.55 116.925 1191.3 117.64C1191.07 118.344 1190.71 118.952 1190.25 119.464C1189.79 119.976 1189.22 120.381 1188.53 120.68C1187.85 120.968 1187.07 121.112 1186.2 121.112ZM1186.21 111.208C1185.61 111.208 1185.08 111.32 1184.63 111.544C1184.19 111.768 1183.82 112.067 1183.53 112.44C1183.23 112.813 1183 113.251 1182.85 113.752C1182.71 114.253 1182.65 114.776 1182.65 115.32C1182.65 115.864 1182.71 116.387 1182.85 116.888C1183 117.379 1183.22 117.816 1183.51 118.2C1183.81 118.584 1184.18 118.888 1184.63 119.112C1185.08 119.336 1185.61 119.448 1186.21 119.448C1186.81 119.448 1187.33 119.341 1187.78 119.128C1188.23 118.904 1188.6 118.605 1188.89 118.232C1189.18 117.859 1189.4 117.427 1189.54 116.936C1189.69 116.435 1189.77 115.901 1189.77 115.336C1189.77 114.781 1189.69 114.259 1189.54 113.768C1189.4 113.267 1189.18 112.829 1188.89 112.456C1188.6 112.072 1188.23 111.768 1187.78 111.544C1187.34 111.32 1186.82 111.208 1186.21 111.208ZM1198.54 111.192C1198.29 111.192 1198.04 111.213 1197.79 111.256C1197.53 111.299 1197.3 111.379 1197.08 111.496C1196.87 111.603 1196.69 111.757 1196.55 111.96C1196.42 112.152 1196.35 112.397 1196.35 112.696C1196.35 113.144 1196.5 113.485 1196.79 113.72C1197.09 113.944 1197.45 114.115 1197.87 114.232C1198.17 114.317 1198.46 114.397 1198.76 114.472C1199.07 114.547 1199.35 114.611 1199.61 114.664C1200.06 114.76 1200.48 114.877 1200.87 115.016C1201.28 115.155 1201.63 115.341 1201.93 115.576C1202.23 115.8 1202.46 116.088 1202.63 116.44C1202.82 116.781 1202.91 117.208 1202.91 117.72C1202.91 118.328 1202.79 118.845 1202.57 119.272C1202.36 119.699 1202.06 120.051 1201.69 120.328C1201.32 120.605 1200.88 120.808 1200.38 120.936C1199.88 121.064 1199.34 121.128 1198.76 121.128C1198.18 121.128 1197.62 121.069 1197.08 120.952C1196.56 120.824 1196.09 120.627 1195.67 120.36C1195.26 120.083 1194.91 119.731 1194.63 119.304C1194.36 118.877 1194.18 118.365 1194.11 117.768H1196.03C1196.11 118.088 1196.25 118.355 1196.44 118.568C1196.63 118.781 1196.85 118.952 1197.1 119.08C1197.35 119.208 1197.63 119.299 1197.91 119.352C1198.2 119.405 1198.49 119.432 1198.76 119.432C1199.06 119.432 1199.35 119.411 1199.63 119.368C1199.9 119.315 1200.14 119.229 1200.35 119.112C1200.55 118.995 1200.71 118.84 1200.84 118.648C1200.97 118.456 1201.03 118.205 1201.03 117.896C1201.03 117.469 1200.92 117.16 1200.7 116.968C1200.47 116.765 1200.18 116.616 1199.8 116.52C1199.29 116.371 1198.76 116.243 1198.22 116.136C1197.69 116.019 1197.18 115.869 1196.7 115.688C1196.38 115.571 1196.09 115.432 1195.82 115.272C1195.55 115.112 1195.32 114.92 1195.11 114.696C1194.91 114.472 1194.75 114.211 1194.63 113.912C1194.53 113.603 1194.47 113.245 1194.47 112.84C1194.47 112.221 1194.59 111.704 1194.83 111.288C1195.06 110.861 1195.37 110.52 1195.74 110.264C1196.12 110.008 1196.55 109.827 1197.03 109.72C1197.51 109.603 1198.01 109.544 1198.51 109.544C1199.04 109.544 1199.55 109.608 1200.03 109.736C1200.51 109.853 1200.93 110.04 1201.31 110.296C1201.68 110.552 1201.98 110.883 1202.2 111.288C1202.44 111.693 1202.58 112.184 1202.62 112.76H1200.79C1200.75 112.472 1200.66 112.232 1200.52 112.04C1200.39 111.848 1200.23 111.693 1200.03 111.576C1199.83 111.448 1199.61 111.357 1199.35 111.304C1199.1 111.24 1198.83 111.203 1198.54 111.192Z" fill="#000B28"/>
<path d="M16.456 87.352C13.2587 87.352 10.5747 86.6773 8.404 85.328C6.26267 83.9787 4.64933 82.116 3.564 79.74C2.47867 77.364 1.936 74.6213 1.936 71.512C1.936 68.4027 2.47867 65.6453 3.564 63.24C4.67867 60.8347 6.30667 58.9573 8.448 57.608C10.6187 56.2293 13.3027 55.54 16.5 55.54C18.8173 55.54 20.8413 55.9213 22.572 56.684C24.3027 57.4173 25.696 58.4733 26.752 59.852C27.8373 61.2013 28.556 62.8147 28.908 64.692H24.332C23.892 63.196 22.9973 62.008 21.648 61.128C20.2987 60.248 18.568 59.808 16.456 59.808C14.1093 59.808 12.2173 60.3507 10.78 61.436C9.372 62.5213 8.34533 63.944 7.7 65.704C7.05467 67.4347 6.732 69.312 6.732 71.336C6.732 73.4187 7.06933 75.3547 7.744 77.144C8.41867 78.9333 9.48933 80.3707 10.956 81.456C12.4227 82.5413 14.3 83.084 16.588 83.084C17.996 83.084 19.2427 82.8933 20.328 82.512C21.4133 82.1013 22.3227 81.5293 23.056 80.796C23.7893 80.0333 24.288 79.1533 24.552 78.156H29.436C29.0547 80.0627 28.2773 81.7053 27.104 83.084C25.9307 84.4627 24.4493 85.5187 22.66 86.252C20.8707 86.9853 18.8027 87.352 16.456 87.352ZM44.2214 87.264C41.816 87.264 39.7774 86.78 38.1054 85.812C36.4334 84.8147 35.1574 83.4213 34.2774 81.632C33.4267 79.8427 33.0014 77.7747 33.0014 75.428C33.0014 73.052 33.4414 70.984 34.3214 69.224C35.2014 67.4347 36.4774 66.0413 38.1494 65.044C39.8214 64.0173 41.86 63.504 44.2654 63.504C46.6707 63.504 48.7094 64.0173 50.3814 65.044C52.0534 66.0413 53.3147 67.4347 54.1654 69.224C55.016 71.0133 55.4414 73.096 55.4414 75.472C55.4414 77.7893 55.0014 79.8427 54.1214 81.632C53.2707 83.4213 52.0094 84.8147 50.3374 85.812C48.6947 86.78 46.656 87.264 44.2214 87.264ZM44.2214 83.216C45.8054 83.216 47.0814 82.864 48.0494 82.16C49.0467 81.456 49.78 80.5173 50.2494 79.344C50.7187 78.1413 50.9534 76.836 50.9534 75.428C50.9534 74.02 50.7187 72.7293 50.2494 71.556C49.78 70.3827 49.0467 69.444 48.0494 68.74C47.0814 68.0067 45.8054 67.64 44.2214 67.64C42.6667 67.64 41.3907 68.0067 40.3934 68.74C39.396 69.444 38.6627 70.3827 38.1934 71.556C37.7534 72.7293 37.5334 74.02 37.5334 75.428C37.5334 76.8653 37.7534 78.1707 38.1934 79.344C38.6627 80.5173 39.396 81.456 40.3934 82.16C41.3907 82.864 42.6667 83.216 44.2214 83.216ZM60.0923 87V63.812H64.4043L64.6243 67.068C65.211 66.2173 65.915 65.5427 66.7363 65.044C67.5576 64.516 68.4376 64.1347 69.3763 63.9C70.315 63.636 71.2243 63.504 72.1043 63.504C74.3336 63.504 76.079 63.988 77.3403 64.956C78.631 65.8947 79.5403 67.1707 80.0683 68.784C80.6256 70.368 80.9043 72.172 80.9043 74.196V87H76.3283V75.12C76.3283 74.1813 76.2696 73.2573 76.1523 72.348C76.035 71.4387 75.7856 70.632 75.4043 69.928C75.0523 69.1947 74.539 68.6227 73.8643 68.212C73.1896 67.772 72.2803 67.552 71.1363 67.552C69.7283 67.552 68.5403 67.9333 67.5723 68.696C66.6043 69.4587 65.871 70.4853 65.3723 71.776C64.8736 73.0667 64.6243 74.5187 64.6243 76.132V87H60.0923ZM86.3033 87V55.892H90.8353V67.068C91.4513 66.276 92.1553 65.616 92.9473 65.088C93.7686 64.56 94.6486 64.164 95.5873 63.9C96.5259 63.636 97.4646 63.504 98.4033 63.504C100.633 63.504 102.378 63.988 103.639 64.956C104.901 65.8947 105.795 67.1707 106.323 68.784C106.851 70.3973 107.115 72.216 107.115 74.24V87H102.539V75.296C102.539 74.3573 102.466 73.4333 102.319 72.524C102.202 71.6147 101.967 70.7933 101.615 70.06C101.263 69.2973 100.721 68.696 99.9873 68.256C99.2833 67.7867 98.3299 67.552 97.1273 67.552C95.9833 67.552 95.0006 67.8013 94.1793 68.3C93.3873 68.7987 92.7419 69.4733 92.2433 70.324C91.7739 71.1453 91.4219 72.0547 91.1873 73.052C90.9526 74.02 90.8353 74.988 90.8353 75.956V87H86.3033ZM122.722 87.264C120.288 87.264 118.249 86.7653 116.606 85.768C114.964 84.7707 113.717 83.392 112.866 81.632C112.045 79.8427 111.634 77.7893 111.634 75.472C111.634 73.1253 112.06 71.0573 112.91 69.268C113.79 67.4787 115.052 66.0707 116.694 65.044C118.366 64.0173 120.376 63.504 122.722 63.504C124.512 63.504 126.066 63.8413 127.386 64.516C128.706 65.1613 129.792 66.0413 130.642 67.156C131.522 68.2707 132.168 69.5173 132.578 70.896C132.989 72.2453 133.165 73.6533 133.106 75.12C133.106 75.4427 133.092 75.7507 133.062 76.044C133.033 76.3373 133.004 76.6453 132.974 76.968H116.21C116.298 78.1413 116.592 79.212 117.09 80.18C117.618 81.148 118.352 81.9253 119.29 82.512C120.229 83.0693 121.388 83.348 122.766 83.348C123.529 83.348 124.262 83.26 124.966 83.084C125.7 82.8787 126.345 82.5707 126.902 82.16C127.489 81.72 127.9 81.1627 128.134 80.488H132.71C132.329 82.0427 131.64 83.3333 130.642 84.36C129.674 85.3573 128.486 86.0907 127.078 86.56C125.7 87.0293 124.248 87.264 122.722 87.264ZM116.298 73.36H128.618C128.589 72.216 128.325 71.204 127.826 70.324C127.328 69.4147 126.638 68.7107 125.758 68.212C124.878 67.684 123.822 67.42 122.59 67.42C121.241 67.42 120.112 67.6987 119.202 68.256C118.322 68.8133 117.633 69.5467 117.134 70.456C116.665 71.336 116.386 72.304 116.298 73.36ZM147.856 87.264C145.421 87.264 143.382 86.7653 141.74 85.768C140.126 84.7707 138.909 83.392 138.088 81.632C137.296 79.8427 136.9 77.7893 136.9 75.472C136.9 73.184 137.31 71.1453 138.132 69.356C138.982 67.5373 140.244 66.1147 141.916 65.088C143.617 64.032 145.714 63.504 148.208 63.504C149.909 63.504 151.42 63.7973 152.74 64.384C154.06 64.9413 155.13 65.7773 155.952 66.892C156.802 67.9773 157.36 69.3413 157.624 70.984H153.092C152.71 69.7813 152.065 68.916 151.156 68.388C150.276 67.86 149.234 67.596 148.032 67.596C146.418 67.596 145.128 67.9773 144.16 68.74C143.221 69.5027 142.532 70.4853 142.092 71.688C141.652 72.8907 141.432 74.152 141.432 75.472C141.432 76.8507 141.652 78.1267 142.092 79.3C142.561 80.4733 143.265 81.4267 144.204 82.16C145.172 82.864 146.433 83.216 147.988 83.216C149.161 83.216 150.246 82.9667 151.244 82.468C152.241 81.94 152.886 81.06 153.18 79.828H157.844C157.58 81.5293 156.964 82.9373 155.996 84.052C155.028 85.1373 153.825 85.944 152.388 86.472C150.98 87 149.469 87.264 147.856 87.264ZM147.064 98.308C146.565 98.3373 146.081 98.352 145.612 98.352C145.142 98.3813 144.673 98.3813 144.204 98.352V95.536C144.761 95.5653 145.318 95.5653 145.876 95.536C146.462 95.536 146.99 95.4627 147.46 95.316C147.958 95.1693 148.354 94.9347 148.648 94.612C148.941 94.3187 149.088 93.9227 149.088 93.424C149.088 92.9547 148.926 92.6027 148.604 92.368C148.31 92.1627 147.973 92.0307 147.592 91.972C147.21 91.9133 146.888 91.884 146.624 91.884C146.301 91.884 145.905 91.9133 145.436 91.972C144.996 92.06 144.614 92.1627 144.292 92.28L145.744 86.34H148.912L148.164 89.42C148.34 89.3907 148.516 89.3613 148.692 89.332C148.868 89.332 149.044 89.3467 149.22 89.376C150.305 89.4053 151.141 89.7427 151.728 90.388C152.344 91.0333 152.652 91.9573 152.652 93.16C152.652 94.2747 152.402 95.1987 151.904 95.932C151.405 96.6653 150.73 97.208 149.88 97.56C149.029 97.9413 148.09 98.1907 147.064 98.308ZM169.621 87.264C168.565 87.264 167.538 87.132 166.541 86.868C165.573 86.5747 164.708 86.1493 163.945 85.592C163.182 85.0053 162.566 84.2867 162.097 83.436C161.657 82.556 161.437 81.5293 161.437 80.356C161.437 78.948 161.701 77.7893 162.229 76.88C162.786 75.9413 163.52 75.2227 164.429 74.724C165.338 74.196 166.38 73.8293 167.553 73.624C168.756 73.3893 170.002 73.272 171.293 73.272H176.969C176.969 72.128 176.793 71.1307 176.441 70.28C176.089 69.4 175.532 68.7253 174.769 68.256C174.036 67.7573 173.053 67.508 171.821 67.508C171.088 67.508 170.384 67.596 169.709 67.772C169.064 67.9187 168.506 68.168 168.037 68.52C167.568 68.872 167.245 69.3413 167.069 69.928H162.317C162.493 68.8133 162.889 67.86 163.505 67.068C164.121 66.2467 164.884 65.572 165.793 65.044C166.702 64.516 167.67 64.1347 168.697 63.9C169.753 63.636 170.824 63.504 171.909 63.504C175.253 63.504 177.658 64.4867 179.125 66.452C180.621 68.388 181.369 71.0573 181.369 74.46V87H177.453L177.277 84.052C176.602 84.9613 175.796 85.6507 174.857 86.12C173.948 86.5893 173.038 86.8973 172.129 87.044C171.22 87.1907 170.384 87.264 169.621 87.264ZM170.325 83.436C171.645 83.436 172.804 83.216 173.801 82.776C174.798 82.3067 175.576 81.6467 176.133 80.796C176.69 79.916 176.969 78.8893 176.969 77.716V76.748H172.833C171.982 76.748 171.146 76.7773 170.325 76.836C169.533 76.8653 168.8 76.9827 168.125 77.188C167.48 77.364 166.952 77.672 166.541 78.112C166.16 78.552 165.969 79.1827 165.969 80.004C165.969 80.796 166.174 81.4413 166.585 81.94C166.996 82.4387 167.538 82.82 168.213 83.084C168.888 83.3187 169.592 83.436 170.325 83.436ZM198.881 87V63.812H203.193L203.413 67.068C204 66.2173 204.704 65.5427 205.525 65.044C206.347 64.516 207.227 64.1347 208.165 63.9C209.104 63.636 210.013 63.504 210.893 63.504C213.123 63.504 214.868 63.988 216.129 64.956C217.42 65.8947 218.329 67.1707 218.857 68.784C219.415 70.368 219.693 72.172 219.693 74.196V87H215.117V75.12C215.117 74.1813 215.059 73.2573 214.941 72.348C214.824 71.4387 214.575 70.632 214.193 69.928C213.841 69.1947 213.328 68.6227 212.653 68.212C211.979 67.772 211.069 67.552 209.925 67.552C208.517 67.552 207.329 67.9333 206.361 68.696C205.393 69.4587 204.66 70.4853 204.161 71.776C203.663 73.0667 203.413 74.5187 203.413 76.132V87H198.881ZM235.432 87.264C233.027 87.264 230.988 86.78 229.316 85.812C227.644 84.8147 226.368 83.4213 225.488 81.632C224.638 79.8427 224.212 77.7747 224.212 75.428C224.212 73.052 224.652 70.984 225.532 69.224C226.412 67.4347 227.688 66.0413 229.36 65.044C231.032 64.0173 233.071 63.504 235.476 63.504C237.882 63.504 239.92 64.0173 241.592 65.044C243.264 66.0413 244.526 67.4347 245.376 69.224C246.227 71.0133 246.652 73.096 246.652 75.472C246.652 77.7893 246.212 79.8427 245.332 81.632C244.482 83.4213 243.22 84.8147 241.548 85.812C239.906 86.78 237.867 87.264 235.432 87.264ZM235.432 83.216C237.016 83.216 238.292 82.864 239.26 82.16C240.258 81.456 240.991 80.5173 241.46 79.344C241.93 78.1413 242.164 76.836 242.164 75.428C242.164 74.02 241.93 72.7293 241.46 71.556C240.991 70.3827 240.258 69.444 239.26 68.74C238.292 68.0067 237.016 67.64 235.432 67.64C233.878 67.64 232.602 68.0067 231.604 68.74C230.607 69.444 229.874 70.3827 229.404 71.556C228.964 72.7293 228.744 74.02 228.744 75.428C228.744 76.8653 228.964 78.1707 229.404 79.344C229.874 80.5173 230.607 81.456 231.604 82.16C232.602 82.864 233.878 83.216 235.432 83.216ZM259.971 87.264C258.886 87.264 257.801 87.1613 256.715 86.956C255.63 86.7507 254.618 86.384 253.679 85.856C252.741 85.328 251.949 84.624 251.303 83.744C250.658 82.8347 250.247 81.72 250.071 80.4H254.691C254.926 81.104 255.337 81.676 255.923 82.116C256.539 82.556 257.214 82.8787 257.947 83.084C258.71 83.2893 259.458 83.392 260.191 83.392C260.631 83.392 261.115 83.3627 261.643 83.304C262.201 83.2453 262.729 83.1133 263.227 82.908C263.726 82.7027 264.137 82.4093 264.459 82.028C264.782 81.6173 264.943 81.0747 264.943 80.4C264.943 79.872 264.797 79.432 264.503 79.08C264.239 78.728 263.858 78.4493 263.359 78.244C262.89 78.0093 262.318 77.8333 261.643 77.716C260.323 77.4227 258.901 77.144 257.375 76.88C255.879 76.5867 254.559 76.088 253.415 75.384C253.005 75.12 252.638 74.8267 252.315 74.504C251.993 74.152 251.714 73.756 251.479 73.316C251.245 72.876 251.069 72.4067 250.951 71.908C250.834 71.4093 250.775 70.8667 250.775 70.28C250.775 69.0773 251.01 68.0507 251.479 67.2C251.978 66.3493 252.653 65.66 253.503 65.132C254.354 64.5747 255.322 64.164 256.407 63.9C257.493 63.636 258.637 63.504 259.839 63.504C261.394 63.504 262.802 63.7533 264.063 64.252C265.325 64.7507 266.366 65.484 267.187 66.452C268.009 67.42 268.493 68.6373 268.639 70.104H264.371C264.195 69.312 263.682 68.6813 262.831 68.212C262.01 67.7133 260.969 67.464 259.707 67.464C259.267 67.464 258.783 67.4933 258.255 67.552C257.757 67.6107 257.273 67.7427 256.803 67.948C256.334 68.1533 255.953 68.4467 255.659 68.828C255.366 69.18 255.219 69.6493 255.219 70.236C255.219 70.7933 255.351 71.2627 255.615 71.644C255.909 72.0253 256.319 72.3333 256.847 72.568C257.405 72.8027 258.035 72.9933 258.739 73.14C259.737 73.3747 260.807 73.5947 261.951 73.8C263.125 74.0053 264.078 74.2253 264.811 74.46C265.779 74.724 266.601 75.1053 267.275 75.604C267.979 76.1027 268.507 76.7333 268.859 77.496C269.241 78.2587 269.431 79.1827 269.431 80.268C269.431 81.676 269.153 82.8347 268.595 83.744C268.038 84.624 267.29 85.328 266.351 85.856C265.442 86.384 264.415 86.7507 263.271 86.956C262.157 87.1613 261.057 87.264 259.971 87.264ZM282.401 87.264C281.316 87.264 280.23 87.1613 279.145 86.956C278.06 86.7507 277.048 86.384 276.109 85.856C275.17 85.328 274.378 84.624 273.733 83.744C273.088 82.8347 272.677 81.72 272.501 80.4H277.121C277.356 81.104 277.766 81.676 278.353 82.116C278.969 82.556 279.644 82.8787 280.377 83.084C281.14 83.2893 281.888 83.392 282.621 83.392C283.061 83.392 283.545 83.3627 284.073 83.304C284.63 83.2453 285.158 83.1133 285.657 82.908C286.156 82.7027 286.566 82.4093 286.889 82.028C287.212 81.6173 287.373 81.0747 287.373 80.4C287.373 79.872 287.226 79.432 286.933 79.08C286.669 78.728 286.288 78.4493 285.789 78.244C285.32 78.0093 284.748 77.8333 284.073 77.716C282.753 77.4227 281.33 77.144 279.805 76.88C278.309 76.5867 276.989 76.088 275.845 75.384C275.434 75.12 275.068 74.8267 274.745 74.504C274.422 74.152 274.144 73.756 273.909 73.316C273.674 72.876 273.498 72.4067 273.381 71.908C273.264 71.4093 273.205 70.8667 273.205 70.28C273.205 69.0773 273.44 68.0507 273.909 67.2C274.408 66.3493 275.082 65.66 275.933 65.132C276.784 64.5747 277.752 64.164 278.837 63.9C279.922 63.636 281.066 63.504 282.269 63.504C283.824 63.504 285.232 63.7533 286.493 64.252C287.754 64.7507 288.796 65.484 289.617 66.452C290.438 67.42 290.922 68.6373 291.069 70.104H286.801C286.625 69.312 286.112 68.6813 285.261 68.212C284.44 67.7133 283.398 67.464 282.137 67.464C281.697 67.464 281.213 67.4933 280.685 67.552C280.186 67.6107 279.702 67.7427 279.233 67.948C278.764 68.1533 278.382 68.4467 278.089 68.828C277.796 69.18 277.649 69.6493 277.649 70.236C277.649 70.7933 277.781 71.2627 278.045 71.644C278.338 72.0253 278.749 72.3333 279.277 72.568C279.834 72.8027 280.465 72.9933 281.169 73.14C282.166 73.3747 283.237 73.5947 284.381 73.8C285.554 74.0053 286.508 74.2253 287.241 74.46C288.209 74.724 289.03 75.1053 289.705 75.604C290.409 76.1027 290.937 76.7333 291.289 77.496C291.67 78.2587 291.861 79.1827 291.861 80.268C291.861 81.676 291.582 82.8347 291.025 83.744C290.468 84.624 289.72 85.328 288.781 85.856C287.872 86.384 286.845 86.7507 285.701 86.956C284.586 87.1613 283.486 87.264 282.401 87.264ZM306.503 87.264C304.097 87.264 302.059 86.78 300.387 85.812C298.715 84.8147 297.439 83.4213 296.559 81.632C295.708 79.8427 295.283 77.7747 295.283 75.428C295.283 73.052 295.723 70.984 296.603 69.224C297.483 67.4347 298.759 66.0413 300.431 65.044C302.103 64.0173 304.141 63.504 306.547 63.504C308.952 63.504 310.991 64.0173 312.663 65.044C314.335 66.0413 315.596 67.4347 316.447 69.224C317.297 71.0133 317.723 73.096 317.723 75.472C317.723 77.7893 317.283 79.8427 316.403 81.632C315.552 83.4213 314.291 84.8147 312.619 85.812C310.976 86.78 308.937 87.264 306.503 87.264ZM306.503 83.216C308.087 83.216 309.363 82.864 310.331 82.16C311.328 81.456 312.061 80.5173 312.531 79.344C313 78.1413 313.235 76.836 313.235 75.428C313.235 74.02 313 72.7293 312.531 71.556C312.061 70.3827 311.328 69.444 310.331 68.74C309.363 68.0067 308.087 67.64 306.503 67.64C304.948 67.64 303.672 68.0067 302.675 68.74C301.677 69.444 300.944 70.3827 300.475 71.556C300.035 72.7293 299.815 74.02 299.815 75.428C299.815 76.8653 300.035 78.1707 300.475 79.344C300.944 80.5173 301.677 81.456 302.675 82.16C303.672 82.864 304.948 83.216 306.503 83.216ZM331.042 87.264C329.956 87.264 328.871 87.1613 327.786 86.956C326.7 86.7507 325.688 86.384 324.75 85.856C323.811 85.328 323.019 84.624 322.374 83.744C321.728 82.8347 321.318 81.72 321.142 80.4H325.762C325.996 81.104 326.407 81.676 326.994 82.116C327.61 82.556 328.284 82.8787 329.018 83.084C329.78 83.2893 330.528 83.392 331.262 83.392C331.702 83.392 332.186 83.3627 332.714 83.304C333.271 83.2453 333.799 83.1133 334.298 82.908C334.796 82.7027 335.207 82.4093 335.53 82.028C335.852 81.6173 336.014 81.0747 336.014 80.4C336.014 79.872 335.867 79.432 335.574 79.08C335.31 78.728 334.928 78.4493 334.43 78.244C333.96 78.0093 333.388 77.8333 332.714 77.716C331.394 77.4227 329.971 77.144 328.446 76.88C326.95 76.5867 325.63 76.088 324.486 75.384C324.075 75.12 323.708 74.8267 323.386 74.504C323.063 74.152 322.784 73.756 322.55 73.316C322.315 72.876 322.139 72.4067 322.022 71.908C321.904 71.4093 321.846 70.8667 321.846 70.28C321.846 69.0773 322.08 68.0507 322.55 67.2C323.048 66.3493 323.723 65.66 324.574 65.132C325.424 64.5747 326.392 64.164 327.478 63.9C328.563 63.636 329.707 63.504 330.91 63.504C332.464 63.504 333.872 63.7533 335.134 64.252C336.395 64.7507 337.436 65.484 338.258 66.452C339.079 67.42 339.563 68.6373 339.71 70.104H335.442C335.266 69.312 334.752 68.6813 333.902 68.212C333.08 67.7133 332.039 67.464 330.778 67.464C330.338 67.464 329.854 67.4933 329.326 67.552C328.827 67.6107 328.343 67.7427 327.874 67.948C327.404 68.1533 327.023 68.4467 326.73 68.828C326.436 69.18 326.29 69.6493 326.29 70.236C326.29 70.7933 326.422 71.2627 326.686 71.644C326.979 72.0253 327.39 72.3333 327.918 72.568C328.475 72.8027 329.106 72.9933 329.81 73.14C330.807 73.3747 331.878 73.5947 333.022 73.8C334.195 74.0053 335.148 74.2253 335.882 74.46C336.85 74.724 337.671 75.1053 338.346 75.604C339.05 76.1027 339.578 76.7333 339.93 77.496C340.311 78.2587 340.502 79.1827 340.502 80.268C340.502 81.676 340.223 82.8347 339.666 83.744C339.108 84.624 338.36 85.328 337.422 85.856C336.512 86.384 335.486 86.7507 334.342 86.956C333.227 87.1613 332.127 87.264 331.042 87.264ZM12.848 141.264C10.4133 141.264 8.37467 140.765 6.732 139.768C5.11867 138.771 3.90133 137.392 3.08 135.632C2.288 133.843 1.892 131.789 1.892 129.472C1.892 127.184 2.30267 125.145 3.124 123.356C3.97467 121.537 5.236 120.115 6.908 119.088C8.60933 118.032 10.7067 117.504 13.2 117.504C14.9013 117.504 16.412 117.797 17.732 118.384C19.052 118.941 20.1227 119.777 20.944 120.892C21.7947 121.977 22.352 123.341 22.616 124.984H18.084C17.7027 123.781 17.0573 122.916 16.148 122.388C15.268 121.86 14.2267 121.596 13.024 121.596C11.4107 121.596 10.12 121.977 9.152 122.74C8.21333 123.503 7.524 124.485 7.084 125.688C6.644 126.891 6.424 128.152 6.424 129.472C6.424 130.851 6.644 132.127 7.084 133.3C7.55333 134.473 8.25733 135.427 9.196 136.16C10.164 136.864 11.4253 137.216 12.98 137.216C14.1533 137.216 15.2387 136.967 16.236 136.468C17.2333 135.94 17.8787 135.06 18.172 133.828H22.836C22.572 135.529 21.956 136.937 20.988 138.052C20.02 139.137 18.8173 139.944 17.38 140.472C15.972 141 14.4613 141.264 12.848 141.264ZM34.6132 141.264C33.5572 141.264 32.5306 141.132 31.5332 140.868C30.5652 140.575 29.6999 140.149 28.9372 139.592C28.1746 139.005 27.5586 138.287 27.0892 137.436C26.6492 136.556 26.4292 135.529 26.4292 134.356C26.4292 132.948 26.6932 131.789 27.2212 130.88C27.7786 129.941 28.5119 129.223 29.4212 128.724C30.3306 128.196 31.3719 127.829 32.5452 127.624C33.7479 127.389 34.9946 127.272 36.2852 127.272H41.9612C41.9612 126.128 41.7852 125.131 41.4332 124.28C41.0812 123.4 40.5239 122.725 39.7612 122.256C39.0279 121.757 38.0452 121.508 36.8132 121.508C36.0799 121.508 35.3759 121.596 34.7012 121.772C34.0559 121.919 33.4986 122.168 33.0292 122.52C32.5599 122.872 32.2372 123.341 32.0612 123.928H27.3092C27.4852 122.813 27.8812 121.86 28.4972 121.068C29.1132 120.247 29.8759 119.572 30.7852 119.044C31.6946 118.516 32.6626 118.135 33.6892 117.9C34.7452 117.636 35.8159 117.504 36.9012 117.504C40.2452 117.504 42.6506 118.487 44.1172 120.452C45.6132 122.388 46.3612 125.057 46.3612 128.46V141H42.4452L42.2692 138.052C41.5946 138.961 40.7879 139.651 39.8492 140.12C38.9399 140.589 38.0306 140.897 37.1212 141.044C36.2119 141.191 35.3759 141.264 34.6132 141.264ZM35.3172 137.436C36.6372 137.436 37.7959 137.216 38.7932 136.776C39.7906 136.307 40.5679 135.647 41.1252 134.796C41.6826 133.916 41.9612 132.889 41.9612 131.716V130.748H37.8252C36.9746 130.748 36.1386 130.777 35.3172 130.836C34.5252 130.865 33.7919 130.983 33.1172 131.188C32.4719 131.364 31.9439 131.672 31.5332 132.112C31.1519 132.552 30.9612 133.183 30.9612 134.004C30.9612 134.796 31.1666 135.441 31.5772 135.94C31.9879 136.439 32.5306 136.82 33.2052 137.084C33.8799 137.319 34.5839 137.436 35.3172 137.436ZM60.4673 141.264C59.382 141.264 58.2967 141.161 57.2113 140.956C56.126 140.751 55.114 140.384 54.1753 139.856C53.2367 139.328 52.4447 138.624 51.7993 137.744C51.154 136.835 50.7433 135.72 50.5673 134.4H55.1873C55.422 135.104 55.8327 135.676 56.4193 136.116C57.0353 136.556 57.71 136.879 58.4433 137.084C59.206 137.289 59.954 137.392 60.6873 137.392C61.1273 137.392 61.6113 137.363 62.1393 137.304C62.6967 137.245 63.2247 137.113 63.7233 136.908C64.222 136.703 64.6327 136.409 64.9553 136.028C65.278 135.617 65.4393 135.075 65.4393 134.4C65.4393 133.872 65.2927 133.432 64.9993 133.08C64.7353 132.728 64.354 132.449 63.8553 132.244C63.386 132.009 62.814 131.833 62.1393 131.716C60.8193 131.423 59.3967 131.144 57.8713 130.88C56.3753 130.587 55.0553 130.088 53.9113 129.384C53.5007 129.12 53.134 128.827 52.8113 128.504C52.4887 128.152 52.21 127.756 51.9753 127.316C51.7407 126.876 51.5647 126.407 51.4473 125.908C51.33 125.409 51.2713 124.867 51.2713 124.28C51.2713 123.077 51.506 122.051 51.9753 121.2C52.474 120.349 53.1487 119.66 53.9993 119.132C54.85 118.575 55.818 118.164 56.9033 117.9C57.9887 117.636 59.1327 117.504 60.3353 117.504C61.89 117.504 63.298 117.753 64.5593 118.252C65.8207 118.751 66.862 119.484 67.6833 120.452C68.5047 121.42 68.9887 122.637 69.1353 124.104H64.8673C64.6913 123.312 64.178 122.681 63.3273 122.212C62.506 121.713 61.4647 121.464 60.2033 121.464C59.7633 121.464 59.2793 121.493 58.7513 121.552C58.2527 121.611 57.7687 121.743 57.2993 121.948C56.83 122.153 56.4487 122.447 56.1553 122.828C55.862 123.18 55.7153 123.649 55.7153 124.236C55.7153 124.793 55.8473 125.263 56.1113 125.644C56.4047 126.025 56.8153 126.333 57.3433 126.568C57.9007 126.803 58.5313 126.993 59.2353 127.14C60.2327 127.375 61.3033 127.595 62.4473 127.8C63.6207 128.005 64.574 128.225 65.3073 128.46C66.2753 128.724 67.0967 129.105 67.7713 129.604C68.4753 130.103 69.0033 130.733 69.3553 131.496C69.7367 132.259 69.9273 133.183 69.9273 134.268C69.9273 135.676 69.6487 136.835 69.0913 137.744C68.534 138.624 67.786 139.328 66.8473 139.856C65.938 140.384 64.9113 140.751 63.7673 140.956C62.6527 141.161 61.5527 141.264 60.4673 141.264ZM84.437 141.264C82.0024 141.264 79.9637 140.765 78.321 139.768C76.6784 138.771 75.4317 137.392 74.581 135.632C73.7597 133.843 73.349 131.789 73.349 129.472C73.349 127.125 73.7744 125.057 74.625 123.268C75.505 121.479 76.7664 120.071 78.409 119.044C80.081 118.017 82.0904 117.504 84.437 117.504C86.2264 117.504 87.781 117.841 89.101 118.516C90.421 119.161 91.5064 120.041 92.357 121.156C93.237 122.271 93.8824 123.517 94.293 124.896C94.7037 126.245 94.8797 127.653 94.821 129.12C94.821 129.443 94.8064 129.751 94.777 130.044C94.7477 130.337 94.7184 130.645 94.689 130.968H77.925C78.013 132.141 78.3064 133.212 78.805 134.18C79.333 135.148 80.0664 135.925 81.005 136.512C81.9437 137.069 83.1024 137.348 84.481 137.348C85.2437 137.348 85.977 137.26 86.681 137.084C87.4144 136.879 88.0597 136.571 88.617 136.16C89.2037 135.72 89.6144 135.163 89.849 134.488H94.425C94.0437 136.043 93.3544 137.333 92.357 138.36C91.389 139.357 90.201 140.091 88.793 140.56C87.4144 141.029 85.9624 141.264 84.437 141.264ZM78.013 127.36H90.333C90.3037 126.216 90.0397 125.204 89.541 124.324C89.0424 123.415 88.353 122.711 87.473 122.212C86.593 121.684 85.537 121.42 84.305 121.42C82.9557 121.42 81.8264 121.699 80.917 122.256C80.037 122.813 79.3477 123.547 78.849 124.456C78.3797 125.336 78.101 126.304 78.013 127.36ZM108.163 141.264C107.077 141.264 105.992 141.161 104.907 140.956C103.821 140.751 102.809 140.384 101.871 139.856C100.932 139.328 100.14 138.624 99.4947 137.744C98.8493 136.835 98.4387 135.72 98.2627 134.4H102.883C103.117 135.104 103.528 135.676 104.115 136.116C104.731 136.556 105.405 136.879 106.139 137.084C106.901 137.289 107.649 137.392 108.383 137.392C108.823 137.392 109.307 137.363 109.835 137.304C110.392 137.245 110.92 137.113 111.419 136.908C111.917 136.703 112.328 136.409 112.651 136.028C112.973 135.617 113.135 135.075 113.135 134.4C113.135 133.872 112.988 133.432 112.695 133.08C112.431 132.728 112.049 132.449 111.551 132.244C111.081 132.009 110.509 131.833 109.835 131.716C108.515 131.423 107.092 131.144 105.567 130.88C104.071 130.587 102.751 130.088 101.607 129.384C101.196 129.12 100.829 128.827 100.507 128.504C100.184 128.152 99.9053 127.756 99.6707 127.316C99.436 126.876 99.26 126.407 99.1427 125.908C99.0253 125.409 98.9667 124.867 98.9667 124.28C98.9667 123.077 99.2013 122.051 99.6707 121.2C100.169 120.349 100.844 119.66 101.695 119.132C102.545 118.575 103.513 118.164 104.599 117.9C105.684 117.636 106.828 117.504 108.031 117.504C109.585 117.504 110.993 117.753 112.255 118.252C113.516 118.751 114.557 119.484 115.379 120.452C116.2 121.42 116.684 122.637 116.831 124.104H112.563C112.387 123.312 111.873 122.681 111.023 122.212C110.201 121.713 109.16 121.464 107.899 121.464C107.459 121.464 106.975 121.493 106.447 121.552C105.948 121.611 105.464 121.743 104.995 121.948C104.525 122.153 104.144 122.447 103.851 122.828C103.557 123.18 103.411 123.649 103.411 124.236C103.411 124.793 103.543 125.263 103.807 125.644C104.1 126.025 104.511 126.333 105.039 126.568C105.596 126.803 106.227 126.993 106.931 127.14C107.928 127.375 108.999 127.595 110.143 127.8C111.316 128.005 112.269 128.225 113.003 128.46C113.971 128.724 114.792 129.105 115.467 129.604C116.171 130.103 116.699 130.733 117.051 131.496C117.432 132.259 117.623 133.183 117.623 134.268C117.623 135.676 117.344 136.835 116.787 137.744C116.229 138.624 115.481 139.328 114.543 139.856C113.633 140.384 112.607 140.751 111.463 140.956C110.348 141.161 109.248 141.264 108.163 141.264ZM143.371 141.264C141.053 141.264 139.132 140.751 137.607 139.724C136.111 138.668 134.981 137.245 134.219 135.456C133.485 133.667 133.119 131.657 133.119 129.428C133.119 127.169 133.5 125.145 134.263 123.356C135.025 121.537 136.184 120.115 137.739 119.088C139.293 118.032 141.259 117.504 143.635 117.504C144.515 117.504 145.395 117.607 146.275 117.812C147.184 118.017 148.02 118.34 148.783 118.78C149.575 119.191 150.249 119.748 150.807 120.452V109.892H155.339V141H150.983L150.807 137.832C150.279 138.624 149.619 139.284 148.827 139.812C148.064 140.311 147.213 140.677 146.275 140.912C145.336 141.147 144.368 141.264 143.371 141.264ZM144.119 137.216C145.615 137.216 146.847 136.849 147.815 136.116C148.812 135.383 149.56 134.415 150.059 133.212C150.557 132.009 150.807 130.704 150.807 129.296C150.807 127.859 150.557 126.568 150.059 125.424C149.589 124.251 148.856 123.327 147.859 122.652C146.891 121.948 145.644 121.596 144.119 121.596C142.535 121.596 141.273 121.963 140.335 122.696C139.396 123.4 138.707 124.353 138.267 125.556C137.856 126.759 137.651 128.079 137.651 129.516C137.651 130.572 137.768 131.569 138.003 132.508C138.237 133.417 138.604 134.239 139.103 134.972C139.631 135.676 140.305 136.233 141.127 136.644C141.948 137.025 142.945 137.216 144.119 137.216ZM171.105 141.264C168.67 141.264 166.632 140.765 164.989 139.768C163.346 138.771 162.1 137.392 161.249 135.632C160.428 133.843 160.017 131.789 160.017 129.472C160.017 127.125 160.442 125.057 161.293 123.268C162.173 121.479 163.434 120.071 165.077 119.044C166.749 118.017 168.758 117.504 171.105 117.504C172.894 117.504 174.449 117.841 175.769 118.516C177.089 119.161 178.174 120.041 179.025 121.156C179.905 122.271 180.55 123.517 180.961 124.896C181.372 126.245 181.548 127.653 181.489 129.12C181.489 129.443 181.474 129.751 181.445 130.044C181.416 130.337 181.386 130.645 181.357 130.968H164.593C164.681 132.141 164.974 133.212 165.473 134.18C166.001 135.148 166.734 135.925 167.673 136.512C168.612 137.069 169.77 137.348 171.149 137.348C171.912 137.348 172.645 137.26 173.349 137.084C174.082 136.879 174.728 136.571 175.285 136.16C175.872 135.72 176.282 135.163 176.517 134.488H181.093C180.712 136.043 180.022 137.333 179.025 138.36C178.057 139.357 176.869 140.091 175.461 140.56C174.082 141.029 172.63 141.264 171.105 141.264ZM164.681 127.36H177.001C176.972 126.216 176.708 125.204 176.209 124.324C175.71 123.415 175.021 122.711 174.141 122.212C173.261 121.684 172.205 121.42 170.973 121.42C169.624 121.42 168.494 121.699 167.585 122.256C166.705 122.813 166.016 123.547 165.517 124.456C165.048 125.336 164.769 126.304 164.681 127.36ZM206.905 141.264C205.82 141.264 204.734 141.161 203.649 140.956C202.564 140.751 201.552 140.384 200.613 139.856C199.674 139.328 198.882 138.624 198.237 137.744C197.592 136.835 197.181 135.72 197.005 134.4H201.625C201.86 135.104 202.27 135.676 202.857 136.116C203.473 136.556 204.148 136.879 204.881 137.084C205.644 137.289 206.392 137.392 207.125 137.392C207.565 137.392 208.049 137.363 208.577 137.304C209.134 137.245 209.662 137.113 210.161 136.908C210.66 136.703 211.07 136.409 211.393 136.028C211.716 135.617 211.877 135.075 211.877 134.4C211.877 133.872 211.73 133.432 211.437 133.08C211.173 132.728 210.792 132.449 210.293 132.244C209.824 132.009 209.252 131.833 208.577 131.716C207.257 131.423 205.834 131.144 204.309 130.88C202.813 130.587 201.493 130.088 200.349 129.384C199.938 129.12 199.572 128.827 199.249 128.504C198.926 128.152 198.648 127.756 198.413 127.316C198.178 126.876 198.002 126.407 197.885 125.908C197.768 125.409 197.709 124.867 197.709 124.28C197.709 123.077 197.944 122.051 198.413 121.2C198.912 120.349 199.586 119.66 200.437 119.132C201.288 118.575 202.256 118.164 203.341 117.9C204.426 117.636 205.57 117.504 206.773 117.504C208.328 117.504 209.736 117.753 210.997 118.252C212.258 118.751 213.3 119.484 214.121 120.452C214.942 121.42 215.426 122.637 215.573 124.104H211.305C211.129 123.312 210.616 122.681 209.765 122.212C208.944 121.713 207.902 121.464 206.641 121.464C206.201 121.464 205.717 121.493 205.189 121.552C204.69 121.611 204.206 121.743 203.737 121.948C203.268 122.153 202.886 122.447 202.593 122.828C202.3 123.18 202.153 123.649 202.153 124.236C202.153 124.793 202.285 125.263 202.549 125.644C202.842 126.025 203.253 126.333 203.781 126.568C204.338 126.803 204.969 126.993 205.673 127.14C206.67 127.375 207.741 127.595 208.885 127.8C210.058 128.005 211.012 128.225 211.745 128.46C212.713 128.724 213.534 129.105 214.209 129.604C214.913 130.103 215.441 130.733 215.793 131.496C216.174 132.259 216.365 133.183 216.365 134.268C216.365 135.676 216.086 136.835 215.529 137.744C214.972 138.624 214.224 139.328 213.285 139.856C212.376 140.384 211.349 140.751 210.205 140.956C209.09 141.161 207.99 141.264 206.905 141.264ZM230.611 141.264C227.355 141.264 224.861 140.413 223.131 138.712C221.429 136.981 220.579 134.356 220.579 130.836V117.812H225.111V130.572C225.111 131.951 225.301 133.139 225.683 134.136C226.093 135.133 226.709 135.896 227.531 136.424C228.352 136.952 229.393 137.216 230.655 137.216C231.975 137.216 233.031 136.952 233.823 136.424C234.644 135.867 235.231 135.089 235.583 134.092C235.964 133.095 236.155 131.921 236.155 130.572V117.812H240.687V130.836C240.687 134.415 239.807 137.055 238.047 138.756C236.316 140.428 233.837 141.264 230.611 141.264ZM256.223 141.264C253.788 141.264 251.75 140.765 250.107 139.768C248.494 138.771 247.276 137.392 246.455 135.632C245.663 133.843 245.267 131.789 245.267 129.472C245.267 127.184 245.678 125.145 246.499 123.356C247.35 121.537 248.611 120.115 250.283 119.088C251.984 118.032 254.082 117.504 256.575 117.504C258.276 117.504 259.787 117.797 261.107 118.384C262.427 118.941 263.498 119.777 264.319 120.892C265.17 121.977 265.727 123.341 265.991 124.984H261.459C261.078 123.781 260.432 122.916 259.523 122.388C258.643 121.86 257.602 121.596 256.399 121.596C254.786 121.596 253.495 121.977 252.527 122.74C251.588 123.503 250.899 124.485 250.459 125.688C250.019 126.891 249.799 128.152 249.799 129.472C249.799 130.851 250.019 132.127 250.459 133.3C250.928 134.473 251.632 135.427 252.571 136.16C253.539 136.864 254.8 137.216 256.355 137.216C257.528 137.216 258.614 136.967 259.611 136.468C260.608 135.94 261.254 135.06 261.547 133.828H266.211C265.947 135.529 265.331 136.937 264.363 138.052C263.395 139.137 262.192 139.944 260.755 140.472C259.347 141 257.836 141.264 256.223 141.264ZM280.804 141.264C278.37 141.264 276.331 140.765 274.688 139.768C273.046 138.771 271.799 137.392 270.948 135.632C270.127 133.843 269.716 131.789 269.716 129.472C269.716 127.125 270.142 125.057 270.992 123.268C271.872 121.479 273.134 120.071 274.776 119.044C276.448 118.017 278.458 117.504 280.804 117.504C282.594 117.504 284.148 117.841 285.468 118.516C286.788 119.161 287.874 120.041 288.724 121.156C289.604 122.271 290.25 123.517 290.66 124.896C291.071 126.245 291.247 127.653 291.188 129.12C291.188 129.443 291.174 129.751 291.144 130.044C291.115 130.337 291.086 130.645 291.056 130.968H274.292C274.38 132.141 274.674 133.212 275.172 134.18C275.7 135.148 276.434 135.925 277.372 136.512C278.311 137.069 279.47 137.348 280.848 137.348C281.611 137.348 282.344 137.26 283.048 137.084C283.782 136.879 284.427 136.571 284.984 136.16C285.571 135.72 285.982 135.163 286.216 134.488H290.792C290.411 136.043 289.722 137.333 288.724 138.36C287.756 139.357 286.568 140.091 285.16 140.56C283.782 141.029 282.33 141.264 280.804 141.264ZM274.38 127.36H286.7C286.671 126.216 286.407 125.204 285.908 124.324C285.41 123.415 284.72 122.711 283.84 122.212C282.96 121.684 281.904 121.42 280.672 121.42C279.323 121.42 278.194 121.699 277.284 122.256C276.404 122.813 275.715 123.547 275.216 124.456C274.747 125.336 274.468 126.304 274.38 127.36ZM304.53 141.264C303.445 141.264 302.359 141.161 301.274 140.956C300.189 140.751 299.177 140.384 298.238 139.856C297.299 139.328 296.507 138.624 295.862 137.744C295.217 136.835 294.806 135.72 294.63 134.4H299.25C299.485 135.104 299.895 135.676 300.482 136.116C301.098 136.556 301.773 136.879 302.506 137.084C303.269 137.289 304.017 137.392 304.75 137.392C305.19 137.392 305.674 137.363 306.202 137.304C306.759 137.245 307.287 137.113 307.786 136.908C308.285 136.703 308.695 136.409 309.018 136.028C309.341 135.617 309.502 135.075 309.502 134.4C309.502 133.872 309.355 133.432 309.062 133.08C308.798 132.728 308.417 132.449 307.918 132.244C307.449 132.009 306.877 131.833 306.202 131.716C304.882 131.423 303.459 131.144 301.934 130.88C300.438 130.587 299.118 130.088 297.974 129.384C297.563 129.12 297.197 128.827 296.874 128.504C296.551 128.152 296.273 127.756 296.038 127.316C295.803 126.876 295.627 126.407 295.51 125.908C295.393 125.409 295.334 124.867 295.334 124.28C295.334 123.077 295.569 122.051 296.038 121.2C296.537 120.349 297.211 119.66 298.062 119.132C298.913 118.575 299.881 118.164 300.966 117.9C302.051 117.636 303.195 117.504 304.398 117.504C305.953 117.504 307.361 117.753 308.622 118.252C309.883 118.751 310.925 119.484 311.746 120.452C312.567 121.42 313.051 122.637 313.198 124.104H308.93C308.754 123.312 308.241 122.681 307.39 122.212C306.569 121.713 305.527 121.464 304.266 121.464C303.826 121.464 303.342 121.493 302.814 121.552C302.315 121.611 301.831 121.743 301.362 121.948C300.893 122.153 300.511 122.447 300.218 122.828C299.925 123.18 299.778 123.649 299.778 124.236C299.778 124.793 299.91 125.263 300.174 125.644C300.467 126.025 300.878 126.333 301.406 126.568C301.963 126.803 302.594 126.993 303.298 127.14C304.295 127.375 305.366 127.595 306.51 127.8C307.683 128.005 308.637 128.225 309.37 128.46C310.338 128.724 311.159 129.105 311.834 129.604C312.538 130.103 313.066 130.733 313.418 131.496C313.799 132.259 313.99 133.183 313.99 134.268C313.99 135.676 313.711 136.835 313.154 137.744C312.597 138.624 311.849 139.328 310.91 139.856C310.001 140.384 308.974 140.751 307.83 140.956C306.715 141.161 305.615 141.264 304.53 141.264ZM326.96 141.264C325.874 141.264 324.789 141.161 323.704 140.956C322.618 140.751 321.606 140.384 320.668 139.856C319.729 139.328 318.937 138.624 318.292 137.744C317.646 136.835 317.236 135.72 317.06 134.4H321.68C321.914 135.104 322.325 135.676 322.912 136.116C323.528 136.556 324.202 136.879 324.936 137.084C325.698 137.289 326.446 137.392 327.18 137.392C327.62 137.392 328.104 137.363 328.632 137.304C329.189 137.245 329.717 137.113 330.216 136.908C330.714 136.703 331.125 136.409 331.448 136.028C331.77 135.617 331.932 135.075 331.932 134.4C331.932 133.872 331.785 133.432 331.492 133.08C331.228 132.728 330.846 132.449 330.348 132.244C329.878 132.009 329.306 131.833 328.632 131.716C327.312 131.423 325.889 131.144 324.364 130.88C322.868 130.587 321.548 130.088 320.404 129.384C319.993 129.12 319.626 128.827 319.304 128.504C318.981 128.152 318.702 127.756 318.468 127.316C318.233 126.876 318.057 126.407 317.94 125.908C317.822 125.409 317.764 124.867 317.764 124.28C317.764 123.077 317.998 122.051 318.468 121.2C318.966 120.349 319.641 119.66 320.492 119.132C321.342 118.575 322.31 118.164 323.396 117.9C324.481 117.636 325.625 117.504 326.828 117.504C328.382 117.504 329.79 117.753 331.052 118.252C332.313 118.751 333.354 119.484 334.176 120.452C334.997 121.42 335.481 122.637 335.628 124.104H331.36C331.184 123.312 330.67 122.681 329.82 122.212C328.998 121.713 327.957 121.464 326.696 121.464C326.256 121.464 325.772 121.493 325.244 121.552C324.745 121.611 324.261 121.743 323.792 121.948C323.322 122.153 322.941 122.447 322.648 122.828C322.354 123.18 322.208 123.649 322.208 124.236C322.208 124.793 322.34 125.263 322.604 125.644C322.897 126.025 323.308 126.333 323.836 126.568C324.393 126.803 325.024 126.993 325.728 127.14C326.725 127.375 327.796 127.595 328.94 127.8C330.113 128.005 331.066 128.225 331.8 128.46C332.768 128.724 333.589 129.105 334.264 129.604C334.968 130.103 335.496 130.733 335.848 131.496C336.229 132.259 336.42 133.183 336.42 134.268C336.42 135.676 336.141 136.835 335.584 137.744C335.026 138.624 334.278 139.328 333.34 139.856C332.43 140.384 331.404 140.751 330.26 140.956C329.145 141.161 328.045 141.264 326.96 141.264ZM351.061 141.264C348.656 141.264 346.617 140.78 344.945 139.812C343.273 138.815 341.997 137.421 341.117 135.632C340.267 133.843 339.841 131.775 339.841 129.428C339.841 127.052 340.281 124.984 341.161 123.224C342.041 121.435 343.317 120.041 344.989 119.044C346.661 118.017 348.7 117.504 351.105 117.504C353.511 117.504 355.549 118.017 357.221 119.044C358.893 120.041 360.155 121.435 361.005 123.224C361.856 125.013 362.281 127.096 362.281 129.472C362.281 131.789 361.841 133.843 360.961 135.632C360.111 137.421 358.849 138.815 357.177 139.812C355.535 140.78 353.496 141.264 351.061 141.264ZM351.061 137.216C352.645 137.216 353.921 136.864 354.889 136.16C355.887 135.456 356.62 134.517 357.089 133.344C357.559 132.141 357.793 130.836 357.793 129.428C357.793 128.02 357.559 126.729 357.089 125.556C356.62 124.383 355.887 123.444 354.889 122.74C353.921 122.007 352.645 121.64 351.061 121.64C349.507 121.64 348.231 122.007 347.233 122.74C346.236 123.444 345.503 124.383 345.033 125.556C344.593 126.729 344.373 128.02 344.373 129.428C344.373 130.865 344.593 132.171 345.033 133.344C345.503 134.517 346.236 135.456 347.233 136.16C348.231 136.864 349.507 137.216 351.061 137.216Z" fill="#000B28"/>
<path d="M382.042 141.44C381.162 141.44 380.429 141.161 379.842 140.604C379.285 140.047 379.006 139.313 379.006 138.404C379.006 137.495 379.3 136.761 379.886 136.204C380.473 135.617 381.192 135.324 382.042 135.324C382.893 135.324 383.597 135.617 384.154 136.204C384.741 136.761 385.034 137.495 385.034 138.404C385.034 139.313 384.741 140.047 384.154 140.604C383.597 141.161 382.893 141.44 382.042 141.44Z" fill="#235CF2"/>
<path d="M6.246 4.256C7.014 4.256 7.71 4.34 8.334 4.508C8.958 4.664 9.486 4.922 9.918 5.282C10.362 5.63 10.698 6.092 10.926 6.668C11.166 7.232 11.28 7.928 11.268 8.756C11.256 9.476 11.13 10.118 10.89 10.682C10.65 11.234 10.314 11.702 9.882 12.086C9.462 12.458 8.952 12.746 8.352 12.95C7.764 13.142 7.122 13.238 6.426 13.238H3.96V17H1.35V4.256H6.246ZM6.282 10.934C6.606 10.934 6.912 10.892 7.2 10.808C7.5 10.724 7.758 10.592 7.974 10.412C8.19 10.232 8.364 10.01 8.496 9.746C8.628 9.482 8.7 9.17 8.712 8.81C8.736 7.994 8.514 7.418 8.046 7.082C7.59 6.746 6.996 6.578 6.264 6.578H3.96V10.934H6.282ZM19.2791 4.094C20.2511 4.094 21.1271 4.25 21.9071 4.562C22.6871 4.874 23.3471 5.318 23.8871 5.894C24.4271 6.458 24.8411 7.136 25.1291 7.928C25.4171 8.72 25.5611 9.596 25.5611 10.556C25.5611 11.492 25.4171 12.362 25.1291 13.166C24.8411 13.97 24.4271 14.666 23.8871 15.254C23.3471 15.842 22.6811 16.304 21.8891 16.64C21.1091 16.964 20.2211 17.12 19.2251 17.108C18.2291 17.108 17.3411 16.946 16.5611 16.622C15.7931 16.286 15.1391 15.83 14.5991 15.254C14.0711 14.678 13.6631 13.994 13.3751 13.202C13.0991 12.41 12.9611 11.546 12.9611 10.61C12.9611 9.65 13.1051 8.774 13.3931 7.982C13.6931 7.178 14.1131 6.488 14.6531 5.912C15.2051 5.336 15.8711 4.892 16.6511 4.58C17.4311 4.256 18.3071 4.094 19.2791 4.094ZM15.6431 10.574C15.6431 11.126 15.7151 11.654 15.8591 12.158C16.0151 12.65 16.2371 13.088 16.5251 13.472C16.8251 13.856 17.2031 14.168 17.6591 14.408C18.1151 14.636 18.6491 14.756 19.2611 14.768C19.8491 14.78 20.3711 14.678 20.8271 14.462C21.2831 14.234 21.6611 13.928 21.9611 13.544C22.2611 13.148 22.4891 12.698 22.6451 12.194C22.8011 11.678 22.8791 11.144 22.8791 10.592C22.8791 10.052 22.8011 9.53 22.6451 9.026C22.5011 8.522 22.2791 8.078 21.9791 7.694C21.6911 7.298 21.3191 6.986 20.8631 6.758C20.4071 6.53 19.8731 6.416 19.2611 6.416C18.6611 6.416 18.1331 6.53 17.6771 6.758C17.2211 6.986 16.8431 7.292 16.5431 7.676C16.2431 8.06 16.0151 8.504 15.8591 9.008C15.7151 9.5 15.6431 10.022 15.6431 10.574ZM33.0034 4.256C33.3394 4.256 33.6754 4.268 34.0114 4.292C34.3474 4.304 34.6774 4.346 35.0014 4.418C35.3254 4.49 35.6374 4.598 35.9374 4.742C36.2494 4.874 36.5374 5.06 36.8014 5.3C37.2214 5.684 37.5214 6.146 37.7014 6.686C37.8814 7.214 37.9654 7.754 37.9534 8.306C37.9414 9.05 37.8094 9.68 37.5574 10.196C37.3174 10.712 36.9874 11.15 36.5674 11.51C36.1834 11.822 35.7394 12.044 35.2354 12.176L38.0614 17H35.1454L32.5714 12.428H30.5374V17H27.9274V4.256H33.0034ZM33.0214 10.232C33.3454 10.232 33.6514 10.202 33.9394 10.142C34.2274 10.082 34.4734 9.986 34.6774 9.854C34.8934 9.71 35.0614 9.524 35.1814 9.296C35.3134 9.056 35.3854 8.756 35.3974 8.396C35.4094 8.012 35.3554 7.7 35.2354 7.46C35.1154 7.22 34.9474 7.034 34.7314 6.902C34.5274 6.77 34.2814 6.686 33.9934 6.65C33.7174 6.602 33.4114 6.578 33.0754 6.578H30.5374V10.232H33.0214ZM39.2622 6.578V4.256H49.8642V6.578H45.8682V17H43.2582V6.578H39.2622ZM60.5668 4.256V6.578H54.2848V9.872H59.5588V12.158H54.2848V17H51.6748V4.256H60.5668ZM74.6563 10.556C74.6563 11.552 74.5303 12.458 74.2783 13.274C74.0383 14.078 73.6663 14.774 73.1623 15.362C72.6703 15.95 72.0343 16.4 71.2543 16.712C70.4863 17.024 69.5803 17.18 68.5363 17.18C67.4923 17.18 66.5803 17.024 65.8003 16.712C65.0323 16.388 64.3963 15.938 63.8923 15.362C63.4003 14.774 63.0283 14.072 62.7763 13.256C62.5363 12.44 62.4163 11.534 62.4163 10.538C62.4163 9.206 62.6323 8.048 63.0643 7.064C63.5083 6.08 64.1803 5.318 65.0803 4.778C65.9923 4.226 67.1503 3.95 68.5543 3.95C69.9463 3.95 71.0923 4.226 71.9923 4.778C72.8923 5.318 73.5583 6.086 73.9903 7.082C74.4343 8.066 74.6563 9.224 74.6563 10.556ZM65.2783 10.556C65.2783 11.456 65.3923 12.23 65.6203 12.878C65.8483 13.526 66.2023 14.024 66.6823 14.372C67.1623 14.72 67.7803 14.894 68.5363 14.894C69.3163 14.894 69.9403 14.72 70.4083 14.372C70.8883 14.024 71.2363 13.526 71.4523 12.878C71.6803 12.23 71.7943 11.456 71.7943 10.556C71.7943 9.2 71.5423 8.138 71.0383 7.37C70.5343 6.602 69.7063 6.218 68.5543 6.218C67.7863 6.218 67.1623 6.392 66.6823 6.74C66.2023 7.088 65.8483 7.586 65.6203 8.234C65.3923 8.882 65.2783 9.656 65.2783 10.556ZM72.3343 0.368C72.1663 0.536 71.9443 0.739999 71.6683 0.979999C71.3923 1.22 71.0923 1.472 70.7683 1.736C70.4563 2 70.1443 2.252 69.8323 2.492C69.5323 2.72 69.2683 2.912 69.0403 3.068H67.2583V2.834C67.4503 2.606 67.6723 2.342 67.9243 2.042C68.1883 1.73 68.4463 1.412 68.6983 1.088C68.9503 0.751999 69.1603 0.451999 69.3283 0.188H72.3343V0.368ZM80.0004 14.696H86.2464V17H77.4084V4.256H80.0004V14.696ZM91.0659 17H88.4559V4.256H91.0659V17ZM99.7405 4.094C100.713 4.094 101.589 4.25 102.369 4.562C103.149 4.874 103.809 5.318 104.349 5.894C104.889 6.458 105.303 7.136 105.591 7.928C105.879 8.72 106.023 9.596 106.023 10.556C106.023 11.492 105.879 12.362 105.591 13.166C105.303 13.97 104.889 14.666 104.349 15.254C103.809 15.842 103.143 16.304 102.351 16.64C101.571 16.964 100.683 17.12 99.6865 17.108C98.6905 17.108 97.8025 16.946 97.0225 16.622C96.2545 16.286 95.6005 15.83 95.0605 15.254C94.5325 14.678 94.1245 13.994 93.8365 13.202C93.5605 12.41 93.4225 11.546 93.4225 10.61C93.4225 9.65 93.5665 8.774 93.8545 7.982C94.1545 7.178 94.5745 6.488 95.1145 5.912C95.6665 5.336 96.3325 4.892 97.1125 4.58C97.8925 4.256 98.7685 4.094 99.7405 4.094ZM96.1045 10.574C96.1045 11.126 96.1765 11.654 96.3205 12.158C96.4765 12.65 96.6985 13.088 96.9865 13.472C97.2865 13.856 97.6645 14.168 98.1205 14.408C98.5765 14.636 99.1105 14.756 99.7225 14.768C100.311 14.78 100.833 14.678 101.289 14.462C101.745 14.234 102.123 13.928 102.423 13.544C102.723 13.148 102.951 12.698 103.107 12.194C103.263 11.678 103.341 11.144 103.341 10.592C103.341 10.052 103.263 9.53 103.107 9.026C102.963 8.522 102.741 8.078 102.441 7.694C102.153 7.298 101.781 6.986 101.325 6.758C100.869 6.53 100.335 6.416 99.7225 6.416C99.1225 6.416 98.5945 6.53 98.1385 6.758C97.6825 6.986 97.3045 7.292 97.0045 7.676C96.7045 8.06 96.4765 8.504 96.3205 9.008C96.1765 9.5 96.1045 10.022 96.1045 10.574ZM107.525 20.078L112.961 2.888H115.391L109.955 20.078H107.525Z" fill="#235CF2"/>
</svg>
