<svg width="257" height="194" viewBox="0 0 257 194" fill="none" xmlns="http://www.w3.org/2000/svg">
<g clip-path="url(#clip0_364_205)">
<path d="M129.553 102.375C144.409 93.9313 158.671 85.8313 173.334 77.4938V120.163C158.315 129.219 143.196 138.331 127.89 147.563C120.24 143.081 112.628 138.625 105.021 134.156C100.453 131.469 95.89 128.769 91.3338 126.063C88.3775 124.306 87.9213 123.425 87.9088 119.094C101.728 127.219 115.359 135.231 129.553 143.575V102.363V102.375Z" fill="white"/>
<path d="M83.465 70.7563V25.5C98.3463 17.3188 113.24 9.12501 128.515 0.731262V45.4C113.953 53.6 98.9088 62.0625 83.465 70.7563Z" fill="white"/>
<path d="M134.89 49.0375C134.89 51.525 134.915 53.4688 134.89 55.4062C134.74 65.2875 134.878 75.1813 134.246 85.0313C134.015 88.675 131.971 92.2063 130.759 95.7938L129.728 95.55V49.8437C145.209 42.8375 161.371 41.775 178.265 46.3C171.203 40.5875 158.896 37.2062 131.209 45.6312C133.703 44.2187 136.165 42.7562 138.69 41.4062C144.471 38.325 150.215 35.1625 156.103 32.3C166.24 27.3625 176.246 27.1687 186.034 33.4687C194.428 38.8687 202.94 44.0875 211.39 49.4062C212.071 49.8312 212.684 50.3562 213.703 51.1125C204.434 56.0312 195.646 61.25 186.39 65.4375C178.553 68.9875 170.115 69.125 162.309 64.9062C154.078 60.4562 146.128 55.4937 138.053 50.7625C137.19 50.2562 136.303 49.8062 134.884 49.0375H134.89Z" fill="white"/>
<path d="M123.109 100.169C112.478 105.613 103.978 113.175 92.8338 115.756C86.5775 117.206 80.8588 116.538 75.2525 112.981C65.8588 107.025 56.1775 101.525 46.6212 95.825C45.6587 95.25 44.74 94.6188 43.4025 93.7563C47.7213 91.4125 51.7275 89.2875 55.69 87.0688C60.9525 84.125 66.3275 81.3438 71.3775 78.0625C78.5275 73.4125 85.7838 73.1875 92.815 77.5313C101.459 82.875 109.721 88.8375 118.14 94.725C104.965 89.825 91.7588 85.4063 77.865 92.15C93.515 89.8938 108.315 92.3375 123.115 100.169H123.109Z" fill="white"/>
<path d="M32.0337 161.025H44.5087C47.5962 168.6 50.715 176.244 54.1462 184.663C57.6025 176.288 60.7525 168.663 63.9212 160.994H75.7275V193.238H66.2338V166.425C66.0775 166.356 65.915 166.288 65.7588 166.213C62.065 175.144 58.3713 184.069 54.615 193.169H47.915C44.3462 184.375 40.7775 175.606 37.215 166.831C36.9962 166.894 36.7775 166.95 36.565 167.013V193.169H32.0337V161.019V161.025Z" fill="white"/>
<path d="M81.1588 193.388V160.975C81.965 160.931 82.8463 160.844 83.7213 160.844C90.8963 160.831 98.0713 160.825 105.246 160.844C111.928 160.863 113.565 162.506 113.553 169.081C113.553 169.288 113.553 169.5 113.553 169.706C113.546 174.894 113.528 174.919 109.29 176.563C110.546 177.675 112.878 178.744 113.084 180.125C113.571 183.431 113.621 187.025 112.784 190.231C111.996 193.263 108.646 193.325 105.921 193.35C99.165 193.425 92.4025 193.381 85.6463 193.381C84.1275 193.381 82.6088 193.381 81.1588 193.381V193.388ZM103.834 179.338H91.0213V189.144H103.834V179.338ZM91.0275 165.119V174.756H103.859V165.119H91.0275Z" fill="white"/>
<path d="M166.809 165.063V172.094C170.821 172.094 174.634 172.056 178.44 172.113C180.096 172.138 181.771 172.206 183.396 172.5C185.99 172.963 187.384 174.706 187.465 177.288C187.578 180.825 187.59 184.369 187.471 187.906C187.371 190.9 185.746 192.975 182.696 193.038C174.709 193.2 166.715 193.094 158.478 193.094C158.19 191.856 157.903 190.588 157.559 189.088H178.078V181.063C175.384 181.063 172.84 181.063 170.303 181.063C168.534 181.063 166.759 181.063 164.99 181.05C159.078 181.025 157.309 179.306 157.271 173.5C157.253 171.213 157.215 168.919 157.309 166.631C157.434 163.713 158.746 161.338 161.846 161.263C170.034 161.063 178.227 161.194 186.596 161.194C186.796 162.506 186.99 163.794 187.19 165.075H166.803L166.809 165.063Z" fill="white"/>
<path d="M0.333748 193.175V161H26.8838C27.1462 162.338 27.3962 163.613 27.6775 165.031H10.2275V174.738H26.0588V179.169H10.2275V189.163H27.565C27.39 190.475 27.2275 191.738 27.0338 193.175H0.333748Z" fill="white"/>
<path d="M202.509 189.181H220.346V161.019H224.965C224.965 169.85 225.009 178.481 224.946 187.106C224.915 190.975 222.684 193.294 218.678 193.356C212.015 193.469 205.346 193.431 198.684 193.244C194.484 193.125 192.703 191.05 192.709 186.938C192.709 180.169 192.74 173.4 192.709 166.631C192.703 164.888 192.503 163.144 192.371 161.119H202.509V189.181Z" fill="white"/>
<path d="M139.778 161.081C144.821 171.838 149.796 182.45 154.859 193.25H144.084C142.871 190.131 141.721 187.175 140.54 184.131H124.859C123.703 187.125 122.559 190.094 121.359 193.2H116.378C119.321 186.881 122.153 180.819 124.971 174.75C126.503 171.45 128.084 168.175 129.496 164.825C129.934 163.788 129.865 162.544 130.071 161.081H139.778ZM138.44 179.944C136.49 175.756 134.734 171.981 132.628 167.463C130.571 172.05 128.865 175.844 127.028 179.944H138.44Z" fill="white"/>
<path d="M239.534 189.244H256.996C256.796 190.55 256.603 191.8 256.39 193.2H229.815V161.113H239.534V189.244Z" fill="white"/>
</g>
<defs>
<clipPath id="clip0_364_205">
<rect width="256.663" height="192.688" fill="white" transform="translate(0.33374 0.731262)"/>
</clipPath>
</defs>
</svg>
