<svg width="1440" height="790" viewBox="0 0 1440 790" fill="none" xmlns="http://www.w3.org/2000/svg">
<g id="canal-etica" clip-path="url(#clip0_740_214)">
<rect width="1440" height="790" fill="white"/>
<path id="Rectangle 9" d="M0 0H1440V720H0V0Z" fill="#00203D"/>
<line id="Div" x1="942.16" y1="301.5" x2="1332.16" y2="301.5" stroke="#003666"/>
<g id="Content">
<text id="Telefone Fixo" fill="#F2F2F2" xml:space="preserve" style="white-space: pre" font-family="Onest" font-size="23.8125" letter-spacing="0em"><tspan x="942" y="370.913">Telefone Fixo</tspan></text>
<text id="Fale com um de nossos parceiros terceirizados de &#195;&#169;tica. Estamos aqui para ouvir suas preocupa&#195;&#167;&#195;&#181;es e agir de forma respons&#195;&#161;vel." fill="#ECECEC" xml:space="preserve" style="white-space: pre" font-family="Onest" font-size="17.7188" letter-spacing="0em"><tspan x="941.835" y="420.881">Fale com um de nossos parceiros terceirizados </tspan><tspan x="941.835" y="450.881">de &#xe9;tica. Estamos aqui para ouvir suas </tspan><tspan x="941.835" y="480.881">preocupa&#xe7;&#xf5;es e agir de forma respons&#xe1;vel.</tspan></text>
<g id="Link">
<rect x="942.5" y="514.49" width="181" height="53" rx="26.5" fill="#006CCC"/>
<rect x="942.5" y="514.49" width="181" height="53" rx="26.5" stroke="#006CCC"/>
<g id="Icon" clip-path="url(#clip1_740_214)">
<path id="Vector" d="M983.349 544.896L981.423 542.97C981.219 542.766 980.985 542.61 980.721 542.502C980.421 542.382 980.139 542.322 979.875 542.322C979.611 542.322 979.329 542.382 979.029 542.502C978.777 542.598 978.537 542.754 978.309 542.97L977.931 543.366C975.987 541.746 974.211 539.97 972.603 538.038L972.999 537.642C973.203 537.438 973.359 537.201 973.467 536.931C973.575 536.661 973.629 536.379 973.629 536.085C973.629 535.791 973.575 535.509 973.467 535.239C973.359 534.969 973.203 534.732 972.999 534.528L971.073 532.62C970.857 532.416 970.614 532.26 970.344 532.152C970.074 532.044 969.795 531.99 969.507 531.99C969.219 531.99 968.94 532.044 968.67 532.152C968.4 532.26 968.163 532.416 967.959 532.62L966.897 533.664C966.381 534.18 966.087 534.81 966.015 535.554C965.979 535.902 966.006 536.25 966.096 536.598C966.186 536.946 966.327 537.27 966.519 537.57C968.067 539.922 969.843 542.097 971.847 544.095C973.851 546.093 976.029 547.878 978.381 549.45C979.017 549.858 979.695 550.026 980.415 549.954C980.763 549.918 981.099 549.825 981.423 549.675C981.747 549.525 982.041 549.324 982.305 549.072L983.349 548.01C983.553 547.818 983.712 547.581 983.826 547.299C983.94 547.017 983.997 546.732 983.997 546.444C983.997 546.156 983.94 545.874 983.826 545.598C983.712 545.322 983.553 545.088 983.349 544.896Z" fill="white"/>
</g>
<text id="0800-2222222" fill="white" xml:space="preserve" style="white-space: pre" font-family="Onest" font-size="14" letter-spacing="0.05em"><tspan x="992.371" y="545.645">0800-2222222</tspan></text>
</g>
</g>
<line id="Div_2" x1="525.16" y1="301.5" x2="915.16" y2="301.5" stroke="#003666"/>
<g id="Content_2">
<text id="Portal de &#195;&#137;tica" fill="#F2F2F2" xml:space="preserve" style="white-space: pre" font-family="Onest" font-size="23.8125" letter-spacing="0em"><tspan x="525" y="370.913">Portal de &#xc9;tica</tspan></text>
<text id="Acesse e relate qualquer quest&#195;&#163;o &#195;&#169;tica que precise ser abordada. Sua mensagem ser&#195;&#161; tratada com o m&#195;&#161;ximo sigilo" fill="#ECECEC" xml:space="preserve" style="white-space: pre" font-family="Onest" font-size="17.7188" letter-spacing="0em"><tspan x="524.835" y="420.881">Acesse e relate qualquer quest&#xe3;o &#xe9;tica que </tspan><tspan x="524.835" y="450.881">precise ser abordada. Sua mensagem ser&#xe1; </tspan><tspan x="524.835" y="480.881">tratada com o m&#xe1;ximo sigilo</tspan></text>
<g id="Link_2">
<rect x="525.5" y="514.49" width="280" height="53" rx="26.5" fill="#006CCC"/>
<rect x="525.5" y="514.49" width="280" height="53" rx="26.5" stroke="#006CCC"/>
<g id="Icon_2" clip-path="url(#clip2_740_214)">
<path id="Vector_2" d="M567.005 540.99C567.005 540.102 566.876 539.229 566.618 538.371C566.36 537.513 565.985 536.715 565.493 535.977C565.001 535.239 564.41 534.588 563.72 534.024C563.03 533.46 562.274 533.007 561.452 532.665C560.63 532.323 559.775 532.11 558.887 532.026C557.999 531.942 557.12 531.987 556.25 532.161C555.38 532.335 554.549 532.632 553.757 533.052C552.965 533.472 552.257 533.997 551.633 534.627C551.009 535.257 550.487 535.965 550.067 536.751C549.647 537.537 549.35 538.365 549.176 539.235C549.002 540.105 548.957 540.984 549.041 541.872C549.125 542.76 549.338 543.615 549.68 544.437C550.022 545.259 550.475 546.015 551.039 546.705C551.603 547.395 552.254 547.986 552.992 548.478C553.73 548.97 554.528 549.345 555.386 549.603C556.244 549.861 557.117 549.99 558.005 549.99H558.095C559.271 549.99 560.405 549.765 561.497 549.315C562.589 548.865 563.555 548.22 564.395 547.38C565.235 546.54 565.88 545.574 566.33 544.482C566.78 543.39 567.005 542.256 567.005 541.08V540.99ZM565.511 540.99C565.511 541.662 565.421 542.322 565.241 542.97C565.229 543.018 565.208 543.063 565.178 543.105C565.148 543.147 565.1 543.18 565.034 543.204C564.968 543.228 564.917 543.24 564.881 543.24C564.845 543.24 564.791 543.228 564.719 543.204C564.251 543 563.873 542.682 563.585 542.25L561.929 539.766C561.761 539.514 561.533 539.31 561.245 539.154C560.957 538.998 560.663 538.92 560.363 538.92H560.039C559.775 538.92 559.517 538.869 559.265 538.767C559.013 538.665 558.788 538.515 558.59 538.317C558.392 538.119 558.239 537.894 558.131 537.642C558.023 537.39 557.969 537.129 557.969 536.859C557.969 536.589 558.023 536.328 558.131 536.076C558.239 535.824 558.389 535.602 558.581 535.41C558.773 535.218 558.995 535.068 559.247 534.96C559.499 534.852 559.763 534.798 560.039 534.798H562.127C562.175 534.798 562.247 534.822 562.343 534.87C563.327 535.566 564.101 536.454 564.665 537.534C565.229 538.614 565.511 539.766 565.511 540.99ZM550.643 539.604C550.667 539.508 550.715 539.433 550.787 539.379C550.859 539.325 550.931 539.298 551.003 539.298H554.261C554.597 539.298 554.93 539.367 555.26 539.505C555.59 539.643 555.875 539.832 556.115 540.072L556.961 540.918C557.201 541.158 557.384 541.431 557.51 541.737C557.636 542.043 557.705 542.364 557.717 542.7C557.729 543.036 557.678 543.36 557.564 543.672C557.45 543.984 557.285 544.266 557.069 544.518L556.043 545.652C555.731 546.024 555.575 546.444 555.575 546.912V547.524C555.575 547.584 555.554 547.647 555.512 547.713C555.47 547.779 555.428 547.827 555.386 547.857C555.344 547.887 555.293 547.902 555.233 547.902C555.149 547.902 555.083 547.89 555.035 547.866C554.363 547.578 553.748 547.2 553.19 546.732C552.632 546.264 552.149 545.724 551.741 545.112C551.333 544.5 551.024 543.843 550.814 543.141C550.604 542.439 550.499 541.722 550.499 540.99C550.499 540.546 550.547 540.084 550.643 539.604Z" fill="white"/>
</g>
<text id="Portal de &#195;&#137;tica Embasul" fill="white" xml:space="preserve" style="white-space: pre" font-family="Onest" font-size="14" letter-spacing="0.05em"><tspan x="575.35" y="545.645">PORTAL DE &#xc9;TICA EMBASUL</tspan></text>
</g>
</g>
<g id="Frame 28">
<path id="Rectangle 10" d="M212 650H1228V790H212V650Z" fill="#006CCC"/>
<g id="*Para reclama&#195;&#167;&#195;&#181;es relacionadas &#195;&#160; qualidade de nossos produtos ou atendimento ao cliente, solicitamos que entre em contato pelo e-mail embasul@embasul.com.br ou pelo telefone 51 3595-9696.">
<text fill="#ECECEC" xml:space="preserve" style="white-space: pre" font-family="Onest" font-size="17.7188" letter-spacing="0em"><tspan x="299.614" y="710.891">Para reclama&#xe7;&#xf5;es relacionadas &#xe0; qualidade de nossos produtos ou atendimento ao cliente, solicitamos </tspan><tspan x="292" y="740.891">que entre em contato pelo e-mail </tspan><tspan x="788.471" y="740.891"> ou pelo telefone </tspan><tspan x="1050.2" y="740.891">.</tspan></text>
<text fill="#ECECEC" xml:space="preserve" style="white-space: pre" font-family="Onest" font-size="17.7188" letter-spacing="0em"><tspan x="932.107" y="740.891">51 3595-9696</tspan></text>
<text fill="#ECECEC" xml:space="preserve" style="white-space: pre" font-family="Onest" font-size="17.7188" letter-spacing="0em"><tspan x="571.018" y="740.891">embasul@embasul.com.br</tspan></text>
<text fill="#00182E" xml:space="preserve" style="white-space: pre" font-family="Onest" font-size="17.7188" letter-spacing="0em"><tspan x="292" y="710.891">*</tspan></text>
</g>
</g>
<line id="Div_3" x1="108.16" y1="301.5" x2="498.16" y2="301.5" stroke="#003666"/>
<g id="Content_3">
<text id="WhatsApp &#195;&#137;tica" fill="#F2F2F2" xml:space="preserve" style="white-space: pre" font-family="Onest" font-size="23.8125" letter-spacing="0em"><tspan x="108" y="370.913">WhatsApp &#xc9;tica</tspan></text>
<text id="Envie uma mensagem e fale diretamente com prestador terceirizado. Garantimos a confidencialidade de suas informa&#195;&#167;&#195;&#181;es." fill="#ECECEC" xml:space="preserve" style="white-space: pre" font-family="Onest" font-size="17.7188" letter-spacing="0em"><tspan x="108" y="420.881">Envie uma mensagem e fale diretamente com </tspan><tspan x="108" y="450.881">prestador terceirizado. Garantimos a </tspan><tspan x="108" y="480.881">confidencialidade de suas informa&#xe7;&#xf5;es.</tspan></text>
<g id="Link_3">
<rect x="108.5" y="514.49" width="184" height="53" rx="26.5" fill="#006CCC"/>
<rect x="108.5" y="514.49" width="184" height="53" rx="26.5" stroke="#006CCC"/>
<g id="Icon_3" clip-path="url(#clip3_740_214)">
<path id="Vector_3" d="M133.188 545.13L132 549.486L136.464 548.316C137.724 549 139.068 549.342 140.496 549.342C142.02 549.342 143.436 548.958 144.744 548.19C146.016 547.446 147.024 546.438 147.768 545.166C148.536 543.858 148.92 542.442 148.92 540.918C148.92 539.79 148.707 538.713 148.281 537.687C147.855 536.661 147.246 535.752 146.454 534.96C145.662 534.168 144.753 533.559 143.727 533.133C142.701 532.707 141.624 532.494 140.496 532.494C138.972 532.494 137.556 532.878 136.248 533.646C134.976 534.39 133.968 535.398 133.224 536.67C132.456 537.978 132.072 539.394 132.072 540.918C132.072 541.662 132.165 542.391 132.351 543.105C132.537 543.819 132.816 544.494 133.188 545.13ZM137.832 536.868C137.94 536.868 138.018 536.886 138.066 536.922C138.162 536.97 138.246 537.078 138.318 537.246C138.462 537.57 138.612 537.93 138.768 538.326L138.984 538.866C139.056 538.998 139.062 539.124 139.002 539.244L138.984 539.298C138.924 539.406 138.858 539.508 138.786 539.604L138.624 539.802C138.552 539.898 138.498 539.958 138.462 539.982C138.39 540.054 138.348 540.114 138.336 540.162C138.3 540.246 138.312 540.336 138.372 540.432C138.732 541.044 139.134 541.548 139.578 541.944C140.094 542.4 140.634 542.736 141.198 542.952L141.342 543.024C141.45 543.072 141.54 543.093 141.612 543.087C141.684 543.081 141.75 543.042 141.81 542.97C142.158 542.574 142.386 542.286 142.494 542.106C142.554 542.01 142.62 541.956 142.692 541.944C142.764 541.932 142.86 541.947 142.98 541.989C143.1 542.031 143.556 542.256 144.348 542.664L144.6 542.772C144.768 542.856 144.87 542.925 144.906 542.979C144.942 543.033 144.948 543.15 144.924 543.33C144.9 543.546 144.846 543.771 144.762 544.005C144.678 544.239 144.462 544.47 144.114 544.698C143.802 544.902 143.532 545.016 143.304 545.04L143.16 545.058C142.908 545.082 142.656 545.076 142.404 545.04C141.984 544.968 141.408 544.788 140.676 544.5C139.8 544.152 138.966 543.564 138.174 542.736C137.73 542.28 137.34 541.794 137.004 541.278C136.992 541.254 136.974 541.23 136.95 541.206L136.914 541.152C136.35 540.348 136.068 539.616 136.068 538.956C136.068 538.524 136.158 538.134 136.338 537.786C136.434 537.594 136.584 537.39 136.788 537.174L136.806 537.156C136.806 537.144 136.812 537.138 136.824 537.138C136.992 536.946 137.19 536.85 137.418 536.85H137.436C137.616 536.85 137.748 536.856 137.832 536.868Z" fill="white"/>
</g>
<text id="+51 12345.6789" fill="white" xml:space="preserve" style="white-space: pre" font-family="Onest" font-size="14" letter-spacing="0.05em"><tspan x="158.179" y="545.645">+51 12345.6789</tspan></text>
</g>
</g>
<g id="Valorizamos sua confian&#195;&#167;a e estamos comprometidos em garantir um ambiente &#195;&#169;tico e transparente para todos. Sua contribui&#195;&#167;&#195;&#163;o &#195;&#169; essencial para aprimorarmos continuamente nossas pr&#195;&#161;ticas e mantermos a excel&#195;&#170;ncia em tudo o que fazemos. Em caso de qualquer preocupa&#195;&#167;&#195;&#163;o &#195;&#169;tica, temos tr&#195;&#170;s op&#195;&#167;&#195;&#181;es para voc&#195;&#170; entrar em contato conosco:">
<text fill="#ECECEC" xml:space="preserve" style="white-space: pre" font-family="Onest" font-size="17.7188" letter-spacing="0em"><tspan x="1078.93" y="146.891">. Sua contribui&#xe7;&#xe3;o &#xe9; essencial </tspan><tspan x="732" y="176.891">para aprimorarmos continuamente nossas pr&#xe1;ticas e mantermos a </tspan><tspan x="732" y="206.891">excel&#xea;ncia em tudo o que fazemos. Em caso de qualquer preocupa&#xe7;&#xe3;o </tspan><tspan x="732" y="236.891">&#xe9;tica, temos tr&#xea;s op&#xe7;&#xf5;es para voc&#xea; entrar em contato conosco:</tspan></text>
<text fill="#006CCC" xml:space="preserve" style="white-space: pre" font-family="Onest" font-size="17.7188" letter-spacing="0em"><tspan x="732" y="116.891">Valorizamos sua confian&#xe7;a e estamos comprometidos em garantir um </tspan><tspan x="732" y="146.891">ambiente &#xe9;tico e transparente para todos</tspan></text>
</g>
<g id="Canal de &#195;&#137;tica.">
<text fill="white" xml:space="preserve" style="white-space: pre" font-family="Onest" font-size="72" letter-spacing="0em"><tspan x="84" y="178.925">Canal de &#xc9;tica</tspan></text>
<text fill="#006CCC" xml:space="preserve" style="white-space: pre" font-family="Onest" font-size="72" letter-spacing="0em"><tspan x="567.328" y="178.925">.</tspan></text>
</g>
</g>
<defs>
<clipPath id="clip0_740_214">
<rect width="1440" height="790" fill="white"/>
</clipPath>
<clipPath id="clip1_740_214">
<rect width="18" height="18" fill="white" transform="matrix(1 0 0 -1 966 549.99)"/>
</clipPath>
<clipPath id="clip2_740_214">
<rect width="18" height="18" fill="white" transform="matrix(1 0 0 -1 549 549.99)"/>
</clipPath>
<clipPath id="clip3_740_214">
<rect width="18" height="18" fill="white" transform="matrix(1 0 0 -1 132 549.99)"/>
</clipPath>
</defs>
</svg>
