<svg width="40" height="40" viewBox="0 0 40 40" fill="none" xmlns="http://www.w3.org/2000/svg">
<g opacity="0.25" clip-path="url(#clip0_701_869)">
<path d="M37.7143 26.2913C37.7143 26.2913 36.7419 26.2784 35.7528 25.7267C34.7638 25.1751 34.5958 24.7761 34.1558 24.8211C33.7158 24.8647 33.8518 24.3195 33.8518 24.3195C33.8518 24.3195 33.8684 24.077 33.4976 23.8359C33.454 23.8076 33.3616 23.7614 33.2346 23.7011C33.9184 21.2739 33.9184 18.7286 33.2346 16.3014C33.3616 16.2424 33.454 16.1963 33.4976 16.1667C33.8671 15.9255 33.8518 15.6831 33.8518 15.6831C33.8518 15.6831 33.7158 15.1379 34.1558 15.1815C34.5958 15.2251 34.7638 14.8261 35.7528 14.2758C36.7419 13.7241 37.7143 13.7113 37.7143 13.7113C40.3029 13.2533 40.0464 12.0461 39.9373 11.7434C39.8 11.4521 39.1279 10.4168 36.974 11.9229C36.974 11.9229 36.2775 12.6016 35.1884 12.9107C34.0993 13.2212 33.6978 13.057 33.4181 13.3995C33.1385 13.7421 32.8485 13.2597 32.8485 13.2597C32.8485 13.2597 32.6883 13.0763 32.2559 13.1674C32.2046 13.1776 32.1058 13.211 31.9736 13.2597C30.9013 11.3482 29.3914 9.72665 27.5429 8.51433C27.2811 8.34243 27.0144 8.18077 26.7424 8.02811C26.7911 7.89598 26.8233 7.79591 26.8348 7.74588C26.9259 7.31355 26.7424 7.15319 26.7424 7.15319C26.7424 7.15319 26.2601 6.86325 26.6026 6.58359C26.9451 6.30391 26.7809 5.90237 27.0914 4.8132C27.4018 3.72404 28.0791 3.02743 28.0791 3.02743C29.5851 0.873468 28.5499 0.201236 28.2586 0.0639675C27.9559 -0.0450778 26.7489 -0.301655 26.2909 2.2872C26.2909 2.2872 26.278 3.25964 25.7264 4.24874C25.1749 5.23784 24.7759 5.4059 24.8208 5.84593C24.8644 6.28596 24.3193 6.14997 24.3193 6.14997C24.3193 6.14997 24.0768 6.13329 23.8356 6.50405C23.8074 6.54766 23.7599 6.64131 23.7009 6.76832C22.504 6.43349 21.261 6.25901 20.0013 6.25901H19.9974C18.7416 6.25901 17.5036 6.42964 16.3016 6.76832C16.2426 6.64131 16.1965 6.54766 16.167 6.50405C15.9259 6.13457 15.6834 6.14997 15.6834 6.14997C15.6834 6.14997 15.1381 6.28596 15.1818 5.84593C15.2254 5.4059 14.8265 5.23784 14.2761 4.24874C13.7245 3.25964 13.7118 2.2872 13.7118 2.2872C13.2511 -0.302937 12.0454 -0.0463607 11.7413 0.0626845C11.4501 0.199953 10.4149 0.872184 11.9209 3.02615C11.9209 3.02615 12.5995 3.72275 12.9086 4.81192C13.2191 5.90109 13.0549 6.30264 13.3974 6.5823C13.7399 6.86198 13.2576 7.1519 13.2576 7.1519C13.2576 7.1519 13.0741 7.31226 13.1653 7.7446C13.1755 7.79591 13.2089 7.89341 13.2564 8.02555C11.0563 9.2584 9.25783 11.057 8.02505 13.2571C7.89293 13.2084 7.79543 13.1764 7.74411 13.1661C7.31181 13.075 7.15146 13.2584 7.15146 13.2584C7.15146 13.2584 6.86155 13.7408 6.5819 13.3983C6.30225 13.0557 5.90073 13.22 4.81163 12.9095C3.72254 12.599 3.02598 11.9217 3.02598 11.9217C0.872147 10.4156 0.199959 11.4509 0.0626995 11.7421C-0.0463387 12.0448 -0.302899 13.252 2.2858 13.71C2.2858 13.71 3.25816 13.7229 4.2472 14.2745C5.23624 14.8261 5.40429 15.2251 5.84429 15.1803C6.28429 15.1366 6.14831 15.6817 6.14831 15.6817C6.14831 15.6817 6.13164 15.9242 6.50236 16.1655C6.54598 16.1936 6.63834 16.2399 6.76534 16.3001C6.0816 18.7274 6.0816 21.2714 6.76534 23.6999C6.63834 23.7589 6.54598 23.805 6.50236 23.8345C6.13291 24.0758 6.14831 24.3181 6.14831 24.3181C6.14831 24.3181 6.28429 24.8634 5.84429 24.8198C5.40429 24.7761 5.23624 25.1751 4.2472 25.7255C3.25816 26.2771 2.2858 26.29 2.2858 26.29C-0.302899 26.748 -0.0463387 27.9551 0.0626995 28.2579C0.199959 28.5491 0.872147 29.5844 3.02598 28.0784C3.02598 28.0784 3.72254 27.3996 4.81163 27.0905C5.90073 26.78 6.30225 26.9443 6.5819 26.6018C6.86155 26.2591 7.15146 26.7415 7.15146 26.7415C7.15146 26.7415 7.31181 26.925 7.74411 26.8339C7.79543 26.8236 7.8942 26.7903 8.02633 26.7415C9.09875 28.653 10.6086 30.2746 12.4571 31.487C12.7189 31.6589 12.9856 31.8205 13.2576 31.9731C13.2089 32.1053 13.1768 32.2054 13.1653 32.2554C13.0741 32.6878 13.2576 32.8481 13.2576 32.8481C13.2576 32.8481 13.7399 33.138 13.3974 33.4176C13.0549 33.6974 13.2191 34.0989 12.9086 35.188C12.5983 36.2772 11.9209 36.9739 11.9209 36.9739C10.4149 39.1278 11.4501 39.8 11.7413 39.9373C12.0441 40.0464 13.2511 40.3029 13.7091 37.714C13.7091 37.714 13.722 36.7416 14.2736 35.7525C14.8251 34.7634 15.2241 34.5954 15.1793 34.1554C15.1356 33.7153 15.6808 33.8512 15.6808 33.8512C15.6808 33.8512 15.9233 33.868 16.1644 33.4972C16.1926 33.4536 16.2401 33.36 16.2991 33.233C17.4973 33.5677 18.7416 33.7422 20.0026 33.7422C21.2635 33.7422 22.4964 33.5716 23.6984 33.233C23.7574 33.36 23.8035 33.4536 23.833 33.4972C24.0741 33.8666 24.3166 33.8512 24.3166 33.8512C24.3166 33.8512 24.8619 33.7153 24.8183 34.1554C24.7746 34.5954 25.1735 34.7634 25.7239 35.7525C26.2755 36.7416 26.2883 37.714 26.2883 37.714C26.7463 40.3029 27.9534 40.0464 28.2561 39.9373C28.5473 39.8 29.5825 39.1278 28.0765 36.9739C28.0765 36.9739 27.3979 36.2772 27.0888 35.188C26.7784 34.0989 26.9425 33.6974 26.6 33.4176C26.2575 33.138 26.7399 32.8481 26.7399 32.8481C26.7399 32.8481 26.9233 32.6878 26.8323 32.2554C26.822 32.2041 26.7886 32.1066 26.7411 31.9744C28.9411 30.7416 30.7396 28.943 31.9724 26.7429C32.1045 26.7916 32.202 26.8236 32.2534 26.8339C32.6856 26.925 32.846 26.7415 32.846 26.7415C32.846 26.7415 33.1359 26.2591 33.4155 26.6018C33.6953 26.9443 34.0968 26.78 35.1858 27.0905C36.2749 27.401 36.9715 28.0784 36.9715 28.0784C39.1253 29.5844 39.7975 28.5491 39.9348 28.2579C40.0438 27.9551 40.3004 26.748 37.7116 26.29L37.7143 26.2913ZM29.8429 22.2913C29.5261 22.1642 29.3221 22.0834 29.3221 22.0834C29.3221 22.0834 28.9231 21.9795 28.6756 22.2116C28.6756 22.2116 27.0914 21.551 25.8073 21.12C25.8073 21.12 25.4789 21.12 25.248 21.1944C25.017 21.2687 24.7861 21.0365 24.7861 21.0365C24.7861 21.0365 24.3949 20.3861 23.8523 20.2655C23.8651 20.0898 23.8638 19.9128 23.8523 19.7358C24.3949 19.6151 24.7861 18.9648 24.7861 18.9648C24.7861 18.9648 25.017 18.7325 25.248 18.8069C25.4789 18.8814 25.8073 18.8814 25.8073 18.8814C27.0926 18.4502 28.6756 17.7896 28.6756 17.7896C28.9231 18.0217 29.3221 17.9179 29.3221 17.9179C29.3221 17.9179 29.5274 17.837 29.8443 17.7087C30.2046 19.2482 30.188 20.812 29.8429 22.2886V22.2913ZM28.5806 14.6594C28.2664 14.794 28.0638 14.8812 28.0638 14.8812C28.0638 14.8812 27.7084 15.0904 27.6968 15.4291C27.6968 15.4291 26.11 16.0821 24.8965 16.6863C24.8965 16.6863 24.6655 16.9185 24.554 17.1353C24.4436 17.3509 24.1153 17.3495 24.1153 17.3495C24.1153 17.3495 23.3789 17.1661 22.9106 17.465C22.794 17.3302 22.6695 17.2046 22.5361 17.0891C22.8338 16.6209 22.6515 15.8845 22.6515 15.8845C22.6515 15.8845 22.6503 15.5574 22.8658 15.4457C23.0813 15.3354 23.3148 15.1032 23.3148 15.1032C23.919 13.8896 24.5719 12.3027 24.5719 12.3027C24.9106 12.2911 25.1196 11.9358 25.1196 11.9358C25.1196 11.9358 25.2069 11.7331 25.3416 11.4188C26.6295 12.2193 27.7469 13.3149 28.5806 14.6567V14.6594ZM19.9961 9.89086C20.7735 9.89086 21.5433 9.98195 22.2898 10.1564C22.1628 10.4733 22.0808 10.6785 22.0808 10.6785C22.0808 10.6785 21.9768 11.0775 22.209 11.3251C22.209 11.3251 21.5484 12.9095 21.1174 14.1936C21.1174 14.1936 21.1174 14.5221 21.1918 14.753C21.2661 14.9839 21.034 15.2149 21.034 15.2149C21.034 15.2149 20.3835 15.6061 20.263 16.1488C20.1745 16.1424 20.086 16.1385 19.9961 16.1385C19.9064 16.1385 19.8204 16.1424 19.7319 16.1488C19.6113 15.6061 18.9609 15.2149 18.9609 15.2149C18.9609 15.2149 18.7288 14.9839 18.8031 14.753C18.8775 14.5221 18.8775 14.1936 18.8775 14.1936C18.4465 12.9083 17.7859 11.3251 17.7859 11.3251C18.0181 11.0775 17.9141 10.6785 17.9141 10.6785C17.9141 10.6785 17.8334 10.4733 17.7064 10.1564C18.467 9.9781 19.2329 9.88958 19.9923 9.88958L19.9961 9.89086ZM14.6584 11.4213C14.7931 11.7357 14.8804 11.9384 14.8804 11.9384C14.8804 11.9384 15.0894 12.2937 15.4281 12.3053C15.4281 12.3053 16.081 13.8921 16.6853 15.1058C16.6853 15.1058 16.9174 15.3368 17.1343 15.4484C17.351 15.5599 17.3485 15.8871 17.3485 15.8871C17.3485 15.8871 17.165 16.6235 17.4639 17.0917C17.3293 17.2084 17.2048 17.3341 17.0894 17.4662C16.6211 17.1686 15.8848 17.3509 15.8848 17.3509C15.8848 17.3509 15.5576 17.3521 15.446 17.1366C15.3358 16.9211 15.1035 16.6876 15.1035 16.6876C13.89 16.0834 12.3032 15.4304 12.3032 15.4304C12.2917 15.0916 11.9363 14.8826 11.9363 14.8826C11.9363 14.8826 11.7349 14.7954 11.4206 14.6606C12.2211 13.3726 13.3154 12.2552 14.6584 11.4213ZM10.1571 17.7126C10.4739 17.8396 10.6779 17.9204 10.6779 17.9204C10.6779 17.9204 11.0768 18.0244 11.3244 17.7921C11.3244 17.7921 12.9086 18.4529 14.1928 18.8839C14.1928 18.8839 14.5211 18.8839 14.752 18.8095C14.983 18.7351 15.2139 18.9673 15.2139 18.9673C15.2139 18.9673 15.6051 19.6178 16.1478 19.7383C16.1349 19.914 16.1363 20.0911 16.1478 20.2681C15.6051 20.3888 15.2139 21.0391 15.2139 21.0391C15.2139 21.0391 14.983 21.2714 14.752 21.1969C14.5211 21.1225 14.1928 21.1225 14.1928 21.1225C12.9074 21.5536 11.3244 22.2143 11.3244 22.2143C11.0768 21.982 10.6779 22.086 10.6779 22.086C10.6779 22.086 10.4726 22.1667 10.1558 22.2951C9.79531 20.7556 9.81199 19.1917 10.1571 17.7151V17.7126ZM11.4193 25.3445C11.7336 25.2098 11.9363 25.1225 11.9363 25.1225C11.9363 25.1225 12.2917 24.9134 12.3032 24.5747C12.3032 24.5747 13.89 23.9217 15.1035 23.3175C15.1035 23.3175 15.3345 23.0854 15.446 22.8685C15.5564 22.653 15.8848 22.6542 15.8848 22.6542C15.8848 22.6542 16.6211 22.8377 17.0894 22.5389C17.206 22.6735 17.3305 22.7992 17.4639 22.9148C17.1663 23.383 17.3485 24.1194 17.3485 24.1194C17.3485 24.1194 17.3498 24.4465 17.1343 24.5581C16.9188 24.6684 16.6853 24.9006 16.6853 24.9006C16.081 26.1143 15.4281 27.7011 15.4281 27.7011C15.0894 27.7127 14.8804 28.068 14.8804 28.068C14.8804 28.068 14.7931 28.2708 14.6584 28.585C13.3705 27.7845 12.2532 26.689 11.4193 25.347V25.3445ZM20.0039 30.113C19.2265 30.113 18.4568 30.0219 17.7103 29.8474C17.8373 29.5305 17.9193 29.3252 17.9193 29.3252C17.9193 29.3252 18.0233 28.9263 17.791 28.6788C17.791 28.6788 18.4516 27.0944 18.8826 25.8101C18.8826 25.8101 18.8826 25.4818 18.8083 25.2509C18.7339 25.0199 18.966 24.789 18.966 24.789C18.966 24.789 19.6165 24.3977 19.737 23.855C19.8255 23.8615 19.914 23.8654 20.0039 23.8654C20.0936 23.8654 20.1796 23.8615 20.2681 23.855C20.3888 24.3977 21.0391 24.789 21.0391 24.789C21.0391 24.789 21.2713 25.0199 21.1969 25.2509C21.1225 25.4818 21.1225 25.8101 21.1225 25.8101C21.5535 27.0956 22.2141 28.6788 22.2141 28.6788C21.9819 28.9263 22.0859 29.3252 22.0859 29.3252C22.0859 29.3252 22.1666 29.5305 22.2949 29.8474C21.5343 30.0257 20.7684 30.1143 20.009 30.1143L20.0039 30.113ZM25.3416 28.5825C25.2069 28.2681 25.1196 28.0655 25.1196 28.0655C25.1196 28.0655 24.9106 27.7101 24.5719 27.6986C24.5719 27.6986 23.919 26.1116 23.3148 24.898C23.3148 24.898 23.0826 24.6671 22.8658 24.5555C22.6503 24.4451 22.6515 24.1167 22.6515 24.1167C22.6515 24.1167 22.835 23.3804 22.5361 22.9121C22.6708 22.7954 22.7953 22.6696 22.9106 22.5375C23.3789 22.8351 24.1153 22.653 24.1153 22.653C24.1153 22.653 24.4424 22.6518 24.554 22.8673C24.6643 23.0828 24.8965 23.3162 24.8965 23.3162C26.11 23.9205 27.6968 24.5735 27.6968 24.5735C27.7084 24.9121 28.0638 25.1213 28.0638 25.1213C28.0638 25.1213 28.2651 25.2085 28.5794 25.3432C27.7789 26.6312 26.6846 27.7486 25.3416 28.5825Z" fill="#006CCC"/>
</g>
<defs>
<clipPath id="clip0_701_869">
<rect width="40" height="40" fill="white"/>
</clipPath>
</defs>
</svg>
