<svg width="15" height="14" viewBox="0 0 15 14" fill="none" xmlns="http://www.w3.org/2000/svg">
<path d="M7.60601 13.7861C7.45001 13.7861 7.31201 13.7471 7.19201 13.6691C7.07201 13.5911 6.98501 13.4831 6.93101 13.3451C6.87701 13.2071 6.86501 13.0661 6.89501 12.9221C6.92501 12.7781 6.98801 12.6581 7.08401 12.5621L12.664 6.96413L7.08401 1.38413C7.01201 1.31213 6.95801 1.23113 6.92201 1.14113C6.88601 1.05113 6.86801 0.958134 6.86801 0.862133C6.86801 0.766133 6.88601 0.676133 6.92201 0.592134C6.95801 0.508133 7.01201 0.430134 7.08401 0.358133C7.15601 0.286134 7.23701 0.232134 7.32701 0.196134C7.41701 0.160133 7.50101 0.142134 7.57901 0.142134C7.65701 0.142134 7.75601 0.166133 7.87601 0.214133C7.96001 0.250134 8.03801 0.304133 8.11001 0.376133L14.194 6.46013C14.338 6.60413 14.41 6.77513 14.41 6.97313C14.41 7.17113 14.338 7.34213 14.194 7.48613L8.11001 13.5701C7.96601 13.7141 7.79801 13.7861 7.60601 13.7861ZM13.69 7.68413H0.73001C0.52601 7.68413 0.35501 7.61513 0.21701 7.47713C0.0790098 7.33913 0.0100098 7.17113 0.0100098 6.97313C0.0100098 6.77513 0.0820098 6.60413 0.22601 6.46013C0.37001 6.31613 0.53801 6.24413 0.73001 6.24413H13.69C13.882 6.24413 14.05 6.31613 14.194 6.46013C14.338 6.60413 14.41 6.77513 14.41 6.97313C14.41 7.17113 14.341 7.33913 14.203 7.47713C14.065 7.61513 13.894 7.68413 13.69 7.68413Z" fill="#235CF2"/>
</svg>
