<svg width="55" height="43" viewBox="0 0 55 43" fill="none" xmlns="http://www.w3.org/2000/svg">
<path d="M11.4997 10.6667C11.4997 9.61609 11.7066 8.5758 12.1086 7.6052C12.5107 6.63459 13.1 5.75268 13.8428 5.00981C14.5857 4.26694 15.4676 3.67767 16.4382 3.27563C17.4088 2.87359 18.4491 2.66667 19.4997 2.66667C20.5502 2.66667 21.5905 2.87359 22.5611 3.27563C23.5317 3.67767 24.4137 4.26694 25.1565 5.00981C25.8994 5.75268 26.4887 6.63459 26.8907 7.6052C27.2927 8.5758 27.4997 9.61609 27.4997 10.6667C27.4997 11.7172 27.2927 12.7575 26.8907 13.7281C26.4887 14.6987 25.8994 15.5807 25.1565 16.3235C24.4137 17.0664 23.5317 17.6557 22.5611 18.0577C21.5905 18.4597 20.5502 18.6667 19.4997 18.6667C18.4491 18.6667 17.4088 18.4597 16.4382 18.0577C15.4676 17.6557 14.5857 17.0664 13.8428 16.3235C13.1 15.5807 12.5107 14.6987 12.1086 13.7281C11.7066 12.7575 11.4997 11.7172 11.4997 10.6667ZM23.308 28C29.9747 28 35.3913 33.3583 35.4997 40H3.49967C3.59967 33.3583 9.01634 28 15.6913 28H23.308ZM19.4997 21.3333C22.3286 21.3333 25.0418 20.2095 27.0421 18.2091C29.0425 16.2088 30.1663 13.4956 30.1663 10.6667C30.1663 7.83769 29.0425 5.12458 27.0421 3.12419C25.0418 1.12381 22.3286 0 19.4997 0C16.6707 0 13.9576 1.12381 11.9572 3.12419C9.95681 5.12458 8.83301 7.83769 8.83301 10.6667C8.83301 13.4956 9.95681 16.2088 11.9572 18.2091C13.9576 20.2095 16.6707 21.3333 19.4997 21.3333ZM15.6913 25.3333C7.48301 25.3333 0.833008 31.9833 0.833008 40.1917C0.833008 41.5583 1.94134 42.6667 3.30801 42.6667H35.6913C37.058 42.6667 38.1663 41.5583 38.1663 40.1917C38.1663 31.9833 31.5163 25.3333 23.308 25.3333H15.6913ZM51.608 42.6667C53.0247 42.6667 54.1663 41.5167 54.1663 40.1083C54.1663 32.6833 48.1497 26.6667 40.7247 26.6667H35.608C35.2413 26.6667 34.8747 26.6833 34.508 26.7083C35.4497 27.4917 36.308 28.3667 37.0663 29.3333H40.7247C46.6413 29.3333 51.4413 34.1 51.4997 40H40.833C40.833 40.0667 40.833 40.125 40.833 40.1917C40.833 41.0917 40.5997 41.9333 40.1997 42.6667H51.608ZM36.833 21.3333C41.9913 21.3333 46.1663 17.1583 46.1663 12C46.1663 6.84167 41.9913 2.66667 36.833 2.66667C34.7663 2.66667 32.858 3.34167 31.308 4.475C31.7413 5.29167 32.083 6.16667 32.3413 7.075C33.5247 5.99167 35.0997 5.33333 36.833 5.33333C40.5163 5.33333 43.4997 8.31667 43.4997 12C43.4997 15.6833 40.5163 18.6667 36.833 18.6667C34.733 18.6667 32.8663 17.7 31.6413 16.1833C31.2497 17.0417 30.7747 17.8417 30.2247 18.5917C31.9163 20.2833 34.2497 21.3333 36.833 21.3333Z" fill="#006CCC"/>
</svg>
