<svg width="49" height="43" viewBox="0 0 49 43" fill="none" xmlns="http://www.w3.org/2000/svg">
<path d="M10.925 0H12.5C19.8667 0 25.8333 5.96667 25.8333 13.3333V21.3333C25.8333 22.0667 25.2333 22.6667 24.5 22.6667C23.7667 22.6667 23.1667 22.0667 23.1667 21.3333V14.6667H20.7417C13.9833 14.6667 8.5 9.18333 8.5 2.425C8.5 1.08333 9.58333 0 10.925 0ZM12.5 2.66667H11.1667C11.2917 7.84167 15.5333 12 20.7417 12H23.0833C22.425 6.74167 17.9417 2.66667 12.5 2.66667ZM28.5 14.6667V13.3333C28.5 12.8833 28.4833 12.4417 28.4417 12C33.5667 11.9 37.7 7.78333 37.8333 2.66667H36.5C32.6917 2.66667 29.35 4.65833 27.4667 7.65833C27.1083 6.70833 26.6583 5.8 26.1333 4.95C28.575 1.93333 32.3083 0 36.5 0H38.075C39.4167 0 40.5 1.08333 40.5 2.425C40.5 9.10833 35.15 14.5333 28.5 14.6667ZM13.0833 26.45C14.175 25.7167 15.4667 25.3333 16.7833 25.3333H29.1667C31.7417 25.3333 33.8333 27.425 33.8333 30C33.8333 30.7167 33.675 31.3917 33.3833 32H33.85L41.7417 27.3C42.4333 26.8917 43.225 26.6667 44.0333 26.6667H44.1417C46.55 26.6667 48.5 28.6167 48.5 31.025C48.5 32.5 47.75 33.875 46.5167 34.675L36.55 41.1583C35.0333 42.1417 33.2667 42.6667 31.4667 42.6667H1.83333C1.1 42.6667 0.5 42.0667 0.5 41.3333C0.5 40.6 1.1 40 1.83333 40H31.4583C32.75 40 34.0083 39.625 35.0917 38.925L45.0583 32.4417C45.5417 32.1333 45.825 31.5917 45.825 31.025C45.825 30.0917 45.0667 29.3333 44.1333 29.3333H44.025C43.7 29.3333 43.3833 29.425 43.1 29.5833L34.8917 34.475C34.6833 34.6 34.45 34.6667 34.2083 34.6667H29.1667H27.1667H21.8333C21.1 34.6667 20.5 34.0667 20.5 33.3333C20.5 32.6 21.1 32 21.8333 32H27.1667H29.1667C30.275 32 31.1667 31.1083 31.1667 30C31.1667 28.8917 30.275 28 29.1667 28H16.7833C15.9917 28 15.225 28.2333 14.5667 28.675L7.90833 33.1083L7.575 33.3333H7.16667H1.83333C1.1 33.3333 0.5 32.7333 0.5 32C0.5 31.2667 1.1 30.6667 1.83333 30.6667H6.76667L13.0833 26.45Z" fill="#006CCC"/>
</svg>
