<svg width="32" height="32" viewBox="0 0 32 32" fill="none" xmlns="http://www.w3.org/2000/svg">
<path d="M26.8178 21.6699V10.3302C26.8169 10.1664 26.7729 10.0057 26.6901 9.86434C26.6073 9.723 26.4888 9.60599 26.3463 9.5251L16.2256 3.83222C16.0892 3.75349 15.9346 3.71204 15.7771 3.71204C15.6196 3.71204 15.4649 3.75349 15.3286 3.83222L5.20786 9.5251C5.06542 9.60599 4.94683 9.723 4.86405 9.86434C4.78126 10.0057 4.73721 10.1664 4.73633 10.3302V21.6699C4.73721 21.8338 4.78126 21.9944 4.86405 22.1357C4.94683 22.2771 5.06542 22.3941 5.20786 22.475L15.3286 28.1678C15.4649 28.2466 15.6196 28.288 15.7771 28.288C15.9346 28.288 16.0892 28.2466 16.2256 28.1678L26.3463 22.475C26.4888 22.3941 26.6073 22.2771 26.6901 22.1357C26.7729 21.9944 26.8169 21.8338 26.8178 21.6699Z" stroke="white" stroke-width="1.536" stroke-linecap="round" stroke-linejoin="round"/>
<path d="M26.6908 9.85852L15.8801 15.9999L4.8623 9.85852" stroke="white" stroke-width="1.536" stroke-linecap="round" stroke-linejoin="round"/>
<path d="M19.487 5.66101L8.67627 11.8024" stroke="white" stroke-width="1.536" stroke-linecap="round" stroke-linejoin="round"/>
<path d="M22.879 7.55853L12.0684 13.6999" stroke="white" stroke-width="1.536" stroke-linecap="round" stroke-linejoin="round"/>
<path d="M15.8794 16L15.7759 28.2828" stroke="white" stroke-width="1.536" stroke-linecap="round" stroke-linejoin="round"/>
</svg>
