<svg width="18" height="18" viewBox="0 0 18 18" fill="none" xmlns="http://www.w3.org/2000/svg">
<path d="M14.625 16.875H3.375V1.125H9V6.1875V6.75H9.5625H14.625V16.875ZM10.125 1.31133L14.4387 5.625H10.125V1.31133ZM10.4062 0H3.375H2.25V1.125V16.875V18H3.375H14.625H15.75V16.875V5.34375L10.4062 0ZM9.5625 8.4375V7.875H8.4375V8.4375V12.7055L6.58477 10.8527L6.1875 10.4555L5.39297 11.25L5.79023 11.6473L8.60273 14.4598L9 14.857L9.39727 14.4598L12.2098 11.6473L12.607 11.25L11.8125 10.4555L11.4152 10.8527L9.5625 12.7055V8.4375Z" fill="#00182E"/>
</svg>
