<svg width="18" height="18" viewBox="0 0 18 18" fill="none" xmlns="http://www.w3.org/2000/svg">
<g clip-path="url(#clip0_740_359)">
<path d="M18.005 8.98999C18.005 8.10199 17.876 7.22899 17.618 6.37099C17.36 5.51299 16.985 4.71499 16.493 3.97699C16.001 3.23899 15.41 2.58799 14.72 2.02399C14.03 1.45999 13.274 1.00699 12.452 0.664991C11.63 0.32299 10.775 0.109991 9.88702 0.0259914C8.99902 -0.0580082 8.12002 -0.0130081 7.25002 0.160992C6.38002 0.334991 5.54902 0.63199 4.75702 1.05199C3.96502 1.47199 3.25702 1.99699 2.63302 2.62699C2.00902 3.25699 1.48702 3.96499 1.06702 4.75099C0.647023 5.53699 0.350023 6.36499 0.176023 7.23499C0.00202325 8.10499 -0.0429767 8.98399 0.0410233 9.87199C0.125023 10.76 0.338023 11.615 0.680023 12.437C1.02202 13.259 1.47502 14.015 2.03902 14.705C2.60302 15.395 3.25402 15.986 3.99202 16.478C4.73002 16.97 5.52802 17.345 6.38602 17.603C7.24402 17.861 8.11702 17.99 9.00502 17.99H9.09502C10.271 17.99 11.405 17.765 12.497 17.315C13.589 16.865 14.555 16.22 15.395 15.38C16.235 14.54 16.88 13.574 17.33 12.482C17.78 11.39 18.005 10.256 18.005 9.07999V8.98999ZM16.511 8.98999C16.511 9.66199 16.421 10.322 16.241 10.97C16.229 11.018 16.208 11.063 16.178 11.105C16.148 11.147 16.1 11.18 16.034 11.204C15.968 11.228 15.917 11.24 15.881 11.24C15.845 11.24 15.791 11.228 15.719 11.204C15.251 11 14.873 10.682 14.585 10.25L12.929 7.76599C12.761 7.51399 12.533 7.30999 12.245 7.15399C11.957 6.99799 11.663 6.91999 11.363 6.91999H11.039C10.775 6.91999 10.517 6.86899 10.265 6.76699C10.013 6.66499 9.78802 6.51499 9.59002 6.31699C9.39202 6.11899 9.23902 5.89399 9.13102 5.64199C9.02302 5.38999 8.96902 5.12899 8.96902 4.85899C8.96902 4.58899 9.02302 4.32799 9.13102 4.07599C9.23902 3.82399 9.38902 3.60199 9.58102 3.40999C9.77302 3.21799 9.99502 3.06799 10.247 2.95999C10.499 2.85199 10.763 2.79799 11.039 2.79799H13.127C13.175 2.79799 13.247 2.82199 13.343 2.86999C14.327 3.56599 15.101 4.45399 15.665 5.53399C16.229 6.61399 16.511 7.76599 16.511 8.98999ZM1.64302 7.60399C1.66702 7.50799 1.71502 7.43299 1.78702 7.37899C1.85902 7.32499 1.93102 7.29799 2.00302 7.29799H5.26102C5.59702 7.29799 5.93002 7.36699 6.26002 7.50499C6.59002 7.64299 6.87502 7.83199 7.11502 8.07199L7.96102 8.91799C8.20102 9.15799 8.38402 9.43099 8.51002 9.73699C8.63602 10.043 8.70502 10.364 8.71702 10.7C8.72902 11.036 8.67802 11.36 8.56402 11.672C8.45002 11.984 8.28502 12.266 8.06902 12.518L7.04302 13.652C6.73102 14.024 6.57502 14.444 6.57502 14.912V15.524C6.57502 15.584 6.55402 15.647 6.51202 15.713C6.47002 15.779 6.42802 15.827 6.38602 15.857C6.34402 15.887 6.29302 15.902 6.23302 15.902C6.14902 15.902 6.08302 15.89 6.03502 15.866C5.36302 15.578 4.74802 15.2 4.19002 14.732C3.63202 14.264 3.14902 13.724 2.74102 13.112C2.33302 12.5 2.02402 11.843 1.81402 11.141C1.60402 10.439 1.49902 9.72199 1.49902 8.98999C1.49902 8.54599 1.54702 8.08399 1.64302 7.60399Z" fill="white"/>
</g>
<defs>
<clipPath id="clip0_740_359">
<rect width="18" height="18" fill="white" transform="matrix(1 0 0 -1 0 17.99)"/>
</clipPath>
</defs>
</svg>
