<svg width="26" height="26" viewBox="0 0 26 26" fill="none" xmlns="http://www.w3.org/2000/svg">
<g clip-path="url(#clip0_701_856)">
<path d="M8.10024 13.2112C9.12578 15.3289 10.8383 17.037 12.9587 18.0571C13.1151 18.1312 13.2881 18.1632 13.4607 18.1501C13.6332 18.137 13.7994 18.0792 13.9428 17.9824L17.0572 15.9019C17.1948 15.8087 17.3538 15.7517 17.5194 15.7365C17.6849 15.7212 17.8517 15.7481 18.0039 15.8148L23.834 18.3187C24.0333 18.4017 24.1998 18.5478 24.3079 18.7346C24.4159 18.9215 24.4595 19.1386 24.432 19.3527C24.2472 20.7949 23.5433 22.1204 22.4519 23.0812C21.3604 24.0419 19.9563 24.572 18.5023 24.5724C14.009 24.5724 9.6996 22.7874 6.52231 19.6102C3.34503 16.4329 1.56006 12.1235 1.56006 7.63017C1.56039 6.17613 2.09052 4.77202 3.05125 3.68059C4.01199 2.58916 5.33749 1.88518 6.77976 1.7004C6.99382 1.67291 7.21099 1.71654 7.39783 1.82459C7.58466 1.93264 7.73079 2.0991 7.81372 2.29836L10.3177 8.14093C10.3828 8.29085 10.41 8.45449 10.397 8.61742C10.384 8.78035 10.3311 8.93758 10.2429 9.07524L8.16254 12.2395C8.06992 12.3826 8.01556 12.547 8.00465 12.7172C7.99375 12.8873 8.02666 13.0573 8.10024 13.2112Z" stroke="white" stroke-width="1.56" stroke-linecap="round" stroke-linejoin="round"/>
</g>
<defs>
<clipPath id="clip0_701_856">
<rect width="24.96" height="26" fill="white" transform="translate(0.52002)"/>
</clipPath>
</defs>
</svg>
