<svg width="18" height="18" viewBox="0 0 18 18" fill="none" xmlns="http://www.w3.org/2000/svg">
<g clip-path="url(#clip0_740_365)">
<path d="M17.3494 12.896L15.4234 10.97C15.2194 10.766 14.9854 10.61 14.7214 10.502C14.4214 10.382 14.1394 10.322 13.8754 10.322C13.6114 10.322 13.3294 10.382 13.0294 10.502C12.7774 10.598 12.5374 10.754 12.3094 10.97L11.9314 11.366C9.98743 9.74602 8.21143 7.97001 6.60343 6.03802L6.99943 5.64201C7.20343 5.43801 7.35943 5.20101 7.46743 4.93102C7.57543 4.66101 7.62943 4.37901 7.62943 4.08502C7.62943 3.79101 7.57543 3.50902 7.46743 3.23901C7.35943 2.96902 7.20343 2.73201 6.99943 2.52802L5.07343 0.620016C4.85743 0.416016 4.61443 0.260015 4.34443 0.152016C4.07443 0.0440159 3.79543 -0.00998497 3.50743 -0.00998497C3.21943 -0.00998497 2.94043 0.0440159 2.67043 0.152016C2.40043 0.260015 2.16343 0.416016 1.95943 0.620016L0.897429 1.66401C0.381429 2.18001 0.0874286 2.81001 0.0154286 3.55402C-0.0205714 3.90201 0.00642857 4.25002 0.0964286 4.59801C0.186429 4.94602 0.327429 5.27001 0.519429 5.57001C2.06743 7.92202 3.84343 10.097 5.84743 12.095C7.85143 14.093 10.0294 15.878 12.3814 17.45C13.0174 17.858 13.6954 18.026 14.4154 17.954C14.7634 17.918 15.0994 17.825 15.4234 17.675C15.7474 17.525 16.0414 17.324 16.3054 17.072L17.3494 16.01C17.5534 15.818 17.7124 15.581 17.8264 15.299C17.9404 15.017 17.9974 14.732 17.9974 14.444C17.9974 14.156 17.9404 13.874 17.8264 13.598C17.7124 13.322 17.5534 13.088 17.3494 12.896Z" fill="white"/>
</g>
<defs>
<clipPath id="clip0_740_365">
<rect width="18" height="18" fill="white" transform="matrix(1 0 0 -1 0 17.99)"/>
</clipPath>
</defs>
</svg>
