<svg width="49" height="43" viewBox="0 0 49 43" fill="none" xmlns="http://www.w3.org/2000/svg">
<path d="M12.4978 0C11.7645 0 11.1645 0.6 11.1645 1.33333C11.1645 2.06667 11.7645 2.66667 12.4978 2.66667H22.6145L0.889453 24.3917C0.372786 24.9083 0.372786 25.7583 0.889453 26.275C1.40612 26.7917 2.25612 26.7917 2.77279 26.275L24.4978 4.55V14.6667C24.4978 15.4 25.0978 16 25.8311 16C26.5645 16 27.1645 15.4 27.1645 14.6667V1.33333C27.1645 0.6 26.5645 0 25.8311 0H12.4978ZM44.4978 5.33333C44.8514 5.33333 45.1906 5.47381 45.4406 5.72386C45.6906 5.97391 45.8311 6.31305 45.8311 6.66667C45.8311 7.02029 45.6906 7.35943 45.4406 7.60948C45.1906 7.85952 44.8514 8 44.4978 8C44.1442 8 43.805 7.85952 43.555 7.60948C43.3049 7.35943 43.1645 7.02029 43.1645 6.66667C43.1645 6.31305 43.3049 5.97391 43.555 5.72386C43.805 5.47381 44.1442 5.33333 44.4978 5.33333ZM44.4978 10.6667C45.5587 10.6667 46.5761 10.2452 47.3262 9.49509C48.0764 8.74495 48.4978 7.72753 48.4978 6.66667C48.4978 5.6058 48.0764 4.58839 47.3262 3.83824C46.5761 3.08809 45.5587 2.66667 44.4978 2.66667C43.4369 2.66667 42.4195 3.08809 41.6694 3.83824C40.9192 4.58839 40.4978 5.6058 40.4978 6.66667C40.4978 7.72753 40.9192 8.74495 41.6694 9.49509C42.4195 10.2452 43.4369 10.6667 44.4978 10.6667ZM33.8311 16C34.1847 16 34.5239 16.1405 34.7739 16.3905C35.024 16.6406 35.1645 16.9797 35.1645 17.3333C35.1645 17.687 35.024 18.0261 34.7739 18.2761C34.5239 18.5262 34.1847 18.6667 33.8311 18.6667C33.4775 18.6667 33.1384 18.5262 32.8883 18.2761C32.6383 18.0261 32.4978 17.687 32.4978 17.3333C32.4978 16.9797 32.6383 16.6406 32.8883 16.3905C33.1384 16.1405 33.4775 16 33.8311 16ZM33.8311 21.3333C34.892 21.3333 35.9094 20.9119 36.6595 20.1618C37.4097 19.4116 37.8311 18.3942 37.8311 17.3333C37.8311 16.2725 37.4097 15.2551 36.6595 14.5049C35.9094 13.7548 34.892 13.3333 33.8311 13.3333C32.7703 13.3333 31.7528 13.7548 31.0027 14.5049C30.2525 15.2551 29.8311 16.2725 29.8311 17.3333C29.8311 18.3942 30.2525 19.4116 31.0027 20.1618C31.7528 20.9119 32.7703 21.3333 33.8311 21.3333ZM32.4978 28C32.4978 27.6464 32.6383 27.3072 32.8883 27.0572C33.1384 26.8071 33.4775 26.6667 33.8311 26.6667C34.1847 26.6667 34.5239 26.8071 34.7739 27.0572C35.024 27.3072 35.1645 27.6464 35.1645 28C35.1645 28.3536 35.024 28.6928 34.7739 28.9428C34.5239 29.1929 34.1847 29.3333 33.8311 29.3333C33.4775 29.3333 33.1384 29.1929 32.8883 28.9428C32.6383 28.6928 32.4978 28.3536 32.4978 28ZM37.8311 28C37.8311 27.4747 37.7277 26.9546 37.5266 26.4693C37.3256 25.984 37.031 25.543 36.6595 25.1716C36.2881 24.8001 35.8472 24.5055 35.3619 24.3045C34.8766 24.1035 34.3564 24 33.8311 24C33.3058 24 32.7857 24.1035 32.3004 24.3045C31.8151 24.5055 31.3741 24.8001 31.0027 25.1716C30.6313 25.543 30.3366 25.984 30.1356 26.4693C29.9346 26.9546 29.8311 27.4747 29.8311 28C29.8311 28.5253 29.9346 29.0454 30.1356 29.5307C30.3366 30.016 30.6313 30.457 31.0027 30.8284C31.3741 31.1999 31.8151 31.4945 32.3004 31.6955C32.7857 31.8965 33.3058 32 33.8311 32C34.3564 32 34.8766 31.8965 35.3619 31.6955C35.8472 31.4945 36.2881 31.1999 36.6595 30.8284C37.031 30.457 37.3256 30.016 37.5266 29.5307C37.7277 29.0454 37.8311 28.5253 37.8311 28ZM33.8311 37.3333C34.1847 37.3333 34.5239 37.4738 34.7739 37.7239C35.024 37.9739 35.1645 38.313 35.1645 38.6667C35.1645 39.0203 35.024 39.3594 34.7739 39.6095C34.5239 39.8595 34.1847 40 33.8311 40C33.4775 40 33.1384 39.8595 32.8883 39.6095C32.6383 39.3594 32.4978 39.0203 32.4978 38.6667C32.4978 38.313 32.6383 37.9739 32.8883 37.7239C33.1384 37.4738 33.4775 37.3333 33.8311 37.3333ZM33.8311 42.6667C34.892 42.6667 35.9094 42.2452 36.6595 41.4951C37.4097 40.7449 37.8311 39.7275 37.8311 38.6667C37.8311 37.6058 37.4097 36.5884 36.6595 35.8382C35.9094 35.0881 34.892 34.6667 33.8311 34.6667C32.7703 34.6667 31.7528 35.0881 31.0027 35.8382C30.2525 36.5884 29.8311 37.6058 29.8311 38.6667C29.8311 39.7275 30.2525 40.7449 31.0027 41.4951C31.7528 42.2452 32.7703 42.6667 33.8311 42.6667ZM44.4978 37.3333C44.8514 37.3333 45.1906 37.4738 45.4406 37.7239C45.6906 37.9739 45.8311 38.313 45.8311 38.6667C45.8311 39.0203 45.6906 39.3594 45.4406 39.6095C45.1906 39.8595 44.8514 40 44.4978 40C44.1442 40 43.805 39.8595 43.555 39.6095C43.3049 39.3594 43.1645 39.0203 43.1645 38.6667C43.1645 38.313 43.3049 37.9739 43.555 37.7239C43.805 37.4738 44.1442 37.3333 44.4978 37.3333ZM44.4978 42.6667C45.5587 42.6667 46.5761 42.2452 47.3262 41.4951C48.0764 40.7449 48.4978 39.7275 48.4978 38.6667C48.4978 37.6058 48.0764 36.5884 47.3262 35.8382C46.5761 35.0881 45.5587 34.6667 44.4978 34.6667C43.4369 34.6667 42.4195 35.0881 41.6694 35.8382C40.9192 36.5884 40.4978 37.6058 40.4978 38.6667C40.4978 39.7275 40.9192 40.7449 41.6694 41.4951C42.4195 42.2452 43.4369 42.6667 44.4978 42.6667ZM21.8311 28C21.8311 27.6464 21.9716 27.3072 22.2216 27.0572C22.4717 26.8071 22.8108 26.6667 23.1645 26.6667C23.5181 26.6667 23.8572 26.8071 24.1073 27.0572C24.3573 27.3072 24.4978 27.6464 24.4978 28C24.4978 28.3536 24.3573 28.6928 24.1073 28.9428C23.8572 29.1929 23.5181 29.3333 23.1645 29.3333C22.8108 29.3333 22.4717 29.1929 22.2216 28.9428C21.9716 28.6928 21.8311 28.3536 21.8311 28ZM27.1645 28C27.1645 26.9391 26.743 25.9217 25.9929 25.1716C25.2427 24.4214 24.2253 24 23.1645 24C22.1036 24 21.0862 24.4214 20.336 25.1716C19.5859 25.9217 19.1645 26.9391 19.1645 28C19.1645 29.0609 19.5859 30.0783 20.336 30.8284C21.0862 31.5786 22.1036 32 23.1645 32C24.2253 32 25.2427 31.5786 25.9929 30.8284C26.743 30.0783 27.1645 29.0609 27.1645 28ZM23.1645 37.3333C23.5181 37.3333 23.8572 37.4738 24.1073 37.7239C24.3573 37.9739 24.4978 38.313 24.4978 38.6667C24.4978 39.0203 24.3573 39.3594 24.1073 39.6095C23.8572 39.8595 23.5181 40 23.1645 40C22.8108 40 22.4717 39.8595 22.2216 39.6095C21.9716 39.3594 21.8311 39.0203 21.8311 38.6667C21.8311 38.313 21.9716 37.9739 22.2216 37.7239C22.4717 37.4738 22.8108 37.3333 23.1645 37.3333ZM23.1645 42.6667C24.2253 42.6667 25.2427 42.2452 25.9929 41.4951C26.743 40.7449 27.1645 39.7275 27.1645 38.6667C27.1645 37.6058 26.743 36.5884 25.9929 35.8382C25.2427 35.0881 24.2253 34.6667 23.1645 34.6667C22.1036 34.6667 21.0862 35.0881 20.336 35.8382C19.5859 36.5884 19.1645 37.6058 19.1645 38.6667C19.1645 39.7275 19.5859 40.7449 20.336 41.4951C21.0862 42.2452 22.1036 42.6667 23.1645 42.6667ZM11.1645 38.6667C11.1645 38.313 11.3049 37.9739 11.555 37.7239C11.805 37.4738 12.1442 37.3333 12.4978 37.3333C12.8514 37.3333 13.1905 37.4738 13.4406 37.7239C13.6906 37.9739 13.8311 38.313 13.8311 38.6667C13.8311 39.0203 13.6906 39.3594 13.4406 39.6095C13.1905 39.8595 12.8514 40 12.4978 40C12.1442 40 11.805 39.8595 11.555 39.6095C11.3049 39.3594 11.1645 39.0203 11.1645 38.6667ZM16.4978 38.6667C16.4978 37.6058 16.0764 36.5884 15.3262 35.8382C14.5761 35.0881 13.5587 34.6667 12.4978 34.6667C11.4369 34.6667 10.4195 35.0881 9.66936 35.8382C8.91921 36.5884 8.49779 37.6058 8.49779 38.6667C8.49779 39.7275 8.91921 40.7449 9.66936 41.4951C10.4195 42.2452 11.4369 42.6667 12.4978 42.6667C13.5587 42.6667 14.5761 42.2452 15.3262 41.4951C16.0764 40.7449 16.4978 39.7275 16.4978 38.6667ZM44.4978 26.6667C44.8514 26.6667 45.1906 26.8071 45.4406 27.0572C45.6906 27.3072 45.8311 27.6464 45.8311 28C45.8311 28.3536 45.6906 28.6928 45.4406 28.9428C45.1906 29.1929 44.8514 29.3333 44.4978 29.3333C44.1442 29.3333 43.805 29.1929 43.555 28.9428C43.3049 28.6928 43.1645 28.3536 43.1645 28C43.1645 27.6464 43.3049 27.3072 43.555 27.0572C43.805 26.8071 44.1442 26.6667 44.4978 26.6667ZM44.4978 32C45.5587 32 46.5761 31.5786 47.3262 30.8284C48.0764 30.0783 48.4978 29.0609 48.4978 28C48.4978 26.9391 48.0764 25.9217 47.3262 25.1716C46.5761 24.4214 45.5587 24 44.4978 24C43.4369 24 42.4195 24.4214 41.6694 25.1716C40.9192 25.9217 40.4978 26.9391 40.4978 28C40.4978 29.0609 40.9192 30.0783 41.6694 30.8284C42.4195 31.5786 43.4369 32 44.4978 32ZM43.1645 17.3333C43.1645 16.9797 43.3049 16.6406 43.555 16.3905C43.805 16.1405 44.1442 16 44.4978 16C44.8514 16 45.1906 16.1405 45.4406 16.3905C45.6906 16.6406 45.8311 16.9797 45.8311 17.3333C45.8311 17.687 45.6906 18.0261 45.4406 18.2761C45.1906 18.5262 44.8514 18.6667 44.4978 18.6667C44.1442 18.6667 43.805 18.5262 43.555 18.2761C43.3049 18.0261 43.1645 17.687 43.1645 17.3333ZM48.4978 17.3333C48.4978 16.2725 48.0764 15.2551 47.3262 14.5049C46.5761 13.7548 45.5587 13.3333 44.4978 13.3333C43.4369 13.3333 42.4195 13.7548 41.6694 14.5049C40.9192 15.2551 40.4978 16.2725 40.4978 17.3333C40.4978 18.3942 40.9192 19.4116 41.6694 20.1618C42.4195 20.9119 43.4369 21.3333 44.4978 21.3333C45.5587 21.3333 46.5761 20.9119 47.3262 20.1618C48.0764 19.4116 48.4978 18.3942 48.4978 17.3333Z" fill="#006CCC"/>
</svg>
