<svg width="18" height="18" viewBox="0 0 18 18" fill="none" xmlns="http://www.w3.org/2000/svg">
<g clip-path="url(#clip0_740_350)">
<path d="M1.188 13.1301L0 17.4861L4.464 16.3161C5.724 17.0001 7.068 17.3421 8.496 17.3421C10.02 17.3421 11.436 16.9581 12.744 16.1901C14.016 15.4461 15.024 14.4381 15.768 13.1661C16.536 11.8581 16.92 10.4421 16.92 8.91808C16.92 7.79008 16.707 6.71308 16.281 5.68708C15.855 4.66108 15.246 3.75208 14.454 2.96008C13.662 2.16809 12.753 1.55908 11.727 1.13309C10.701 0.707085 9.624 0.494085 8.496 0.494085C6.972 0.494085 5.556 0.878084 4.248 1.64608C2.976 2.39008 1.968 3.39808 1.224 4.67008C0.456 5.97808 0.072 7.39408 0.072 8.91808C0.072 9.66208 0.165 10.3911 0.351 11.1051C0.537 11.8191 0.816 12.4941 1.188 13.1301ZM5.832 4.86808C5.94 4.86808 6.018 4.88608 6.066 4.92208C6.162 4.97008 6.246 5.07808 6.318 5.24608C6.462 5.57008 6.612 5.93008 6.768 6.32608L6.984 6.86608C7.056 6.99808 7.062 7.12408 7.002 7.24408L6.984 7.29808C6.924 7.40608 6.858 7.50808 6.786 7.60408L6.624 7.80208C6.552 7.89808 6.498 7.95808 6.462 7.98208C6.39 8.05408 6.348 8.11408 6.336 8.16208C6.3 8.24608 6.312 8.33608 6.372 8.43208C6.732 9.04408 7.134 9.54808 7.578 9.94408C8.094 10.4001 8.634 10.7361 9.198 10.9521L9.342 11.0241C9.45 11.0721 9.54 11.0931 9.612 11.0871C9.684 11.0811 9.75 11.0421 9.81 10.9701C10.158 10.5741 10.386 10.2861 10.494 10.1061C10.554 10.0101 10.62 9.95608 10.692 9.94408C10.764 9.93208 10.86 9.94708 10.98 9.98908C11.1 10.0311 11.556 10.2561 12.348 10.6641L12.6 10.7721C12.768 10.8561 12.87 10.9251 12.906 10.9791C12.942 11.0331 12.948 11.1501 12.924 11.3301C12.9 11.5461 12.846 11.7711 12.762 12.0051C12.678 12.2391 12.462 12.4701 12.114 12.6981C11.802 12.9021 11.532 13.0161 11.304 13.0401L11.16 13.0581C10.908 13.0821 10.656 13.0761 10.404 13.0401C9.984 12.9681 9.408 12.7881 8.676 12.5001C7.8 12.1521 6.966 11.5641 6.174 10.7361C5.73 10.2801 5.34 9.79408 5.004 9.27808C4.992 9.25408 4.974 9.23008 4.95 9.20608L4.914 9.15208C4.35 8.34808 4.068 7.61608 4.068 6.95608C4.068 6.52408 4.158 6.13408 4.338 5.78608C4.434 5.59408 4.584 5.39008 4.788 5.17408L4.806 5.15608C4.806 5.14408 4.812 5.13808 4.824 5.13808C4.992 4.94608 5.19 4.85008 5.418 4.85008H5.436C5.616 4.85008 5.748 4.85608 5.832 4.86808Z" fill="white"/>
</g>
<defs>
<clipPath id="clip0_740_350">
<rect width="18" height="18" fill="white" transform="matrix(1 0 0 -1 0 17.99)"/>
</clipPath>
</defs>
</svg>
