<svg width="328" height="304" viewBox="0 0 328 304" fill="none" xmlns="http://www.w3.org/2000/svg">
<g id="Dropdown | Pessoas" filter="url(#filter0_d_688_921)">
<path d="M20 14H308V270C308 274.418 304.418 278 300 278H28C23.5817 278 20 274.418 20 270V14Z" fill="#FCFCFC" shape-rendering="crispEdges"/>
<path d="M21 15H307V270C307 273.866 303.866 277 300 277H28C24.134 277 21 273.866 21 270V15Z" stroke="#F2F2F2" stroke-width="2" shape-rendering="crispEdges"/>
<g id="Link">
<path d="M276 87H52V89H276V87Z" fill="#CCCCCC" mask="url(#path-3-inside-1_688_921)"/>
<text id="Pessoas" fill="#00182E" xml:space="preserve" style="white-space: pre" font-family="Onest" font-size="16" letter-spacing="0em"><tspan x="52" y="68.32">Pessoas</tspan></text>
</g>
<g id="Link_2">
<path d="M276 137H52V139H276V137Z" fill="#CCCCCC" mask="url(#path-6-inside-2_688_921)"/>
<text id="C&#195;&#179;digo de &#195;&#137;tica" fill="#00182E" xml:space="preserve" style="white-space: pre" font-family="Onest" font-size="16" letter-spacing="0em"><tspan x="52" y="118.32">C&#xf3;digo de &#xc9;tica</tspan></text>
</g>
<g id="Link_3">
<path d="M276 187H52V189H276V187Z" fill="#CCCCCC" mask="url(#path-9-inside-3_688_921)"/>
<text id="Canal de &#195;&#137;tica" fill="#00182E" xml:space="preserve" style="white-space: pre" font-family="Onest" font-size="16" letter-spacing="0em"><tspan x="52" y="168.32">Canal de &#xc9;tica</tspan></text>
</g>
<g id="Link_4">
<path d="M276 237H52V239H276V237Z" fill="#CCCCCC" mask="url(#path-12-inside-4_688_921)"/>
<text id="Trabalhe Conosco" fill="#00182E" xml:space="preserve" style="white-space: pre" font-family="Onest" font-size="16" letter-spacing="0em"><tspan x="52" y="218.32">Trabalhe Conosco</tspan></text>
</g>
<line id="Line 8" x1="20" y1="15" x2="116" y2="15" stroke="#006CCC" stroke-width="2"/>
</g>
<defs>
<filter id="filter0_d_688_921" x="0" y="0" width="328" height="304" filterUnits="userSpaceOnUse" color-interpolation-filters="sRGB">
<feFlood flood-opacity="0" result="BackgroundImageFix"/>
<feColorMatrix in="SourceAlpha" type="matrix" values="0 0 0 0 0 0 0 0 0 0 0 0 0 0 0 0 0 0 127 0" result="hardAlpha"/>
<feOffset dy="6"/>
<feGaussianBlur stdDeviation="10"/>
<feComposite in2="hardAlpha" operator="out"/>
<feColorMatrix type="matrix" values="0 0 0 0 0.0784314 0 0 0 0 0.0784314 0 0 0 0 0.168627 0 0 0 0.06 0"/>
<feBlend mode="normal" in2="BackgroundImageFix" result="effect1_dropShadow_688_921"/>
<feBlend mode="normal" in="SourceGraphic" in2="effect1_dropShadow_688_921" result="shape"/>
</filter>
</defs>
</svg>
